<mxfile host="Electron" agent="Mozilla/5.0 (Windows NT 10.0; Win64; x64) AppleWebKit/537.36 (KHTML, like Gecko) draw.io/26.0.4 Chrome/128.0.6613.186 Electron/32.2.5 Safari/537.36" version="26.0.4" pages="2">
  <diagram name="Page-1" id="OpQReejfZ9rxMFeyUDF-">
    <mxGraphModel dx="16123" dy="1906" grid="1" gridSize="10" guides="1" tooltips="1" connect="1" arrows="1" fold="1" page="1" pageScale="1" pageWidth="827" pageHeight="1169" math="0" shadow="0">
      <root>
        <mxCell id="0" />
        <mxCell id="1" parent="0" />
        <UserObject label="&lt;div id=&quot;app&quot;&gt;&lt;/div&gt;&lt;div class=&quot;ed-skeleton-page&quot;&gt;&lt;div class=&quot;ed-skeleton-app&quot;&gt;&lt;div class=&quot;skeleton-header&quot;&gt;&lt;div class=&quot;header-user-info&quot;&gt;&lt;div class=&quot;info-left&quot;&gt;&lt;div class=&quot;file-icon common-style&quot;&gt;&lt;/div&gt;&lt;div class=&quot;line&quot;&gt;&lt;/div&gt;&lt;div class=&quot;file-name common-style&quot;&gt;&lt;/div&gt;&lt;/div&gt;&lt;div class=&quot;info-right&quot;&gt;&lt;div class=&quot;item1 common-style&quot;&gt;&lt;/div&gt;&lt;div class=&quot;item1 common-style&quot;&gt;&lt;/div&gt;&lt;div class=&quot;line&quot;&gt;&lt;/div&gt;&lt;div class=&quot;avatar common-style&quot;&gt;&lt;/div&gt;&lt;/div&gt;&lt;/div&gt;&lt;div class=&quot;header-action-bar&quot;&gt;&lt;div class=&quot;item common-style&quot;&gt;&lt;/div&gt;&lt;/div&gt;&lt;/div&gt;&lt;div class=&quot;skeleton-left-panel&quot;&gt;&lt;div class=&quot;left-panel&quot;&gt;&lt;div class=&quot;panel-item&quot;&gt;&lt;div class=&quot;icon common-style&quot;&gt;&lt;/div&gt;&lt;div class=&quot;text common-style&quot;&gt;&lt;/div&gt;&lt;/div&gt;&lt;div class=&quot;panel-item&quot;&gt;&lt;div class=&quot;icon common-style&quot;&gt;&lt;/div&gt;&lt;div class=&quot;text common-style&quot;&gt;&lt;/div&gt;&lt;/div&gt;&lt;div class=&quot;panel-item&quot;&gt;&lt;div class=&quot;icon common-style&quot;&gt;&lt;/div&gt;&lt;div class=&quot;text common-style&quot;&gt;&lt;/div&gt;&lt;/div&gt;&lt;div class=&quot;panel-item&quot;&gt;&lt;div class=&quot;icon common-style&quot;&gt;&lt;/div&gt;&lt;div class=&quot;text common-style&quot;&gt;&lt;/div&gt;&lt;/div&gt;&lt;div class=&quot;panel-item&quot;&gt;&lt;div class=&quot;icon common-style&quot;&gt;&lt;/div&gt;&lt;div class=&quot;text common-style&quot;&gt;&lt;/div&gt;&lt;/div&gt;&lt;div class=&quot;panel-item&quot;&gt;&lt;div class=&quot;icon common-style&quot;&gt;&lt;/div&gt;&lt;div class=&quot;text common-style&quot;&gt;&lt;/div&gt;&lt;/div&gt;&lt;div class=&quot;panel-item&quot;&gt;&lt;div class=&quot;icon common-style&quot;&gt;&lt;/div&gt;&lt;div class=&quot;text common-style&quot;&gt;&lt;/div&gt;&lt;/div&gt;&lt;div class=&quot;panel-item&quot;&gt;&lt;div class=&quot;icon common-style&quot;&gt;&lt;/div&gt;&lt;div class=&quot;text common-style&quot;&gt;&lt;/div&gt;&lt;/div&gt;&lt;/div&gt;&lt;div class=&quot;left-panel-view&quot;&gt;&lt;div class=&quot;view common-style&quot;&gt;&lt;/div&gt;&lt;div class=&quot;view common-style&quot;&gt;&lt;/div&gt;&lt;div class=&quot;view-box&quot;&gt;&lt;div class=&quot;item common-style&quot;&gt;&lt;/div&gt;&lt;div class=&quot;item common-style&quot;&gt;&lt;/div&gt;&lt;div class=&quot;item common-style&quot;&gt;&lt;/div&gt;&lt;div class=&quot;item common-style&quot;&gt;&lt;/div&gt;&lt;div class=&quot;item common-style&quot;&gt;&lt;/div&gt;&lt;div class=&quot;item common-style&quot;&gt;&lt;/div&gt;&lt;div class=&quot;item common-style&quot;&gt;&lt;/div&gt;&lt;div class=&quot;item common-style&quot;&gt;&lt;/div&gt;&lt;div class=&quot;item common-style&quot;&gt;&lt;/div&gt;&lt;div class=&quot;item common-style&quot;&gt;&lt;/div&gt;&lt;div class=&quot;item common-style&quot;&gt;&lt;/div&gt;&lt;div class=&quot;item common-style&quot;&gt;&lt;/div&gt;&lt;div class=&quot;item common-style&quot;&gt;&lt;/div&gt;&lt;div class=&quot;item common-style&quot;&gt;&lt;/div&gt;&lt;div class=&quot;item common-style&quot;&gt;&lt;/div&gt;&lt;div class=&quot;item common-style&quot;&gt;&lt;/div&gt;&lt;/div&gt;&lt;/div&gt;&lt;/div&gt;&lt;div class=&quot;skeleton-main-content common-style&quot;&gt;&lt;/div&gt;&lt;div class=&quot;skeleton-right-panel&quot;&gt;&lt;div class=&quot;right-item common-style&quot;&gt;&lt;/div&gt;&lt;div class=&quot;right-item common-style&quot;&gt;&lt;/div&gt;&lt;div class=&quot;right-item common-style&quot;&gt;&lt;/div&gt;&lt;/div&gt;&lt;div class=&quot;skeleton-footer&quot;&gt;&lt;div class=&quot;footer-item common-style&quot;&gt;&lt;/div&gt;&lt;/div&gt;&lt;div class=&quot;skeleton-loading&quot;&gt;&lt;img alt=&quot;&quot; src=&quot;./source/UImg/logoanimation2.gif&quot; class=&quot;loading-img&quot;&gt;&lt;div class=&quot;ed-skeleton-progress-bar&quot;&gt;&lt;div class=&quot;ed-skeleton-progress&quot;&gt;&lt;/div&gt;&lt;/div&gt;&lt;div class=&quot;ed-skeleton-loading-text&quot;&gt;&lt;/div&gt;&lt;div class=&quot;skeleton-download&quot;&gt;&lt;svg xmlns=&quot;http://www.w3.org/2000/svg&quot; fill=&quot;none&quot; viewBox=&quot;0 0 24 24&quot; height=&quot;24&quot; width=&quot;24&quot;&gt;&lt;path stroke-linejoin=&quot;round&quot; stroke-linecap=&quot;round&quot; stroke=&quot;white&quot; d=&quot;M11.5 5.51367V10.0005V13.7505&quot;&gt;&lt;/path&gt;&lt;path stroke-linecap=&quot;round&quot; stroke=&quot;white&quot; d=&quot;M4.5 12.5V16C4.5 16.8284 5.17157 17.5 6 17.5H17C17.8284 17.5 18.5 16.8284 18.5 16V12.5&quot;&gt;&lt;/path&gt;&lt;path fill=&quot;white&quot; d=&quot;M13.5749 12H9.42712C9.25753 12 9.16491 12.1978 9.2735 12.3281L11.3474 14.8157C11.4273 14.9116 11.5747 14.9116 11.6546 14.8157L13.7285 12.3281C13.8371 12.1978 13.7445 12 13.5749 12Z&quot;&gt;&lt;/path&gt;&lt;/svg&gt; &lt;span id=&quot;ed-loading-downloadBtn&quot;&gt;&lt;/span&gt;&lt;/div&gt;&lt;/div&gt;&lt;/div&gt;&lt;/div&gt;&#xa;" id="W1IO-5uDkaTUR0JaA-n2-1">
          <mxCell style="text;whiteSpace=wrap;html=1;" parent="1" vertex="1">
            <mxGeometry x="40" y="40" width="60" height="80" as="geometry" />
          </mxCell>
        </UserObject>
        <mxCell id="W1IO-5uDkaTUR0JaA-n2-2" value="Questions&amp;nbsp;" style="rounded=0;whiteSpace=wrap;html=1;" parent="1" vertex="1">
          <mxGeometry x="-14105" y="260" width="270" height="60" as="geometry" />
        </mxCell>
        <mxCell id="W1IO-5uDkaTUR0JaA-n2-3" style="edgeStyle=orthogonalEdgeStyle;rounded=0;orthogonalLoop=1;jettySize=auto;html=1;exitX=1;exitY=0.25;exitDx=0;exitDy=0;entryX=0;entryY=0.5;entryDx=0;entryDy=0;endArrow=none;startFill=0;" parent="1" source="W1IO-5uDkaTUR0JaA-n2-5" target="W1IO-5uDkaTUR0JaA-n2-11" edge="1">
          <mxGeometry relative="1" as="geometry" />
        </mxCell>
        <mxCell id="W1IO-5uDkaTUR0JaA-n2-4" style="edgeStyle=orthogonalEdgeStyle;rounded=0;orthogonalLoop=1;jettySize=auto;html=1;exitX=1;exitY=0.75;exitDx=0;exitDy=0;endArrow=none;startFill=0;" parent="1" source="W1IO-5uDkaTUR0JaA-n2-5" target="W1IO-5uDkaTUR0JaA-n2-76" edge="1">
          <mxGeometry relative="1" as="geometry" />
        </mxCell>
        <mxCell id="W1IO-5uDkaTUR0JaA-n2-5" value="course" style="rounded=0;whiteSpace=wrap;html=1;" parent="1" vertex="1">
          <mxGeometry x="-12610" y="480" width="120" height="60" as="geometry" />
        </mxCell>
        <mxCell id="W1IO-5uDkaTUR0JaA-n2-6" style="edgeStyle=orthogonalEdgeStyle;rounded=0;orthogonalLoop=1;jettySize=auto;html=1;entryX=0;entryY=1;entryDx=0;entryDy=0;endArrow=none;startFill=0;" parent="1" source="W1IO-5uDkaTUR0JaA-n2-7" target="W1IO-5uDkaTUR0JaA-n2-5" edge="1">
          <mxGeometry relative="1" as="geometry" />
        </mxCell>
        <mxCell id="W1IO-5uDkaTUR0JaA-n2-7" value="C_id" style="ellipse;whiteSpace=wrap;html=1;" parent="1" vertex="1">
          <mxGeometry x="-12760" y="540" width="100" height="70" as="geometry" />
        </mxCell>
        <mxCell id="W1IO-5uDkaTUR0JaA-n2-8" value="C_description" style="ellipse;whiteSpace=wrap;html=1;" parent="1" vertex="1">
          <mxGeometry x="-12500" y="390" width="90" height="60" as="geometry" />
        </mxCell>
        <mxCell id="W1IO-5uDkaTUR0JaA-n2-9" value="Max_degree" style="ellipse;whiteSpace=wrap;html=1;" parent="1" vertex="1">
          <mxGeometry x="-12650" y="592.5" width="120" height="80" as="geometry" />
        </mxCell>
        <mxCell id="W1IO-5uDkaTUR0JaA-n2-10" style="edgeStyle=orthogonalEdgeStyle;rounded=0;orthogonalLoop=1;jettySize=auto;html=1;entryX=0.233;entryY=0.995;entryDx=0;entryDy=0;entryPerimeter=0;endArrow=none;startFill=0;" parent="1" target="W1IO-5uDkaTUR0JaA-n2-5" edge="1">
          <mxGeometry relative="1" as="geometry">
            <mxPoint x="-12580.75" y="590" as="sourcePoint" />
            <mxPoint x="-12581.970000000001" y="541.3199999999999" as="targetPoint" />
            <Array as="points">
              <mxPoint x="-12581" y="565" />
              <mxPoint x="-12584" y="565" />
              <mxPoint x="-12584" y="541" />
              <mxPoint x="-12582" y="541" />
            </Array>
          </mxGeometry>
        </mxCell>
        <mxCell id="W1IO-5uDkaTUR0JaA-n2-11" value="Min_degree" style="ellipse;whiteSpace=wrap;html=1;" parent="1" vertex="1">
          <mxGeometry x="-12425" y="462.5" width="100" height="58" as="geometry" />
        </mxCell>
        <mxCell id="W1IO-5uDkaTUR0JaA-n2-12" style="edgeStyle=orthogonalEdgeStyle;rounded=0;orthogonalLoop=1;jettySize=auto;html=1;endArrow=none;startFill=0;" parent="1" source="W1IO-5uDkaTUR0JaA-n2-13" edge="1">
          <mxGeometry relative="1" as="geometry">
            <mxPoint x="-13990" y="520" as="targetPoint" />
          </mxGeometry>
        </mxCell>
        <mxCell id="W1IO-5uDkaTUR0JaA-n2-13" value="d" style="ellipse;whiteSpace=wrap;html=1;aspect=fixed;" parent="1" vertex="1">
          <mxGeometry x="-14030" y="390" width="80" height="80" as="geometry" />
        </mxCell>
        <mxCell id="W1IO-5uDkaTUR0JaA-n2-14" value="" style="endArrow=none;html=1;rounded=0;entryX=0;entryY=1;entryDx=0;entryDy=0;exitX=0.5;exitY=0;exitDx=0;exitDy=0;" parent="1" source="W1IO-5uDkaTUR0JaA-n2-15" target="W1IO-5uDkaTUR0JaA-n2-13" edge="1">
          <mxGeometry width="50" height="50" relative="1" as="geometry">
            <mxPoint x="-14130" y="590" as="sourcePoint" />
            <mxPoint x="-13990" y="520" as="targetPoint" />
            <Array as="points">
              <mxPoint x="-14070" y="560" />
            </Array>
          </mxGeometry>
        </mxCell>
        <mxCell id="W1IO-5uDkaTUR0JaA-n2-15" value="MCQ" style="rounded=0;whiteSpace=wrap;html=1;" parent="1" vertex="1">
          <mxGeometry x="-14200" y="670" width="120" height="60" as="geometry" />
        </mxCell>
        <mxCell id="W1IO-5uDkaTUR0JaA-n2-16" style="edgeStyle=orthogonalEdgeStyle;rounded=0;orthogonalLoop=1;jettySize=auto;html=1;exitX=0.5;exitY=0;exitDx=0;exitDy=0;endArrow=none;startFill=0;" parent="1" source="W1IO-5uDkaTUR0JaA-n2-17" edge="1">
          <mxGeometry relative="1" as="geometry">
            <mxPoint x="-13990" y="520" as="targetPoint" />
          </mxGeometry>
        </mxCell>
        <mxCell id="W1IO-5uDkaTUR0JaA-n2-17" value="Tf" style="rounded=0;whiteSpace=wrap;html=1;" parent="1" vertex="1">
          <mxGeometry x="-14050" y="668" width="120" height="60" as="geometry" />
        </mxCell>
        <mxCell id="W1IO-5uDkaTUR0JaA-n2-18" style="edgeStyle=orthogonalEdgeStyle;rounded=0;orthogonalLoop=1;jettySize=auto;html=1;exitX=1;exitY=0.5;exitDx=0;exitDy=0;endArrow=none;startFill=0;entryX=0.324;entryY=0.073;entryDx=0;entryDy=0;entryPerimeter=0;" parent="1" source="W1IO-5uDkaTUR0JaA-n2-19" target="W1IO-5uDkaTUR0JaA-n2-24" edge="1">
          <mxGeometry relative="1" as="geometry">
            <mxPoint x="-13700" y="609.5" as="targetPoint" />
            <Array as="points">
              <mxPoint x="-13661" y="690" />
            </Array>
          </mxGeometry>
        </mxCell>
        <mxCell id="W1IO-5uDkaTUR0JaA-n2-19" value="Text" style="rounded=0;whiteSpace=wrap;html=1;" parent="1" vertex="1">
          <mxGeometry x="-13900" y="668" width="120" height="60" as="geometry" />
        </mxCell>
        <mxCell id="W1IO-5uDkaTUR0JaA-n2-20" value="" style="endArrow=none;html=1;rounded=0;entryX=0.5;entryY=0;entryDx=0;entryDy=0;exitX=0.718;exitY=1.002;exitDx=0;exitDy=0;exitPerimeter=0;" parent="1" source="W1IO-5uDkaTUR0JaA-n2-13" target="W1IO-5uDkaTUR0JaA-n2-19" edge="1">
          <mxGeometry relative="1" as="geometry">
            <mxPoint x="-13990" y="520" as="sourcePoint" />
            <mxPoint x="-13830" y="580" as="targetPoint" />
            <Array as="points" />
          </mxGeometry>
        </mxCell>
        <mxCell id="W1IO-5uDkaTUR0JaA-n2-21" value="1" style="resizable=0;html=1;whiteSpace=wrap;align=right;verticalAlign=bottom;" parent="W1IO-5uDkaTUR0JaA-n2-20" connectable="0" vertex="1">
          <mxGeometry x="1" relative="1" as="geometry">
            <mxPoint x="-20" y="-58" as="offset" />
          </mxGeometry>
        </mxCell>
        <mxCell id="W1IO-5uDkaTUR0JaA-n2-22" value="correct answer" style="ellipse;whiteSpace=wrap;html=1;" parent="1" vertex="1">
          <mxGeometry x="-14060" y="745" width="120" height="80" as="geometry" />
        </mxCell>
        <mxCell id="W1IO-5uDkaTUR0JaA-n2-23" style="edgeStyle=orthogonalEdgeStyle;rounded=0;orthogonalLoop=1;jettySize=auto;html=1;endArrow=none;startFill=0;" parent="1" source="W1IO-5uDkaTUR0JaA-n2-22" edge="1">
          <mxGeometry relative="1" as="geometry">
            <mxPoint x="-14000" y="730" as="targetPoint" />
          </mxGeometry>
        </mxCell>
        <mxCell id="W1IO-5uDkaTUR0JaA-n2-24" value="best accepted answer" style="ellipse;whiteSpace=wrap;html=1;" parent="1" vertex="1">
          <mxGeometry x="-13700" y="690" width="120" height="80" as="geometry" />
        </mxCell>
        <mxCell id="W1IO-5uDkaTUR0JaA-n2-25" style="edgeStyle=orthogonalEdgeStyle;rounded=0;orthogonalLoop=1;jettySize=auto;html=1;exitX=0.5;exitY=1;exitDx=0;exitDy=0;endArrow=none;startFill=0;" parent="1" source="W1IO-5uDkaTUR0JaA-n2-27" edge="1">
          <mxGeometry relative="1" as="geometry">
            <mxPoint x="-14500" y="460" as="targetPoint" />
          </mxGeometry>
        </mxCell>
        <mxCell id="W1IO-5uDkaTUR0JaA-n2-26" style="edgeStyle=orthogonalEdgeStyle;rounded=0;orthogonalLoop=1;jettySize=auto;html=1;exitX=0;exitY=0.5;exitDx=0;exitDy=0;endArrow=none;startFill=0;" parent="1" source="W1IO-5uDkaTUR0JaA-n2-27" edge="1">
          <mxGeometry relative="1" as="geometry">
            <mxPoint x="-14620" y="389.5" as="targetPoint" />
          </mxGeometry>
        </mxCell>
        <mxCell id="W1IO-5uDkaTUR0JaA-n2-27" value="Choice" style="rounded=0;whiteSpace=wrap;html=1;" parent="1" vertex="1">
          <mxGeometry x="-14560" y="360" width="120" height="60" as="geometry" />
        </mxCell>
        <mxCell id="W1IO-5uDkaTUR0JaA-n2-28" value="istrue" style="ellipse;whiteSpace=wrap;html=1;" parent="1" vertex="1">
          <mxGeometry x="-14560" y="460" width="120" height="80" as="geometry" />
        </mxCell>
        <mxCell id="W1IO-5uDkaTUR0JaA-n2-29" value="choice" style="ellipse;whiteSpace=wrap;html=1;" parent="1" vertex="1">
          <mxGeometry x="-14740" y="350" width="120" height="80" as="geometry" />
        </mxCell>
        <mxCell id="W1IO-5uDkaTUR0JaA-n2-30" style="edgeStyle=orthogonalEdgeStyle;rounded=0;orthogonalLoop=1;jettySize=auto;html=1;entryX=1;entryY=0.75;entryDx=0;entryDy=0;endArrow=none;startFill=0;" parent="1" source="W1IO-5uDkaTUR0JaA-n2-32" target="W1IO-5uDkaTUR0JaA-n2-27" edge="1">
          <mxGeometry relative="1" as="geometry" />
        </mxCell>
        <mxCell id="W1IO-5uDkaTUR0JaA-n2-31" style="edgeStyle=orthogonalEdgeStyle;rounded=0;orthogonalLoop=1;jettySize=auto;html=1;exitX=1;exitY=0.5;exitDx=0;exitDy=0;entryX=0;entryY=0.25;entryDx=0;entryDy=0;endArrow=none;startFill=0;" parent="1" source="W1IO-5uDkaTUR0JaA-n2-32" target="W1IO-5uDkaTUR0JaA-n2-15" edge="1">
          <mxGeometry relative="1" as="geometry" />
        </mxCell>
        <mxCell id="W1IO-5uDkaTUR0JaA-n2-32" value="has" style="rhombus;whiteSpace=wrap;html=1;" parent="1" vertex="1">
          <mxGeometry x="-14320" y="440" width="70" height="80" as="geometry" />
        </mxCell>
        <mxCell id="W1IO-5uDkaTUR0JaA-n2-33" value="user" style="rounded=0;whiteSpace=wrap;html=1;" parent="1" vertex="1">
          <mxGeometry x="-12730" y="-440" width="270" height="60" as="geometry" />
        </mxCell>
        <mxCell id="W1IO-5uDkaTUR0JaA-n2-34" value="d" style="ellipse;whiteSpace=wrap;html=1;aspect=fixed;" parent="1" vertex="1">
          <mxGeometry x="-12615" y="-170" width="40" height="40" as="geometry" />
        </mxCell>
        <mxCell id="W1IO-5uDkaTUR0JaA-n2-35" value="" style="endArrow=none;html=1;rounded=0;entryX=0;entryY=1;entryDx=0;entryDy=0;exitX=0.792;exitY=0;exitDx=0;exitDy=0;exitPerimeter=0;" parent="1" source="W1IO-5uDkaTUR0JaA-n2-37" target="W1IO-5uDkaTUR0JaA-n2-34" edge="1">
          <mxGeometry width="50" height="50" relative="1" as="geometry">
            <mxPoint x="-12740" y="50" as="sourcePoint" />
            <mxPoint x="-12600" y="-20" as="targetPoint" />
            <Array as="points" />
          </mxGeometry>
        </mxCell>
        <mxCell id="W1IO-5uDkaTUR0JaA-n2-36" style="edgeStyle=orthogonalEdgeStyle;rounded=0;orthogonalLoop=1;jettySize=auto;html=1;exitX=0;exitY=0.75;exitDx=0;exitDy=0;entryX=0.5;entryY=0;entryDx=0;entryDy=0;endArrow=none;startFill=0;" parent="1" source="W1IO-5uDkaTUR0JaA-n2-37" target="W1IO-5uDkaTUR0JaA-n2-79" edge="1">
          <mxGeometry relative="1" as="geometry" />
        </mxCell>
        <mxCell id="W1IO-5uDkaTUR0JaA-n2-37" value="instructor" style="rounded=0;whiteSpace=wrap;html=1;" parent="1" vertex="1">
          <mxGeometry x="-12815" y="110" width="120" height="60" as="geometry" />
        </mxCell>
        <mxCell id="W1IO-5uDkaTUR0JaA-n2-38" style="edgeStyle=orthogonalEdgeStyle;rounded=0;orthogonalLoop=1;jettySize=auto;html=1;entryX=0.3;entryY=0.958;entryDx=0;entryDy=0;entryPerimeter=0;endArrow=none;startFill=0;" parent="1" source="W1IO-5uDkaTUR0JaA-n2-39" target="W1IO-5uDkaTUR0JaA-n2-48" edge="1">
          <mxGeometry relative="1" as="geometry">
            <mxPoint x="-12320" y="70" as="targetPoint" />
          </mxGeometry>
        </mxCell>
        <mxCell id="W1IO-5uDkaTUR0JaA-n2-39" value="Student" style="rounded=0;whiteSpace=wrap;html=1;" parent="1" vertex="1">
          <mxGeometry x="-12500" y="40" width="120" height="60" as="geometry" />
        </mxCell>
        <mxCell id="W1IO-5uDkaTUR0JaA-n2-40" value="" style="endArrow=none;html=1;rounded=0;exitX=1;exitY=1;exitDx=0;exitDy=0;" parent="1" source="W1IO-5uDkaTUR0JaA-n2-34" edge="1">
          <mxGeometry relative="1" as="geometry">
            <mxPoint x="-12600" y="-20" as="sourcePoint" />
            <mxPoint x="-12440" y="40" as="targetPoint" />
            <Array as="points" />
          </mxGeometry>
        </mxCell>
        <mxCell id="W1IO-5uDkaTUR0JaA-n2-41" value="&lt;u&gt;Id&lt;/u&gt;" style="ellipse;whiteSpace=wrap;html=1;" parent="1" vertex="1">
          <mxGeometry x="-12700" y="-535" width="110" height="40" as="geometry" />
        </mxCell>
        <mxCell id="W1IO-5uDkaTUR0JaA-n2-42" value="name" style="ellipse;whiteSpace=wrap;html=1;" parent="1" vertex="1">
          <mxGeometry x="-12520" y="-535" width="100" height="55" as="geometry" />
        </mxCell>
        <mxCell id="W1IO-5uDkaTUR0JaA-n2-43" value="email" style="ellipse;whiteSpace=wrap;html=1;" parent="1" vertex="1">
          <mxGeometry x="-12795" y="-530" width="80" height="50" as="geometry" />
        </mxCell>
        <mxCell id="W1IO-5uDkaTUR0JaA-n2-44" style="edgeStyle=orthogonalEdgeStyle;rounded=0;orthogonalLoop=1;jettySize=auto;html=1;exitX=0.5;exitY=1;exitDx=0;exitDy=0;endArrow=none;startFill=0;" parent="1" source="W1IO-5uDkaTUR0JaA-n2-42" edge="1">
          <mxGeometry relative="1" as="geometry">
            <mxPoint x="-12480" y="-443" as="targetPoint" />
          </mxGeometry>
        </mxCell>
        <mxCell id="W1IO-5uDkaTUR0JaA-n2-45" style="edgeStyle=orthogonalEdgeStyle;rounded=0;orthogonalLoop=1;jettySize=auto;html=1;exitX=0.5;exitY=1;exitDx=0;exitDy=0;endArrow=none;startFill=0;" parent="1" source="W1IO-5uDkaTUR0JaA-n2-41" edge="1">
          <mxGeometry relative="1" as="geometry">
            <Array as="points">
              <mxPoint x="-12650" y="-495" />
              <mxPoint x="-12650" y="-438" />
            </Array>
            <mxPoint x="-12650" y="-438" as="targetPoint" />
          </mxGeometry>
        </mxCell>
        <mxCell id="W1IO-5uDkaTUR0JaA-n2-46" style="edgeStyle=orthogonalEdgeStyle;rounded=0;orthogonalLoop=1;jettySize=auto;html=1;endArrow=none;startFill=0;" parent="1" source="W1IO-5uDkaTUR0JaA-n2-47" edge="1">
          <mxGeometry relative="1" as="geometry">
            <Array as="points">
              <mxPoint x="-12540" y="-440" />
            </Array>
            <mxPoint x="-12550" y="-526" as="sourcePoint" />
            <mxPoint x="-12540" y="-440" as="targetPoint" />
          </mxGeometry>
        </mxCell>
        <mxCell id="W1IO-5uDkaTUR0JaA-n2-48" value="grade" style="ellipse;whiteSpace=wrap;html=1;" parent="1" vertex="1">
          <mxGeometry x="-12370" y="-27.5" width="100" height="60" as="geometry" />
        </mxCell>
        <mxCell id="W1IO-5uDkaTUR0JaA-n2-49" style="edgeStyle=orthogonalEdgeStyle;rounded=0;orthogonalLoop=1;jettySize=auto;html=1;exitX=1;exitY=0.25;exitDx=0;exitDy=0;entryX=0;entryY=0.5;entryDx=0;entryDy=0;endArrow=none;startFill=0;" parent="1" source="W1IO-5uDkaTUR0JaA-n2-50" target="W1IO-5uDkaTUR0JaA-n2-52" edge="1">
          <mxGeometry relative="1" as="geometry" />
        </mxCell>
        <mxCell id="W1IO-5uDkaTUR0JaA-n2-50" value="track" style="rounded=0;whiteSpace=wrap;html=1;" parent="1" vertex="1">
          <mxGeometry x="-11119.14" y="211.25" width="120" height="60" as="geometry" />
        </mxCell>
        <mxCell id="W1IO-5uDkaTUR0JaA-n2-51" value="&lt;u&gt;In_id&lt;/u&gt;" style="ellipse;whiteSpace=wrap;html=1;" parent="1" vertex="1">
          <mxGeometry x="-10949.14" y="247.5" width="110" height="50" as="geometry" />
        </mxCell>
        <mxCell id="W1IO-5uDkaTUR0JaA-n2-52" value="In_name" style="ellipse;whiteSpace=wrap;html=1;" parent="1" vertex="1">
          <mxGeometry x="-10949.14" y="157.5" width="90" height="65" as="geometry" />
        </mxCell>
        <mxCell id="W1IO-5uDkaTUR0JaA-n2-53" value="Intake&amp;nbsp;" style="rounded=0;whiteSpace=wrap;html=1;" parent="1" vertex="1">
          <mxGeometry x="-11604.14" y="30" width="120" height="60" as="geometry" />
        </mxCell>
        <mxCell id="W1IO-5uDkaTUR0JaA-n2-54" value="" style="edgeStyle=orthogonalEdgeStyle;rounded=0;orthogonalLoop=1;jettySize=auto;html=1;endArrow=none;startFill=0;" parent="1" source="W1IO-5uDkaTUR0JaA-n2-55" target="W1IO-5uDkaTUR0JaA-n2-53" edge="1">
          <mxGeometry relative="1" as="geometry" />
        </mxCell>
        <mxCell id="W1IO-5uDkaTUR0JaA-n2-55" value="&lt;u&gt;T_id&lt;/u&gt;" style="ellipse;whiteSpace=wrap;html=1;" parent="1" vertex="1">
          <mxGeometry x="-11439.14" y="70" width="110" height="50" as="geometry" />
        </mxCell>
        <mxCell id="W1IO-5uDkaTUR0JaA-n2-56" style="edgeStyle=orthogonalEdgeStyle;rounded=0;orthogonalLoop=1;jettySize=auto;html=1;exitX=0;exitY=0.5;exitDx=0;exitDy=0;entryX=1;entryY=0.25;entryDx=0;entryDy=0;endArrow=none;startFill=0;" parent="1" source="W1IO-5uDkaTUR0JaA-n2-57" target="W1IO-5uDkaTUR0JaA-n2-53" edge="1">
          <mxGeometry relative="1" as="geometry" />
        </mxCell>
        <mxCell id="W1IO-5uDkaTUR0JaA-n2-57" value="T_name" style="ellipse;whiteSpace=wrap;html=1;" parent="1" vertex="1">
          <mxGeometry x="-11429.14" y="-17.5" width="90" height="65" as="geometry" />
        </mxCell>
        <mxCell id="W1IO-5uDkaTUR0JaA-n2-58" value="Branch" style="rounded=0;whiteSpace=wrap;html=1;" parent="1" vertex="1">
          <mxGeometry x="-11604.14" y="657.5" width="120" height="60" as="geometry" />
        </mxCell>
        <mxCell id="W1IO-5uDkaTUR0JaA-n2-59" style="edgeStyle=orthogonalEdgeStyle;rounded=0;orthogonalLoop=1;jettySize=auto;html=1;endArrow=none;startFill=0;entryX=1;entryY=0.75;entryDx=0;entryDy=0;" parent="1" source="W1IO-5uDkaTUR0JaA-n2-60" target="W1IO-5uDkaTUR0JaA-n2-58" edge="1">
          <mxGeometry relative="1" as="geometry">
            <mxPoint x="-11479.14" y="707.5" as="targetPoint" />
          </mxGeometry>
        </mxCell>
        <mxCell id="W1IO-5uDkaTUR0JaA-n2-60" value="&lt;u&gt;B_id&lt;/u&gt;" style="ellipse;whiteSpace=wrap;html=1;" parent="1" vertex="1">
          <mxGeometry x="-11419.14" y="687.5" width="100" height="50" as="geometry" />
        </mxCell>
        <mxCell id="W1IO-5uDkaTUR0JaA-n2-61" style="edgeStyle=orthogonalEdgeStyle;rounded=0;orthogonalLoop=1;jettySize=auto;html=1;exitX=0;exitY=0.5;exitDx=0;exitDy=0;entryX=1;entryY=0.25;entryDx=0;entryDy=0;endArrow=none;startFill=0;" parent="1" source="W1IO-5uDkaTUR0JaA-n2-62" target="W1IO-5uDkaTUR0JaA-n2-58" edge="1">
          <mxGeometry relative="1" as="geometry" />
        </mxCell>
        <mxCell id="W1IO-5uDkaTUR0JaA-n2-62" value="B_name" style="ellipse;whiteSpace=wrap;html=1;" parent="1" vertex="1">
          <mxGeometry x="-11439.14" y="607.5" width="90" height="65" as="geometry" />
        </mxCell>
        <mxCell id="W1IO-5uDkaTUR0JaA-n2-65" value="Exam" style="rounded=0;whiteSpace=wrap;html=1;" parent="1" vertex="1">
          <mxGeometry x="-14080" y="-890" width="120" height="60" as="geometry" />
        </mxCell>
        <mxCell id="W1IO-5uDkaTUR0JaA-n2-66" value="E_id" style="ellipse;whiteSpace=wrap;html=1;" parent="1" vertex="1">
          <mxGeometry x="-14020" y="-990" width="120" height="80" as="geometry" />
        </mxCell>
        <mxCell id="W1IO-5uDkaTUR0JaA-n2-67" style="edgeStyle=orthogonalEdgeStyle;rounded=0;orthogonalLoop=1;jettySize=auto;html=1;entryX=0.25;entryY=0;entryDx=0;entryDy=0;endArrow=none;startFill=0;" parent="1" source="W1IO-5uDkaTUR0JaA-n2-68" target="W1IO-5uDkaTUR0JaA-n2-65" edge="1">
          <mxGeometry relative="1" as="geometry" />
        </mxCell>
        <mxCell id="W1IO-5uDkaTUR0JaA-n2-68" value="type" style="ellipse;whiteSpace=wrap;html=1;" parent="1" vertex="1">
          <mxGeometry x="-14170" y="-1000" width="120" height="80" as="geometry" />
        </mxCell>
        <mxCell id="W1IO-5uDkaTUR0JaA-n2-69" value="E_time" style="ellipse;whiteSpace=wrap;html=1;" parent="1" vertex="1">
          <mxGeometry x="-13890" y="92" width="100" height="40" as="geometry" />
        </mxCell>
        <mxCell id="W1IO-5uDkaTUR0JaA-n2-70" style="edgeStyle=orthogonalEdgeStyle;rounded=0;orthogonalLoop=1;jettySize=auto;html=1;exitX=1;exitY=1;exitDx=0;exitDy=0;entryX=0;entryY=1;entryDx=0;entryDy=0;endArrow=none;startFill=0;" parent="1" source="W1IO-5uDkaTUR0JaA-n2-69" target="W1IO-5uDkaTUR0JaA-n2-130" edge="1">
          <mxGeometry relative="1" as="geometry" />
        </mxCell>
        <mxCell id="W1IO-5uDkaTUR0JaA-n2-71" style="edgeStyle=orthogonalEdgeStyle;rounded=0;orthogonalLoop=1;jettySize=auto;html=1;entryX=0.847;entryY=-0.04;entryDx=0;entryDy=0;entryPerimeter=0;endArrow=none;startFill=0;" parent="1" source="W1IO-5uDkaTUR0JaA-n2-66" target="W1IO-5uDkaTUR0JaA-n2-65" edge="1">
          <mxGeometry relative="1" as="geometry" />
        </mxCell>
        <mxCell id="W1IO-5uDkaTUR0JaA-n2-72" value="has" style="rhombus;whiteSpace=wrap;html=1;" parent="1" vertex="1">
          <mxGeometry x="-14040" y="-91" width="80" height="80" as="geometry" />
        </mxCell>
        <mxCell id="W1IO-5uDkaTUR0JaA-n2-76" value="C_name" style="ellipse;whiteSpace=wrap;html=1;" parent="1" vertex="1">
          <mxGeometry x="-12485" y="550" width="90" height="60" as="geometry" />
        </mxCell>
        <mxCell id="W1IO-5uDkaTUR0JaA-n2-77" value="&lt;span style=&quot;color: rgba(0, 0, 0, 0); font-family: monospace; font-size: 0px; text-align: start;&quot;&gt;M3CmxGraphModel%3E%3Croot%3E%3CmxCell%20id%3D%220%22%2F%3E%3CmxCell%20id%3D%221%22%20parent%3D%220%22%2F%3E%3CmxCell%20id%3D%222%22%20value%3D%22C_name%22%20style%3D%22ellipse%3BwhiteSpace%3Dwrap%3Bhtml%3D1%3B%22%20vertex%3D%221%22%20parent%3D%221%22%3E%3CmxGeometry%20x%3D%22-12760%22%20y%3D%22-30%22%20width%3D%2290%22%20height%3D%2260%22%20as%3D%22geometry%22%2F%3E%3C%2FmxCell%3E%3C%2Froot%3E%3C%2FmxGraphModel%3EM&lt;/span&gt;" style="text;html=1;align=center;verticalAlign=middle;resizable=0;points=[];autosize=1;strokeColor=none;fillColor=none;" parent="1" vertex="1">
          <mxGeometry x="-12670" y="458" width="20" height="30" as="geometry" />
        </mxCell>
        <mxCell id="W1IO-5uDkaTUR0JaA-n2-78" value="S_time" style="ellipse;whiteSpace=wrap;html=1;" parent="1" vertex="1">
          <mxGeometry x="-13740" y="200" width="100" height="40" as="geometry" />
        </mxCell>
        <mxCell id="W1IO-5uDkaTUR0JaA-n2-79" value="teach" style="rhombus;whiteSpace=wrap;html=1;" parent="1" vertex="1">
          <mxGeometry x="-12610" y="295" width="80" height="90" as="geometry" />
        </mxCell>
        <mxCell id="W1IO-5uDkaTUR0JaA-n2-80" value="" style="shape=link;html=1;rounded=0;exitX=0.5;exitY=1;exitDx=0;exitDy=0;entryX=0.413;entryY=0.002;entryDx=0;entryDy=0;entryPerimeter=0;" parent="1" source="W1IO-5uDkaTUR0JaA-n2-72" target="W1IO-5uDkaTUR0JaA-n2-2" edge="1">
          <mxGeometry relative="1" as="geometry">
            <mxPoint x="-13950" y="99" as="sourcePoint" />
            <mxPoint x="-13960" y="255" as="targetPoint" />
          </mxGeometry>
        </mxCell>
        <mxCell id="W1IO-5uDkaTUR0JaA-n2-81" value="N" style="resizable=0;html=1;whiteSpace=wrap;align=right;verticalAlign=bottom;" parent="W1IO-5uDkaTUR0JaA-n2-80" connectable="0" vertex="1">
          <mxGeometry x="1" relative="1" as="geometry">
            <mxPoint x="-6" y="-4" as="offset" />
          </mxGeometry>
        </mxCell>
        <mxCell id="W1IO-5uDkaTUR0JaA-n2-82" value="" style="shape=link;html=1;rounded=0;exitX=0.5;exitY=1;exitDx=0;exitDy=0;entryX=0.5;entryY=0;entryDx=0;entryDy=0;" parent="1" source="W1IO-5uDkaTUR0JaA-n2-65" target="W1IO-5uDkaTUR0JaA-n2-72" edge="1">
          <mxGeometry relative="1" as="geometry">
            <mxPoint x="-13620" y="-822.5" as="sourcePoint" />
            <mxPoint x="-13620" y="-556.5" as="targetPoint" />
          </mxGeometry>
        </mxCell>
        <mxCell id="W1IO-5uDkaTUR0JaA-n2-85" value="M" style="text;strokeColor=none;fillColor=none;spacingLeft=4;spacingRight=4;overflow=hidden;rotatable=0;points=[[0,0.5],[1,0.5]];portConstraint=eastwest;fontSize=12;whiteSpace=wrap;html=1;" parent="1" vertex="1">
          <mxGeometry x="-13950" y="-852.5" width="40" height="30" as="geometry" />
        </mxCell>
        <mxCell id="W1IO-5uDkaTUR0JaA-n2-86" value="M" style="text;html=1;align=center;verticalAlign=middle;resizable=0;points=[];autosize=1;strokeColor=none;fillColor=none;" parent="1" vertex="1">
          <mxGeometry x="-12840" y="92" width="30" height="30" as="geometry" />
        </mxCell>
        <mxCell id="W1IO-5uDkaTUR0JaA-n2-87" style="edgeStyle=orthogonalEdgeStyle;rounded=0;orthogonalLoop=1;jettySize=auto;html=1;endArrow=none;startFill=0;entryX=0.057;entryY=0.063;entryDx=0;entryDy=0;entryPerimeter=0;" parent="1" source="W1IO-5uDkaTUR0JaA-n2-89" target="W1IO-5uDkaTUR0JaA-n2-109" edge="1">
          <mxGeometry relative="1" as="geometry">
            <mxPoint x="-11544.14" y="107.50000000000023" as="targetPoint" />
            <Array as="points">
              <mxPoint x="-11544" y="92" />
              <mxPoint x="-11542" y="92" />
            </Array>
          </mxGeometry>
        </mxCell>
        <mxCell id="W1IO-5uDkaTUR0JaA-n2-88" style="edgeStyle=orthogonalEdgeStyle;rounded=0;orthogonalLoop=1;jettySize=auto;html=1;exitX=1;exitY=0.5;exitDx=0;exitDy=0;entryX=0.25;entryY=1;entryDx=0;entryDy=0;endArrow=none;startFill=0;" parent="1" source="W1IO-5uDkaTUR0JaA-n2-89" target="W1IO-5uDkaTUR0JaA-n2-50" edge="1">
          <mxGeometry relative="1" as="geometry">
            <Array as="points">
              <mxPoint x="-11069.14" y="357.5" />
              <mxPoint x="-11069.14" y="271.5" />
            </Array>
          </mxGeometry>
        </mxCell>
        <mxCell id="W1IO-5uDkaTUR0JaA-n2-89" value="has" style="rhombus;whiteSpace=wrap;html=1;" parent="1" vertex="1">
          <mxGeometry x="-11584.14" y="317.5" width="80" height="80" as="geometry" />
        </mxCell>
        <mxCell id="W1IO-5uDkaTUR0JaA-n2-90" style="edgeStyle=orthogonalEdgeStyle;rounded=0;orthogonalLoop=1;jettySize=auto;html=1;exitX=1;exitY=0.5;exitDx=0;exitDy=0;entryX=0;entryY=0.5;entryDx=0;entryDy=0;endArrow=none;startFill=0;" parent="1" source="W1IO-5uDkaTUR0JaA-n2-91" target="W1IO-5uDkaTUR0JaA-n2-53" edge="1">
          <mxGeometry relative="1" as="geometry" />
        </mxCell>
        <mxCell id="W1IO-5uDkaTUR0JaA-n2-91" value="has" style="rhombus;whiteSpace=wrap;html=1;" parent="1" vertex="1">
          <mxGeometry x="-11839.14" y="60" width="80" height="80" as="geometry" />
        </mxCell>
        <mxCell id="W1IO-5uDkaTUR0JaA-n2-92" style="edgeStyle=orthogonalEdgeStyle;rounded=0;orthogonalLoop=1;jettySize=auto;html=1;exitX=1;exitY=0.75;exitDx=0;exitDy=0;entryX=0.07;entryY=0.268;entryDx=0;entryDy=0;entryPerimeter=0;endArrow=none;startFill=0;" parent="1" source="W1IO-5uDkaTUR0JaA-n2-50" target="W1IO-5uDkaTUR0JaA-n2-51" edge="1">
          <mxGeometry relative="1" as="geometry" />
        </mxCell>
        <mxCell id="W1IO-5uDkaTUR0JaA-n2-93" value="teach" style="rhombus;whiteSpace=wrap;html=1;" parent="1" vertex="1">
          <mxGeometry x="-11859.14" y="345.5" width="130" height="80" as="geometry" />
        </mxCell>
        <mxCell id="W1IO-5uDkaTUR0JaA-n2-94" style="edgeStyle=orthogonalEdgeStyle;rounded=0;orthogonalLoop=1;jettySize=auto;html=1;exitX=1;exitY=0;exitDx=0;exitDy=0;entryX=0.226;entryY=0.911;entryDx=0;entryDy=0;entryPerimeter=0;endArrow=none;startFill=0;" parent="1" source="W1IO-5uDkaTUR0JaA-n2-5" target="W1IO-5uDkaTUR0JaA-n2-8" edge="1">
          <mxGeometry relative="1" as="geometry" />
        </mxCell>
        <mxCell id="W1IO-5uDkaTUR0JaA-n2-95" value="M" style="text;html=1;align=center;verticalAlign=middle;resizable=0;points=[];autosize=1;strokeColor=none;fillColor=none;" parent="1" vertex="1">
          <mxGeometry x="-12570" y="450" width="30" height="30" as="geometry" />
        </mxCell>
        <mxCell id="W1IO-5uDkaTUR0JaA-n2-96" value="M" style="text;html=1;align=center;verticalAlign=middle;resizable=0;points=[];autosize=1;strokeColor=none;fillColor=none;" parent="1" vertex="1">
          <mxGeometry x="-12435" y="112" width="30" height="30" as="geometry" />
        </mxCell>
        <mxCell id="W1IO-5uDkaTUR0JaA-n2-97" value="M" style="text;html=1;align=center;verticalAlign=middle;resizable=0;points=[];autosize=1;strokeColor=none;fillColor=none;" parent="1" vertex="1">
          <mxGeometry x="-12500" y="110" width="30" height="30" as="geometry" />
        </mxCell>
        <mxCell id="W1IO-5uDkaTUR0JaA-n2-98" value="M" style="text;html=1;align=center;verticalAlign=middle;resizable=0;points=[];autosize=1;strokeColor=none;fillColor=none;" parent="1" vertex="1">
          <mxGeometry x="-12840" y="150" width="30" height="30" as="geometry" />
        </mxCell>
        <mxCell id="W1IO-5uDkaTUR0JaA-n2-99" value="1" style="text;html=1;align=center;verticalAlign=middle;resizable=0;points=[];autosize=1;strokeColor=none;fillColor=none;" parent="1" vertex="1">
          <mxGeometry x="-14225" y="568" width="30" height="30" as="geometry" />
        </mxCell>
        <mxCell id="W1IO-5uDkaTUR0JaA-n2-100" value="M" style="text;html=1;align=center;verticalAlign=middle;resizable=0;points=[];autosize=1;strokeColor=none;fillColor=none;" parent="1" vertex="1">
          <mxGeometry x="-14435" y="378" width="30" height="30" as="geometry" />
        </mxCell>
        <mxCell id="W1IO-5uDkaTUR0JaA-n2-101" style="edgeStyle=orthogonalEdgeStyle;rounded=0;orthogonalLoop=1;jettySize=auto;html=1;entryX=1;entryY=0.5;entryDx=0;entryDy=0;endArrow=none;startFill=0;" parent="1" source="W1IO-5uDkaTUR0JaA-n2-103" target="W1IO-5uDkaTUR0JaA-n2-65" edge="1">
          <mxGeometry relative="1" as="geometry" />
        </mxCell>
        <mxCell id="W1IO-5uDkaTUR0JaA-n2-102" style="edgeStyle=orthogonalEdgeStyle;rounded=0;orthogonalLoop=1;jettySize=auto;html=1;exitX=1;exitY=0.5;exitDx=0;exitDy=0;entryX=0.75;entryY=0;entryDx=0;entryDy=0;endArrow=none;startFill=0;" parent="1" source="W1IO-5uDkaTUR0JaA-n2-103" target="W1IO-5uDkaTUR0JaA-n2-39" edge="1">
          <mxGeometry relative="1" as="geometry" />
        </mxCell>
        <mxCell id="W1IO-5uDkaTUR0JaA-n2-103" value="has" style="rhombus;whiteSpace=wrap;html=1;" parent="1" vertex="1">
          <mxGeometry x="-13200" y="-720" width="80" height="80" as="geometry" />
        </mxCell>
        <mxCell id="W1IO-5uDkaTUR0JaA-n2-104" value="M" style="text;html=1;align=center;verticalAlign=middle;resizable=0;points=[];autosize=1;strokeColor=none;fillColor=none;" parent="1" vertex="1">
          <mxGeometry x="-12435" y="8" width="30" height="30" as="geometry" />
        </mxCell>
        <mxCell id="W1IO-5uDkaTUR0JaA-n2-105" value="M" style="text;html=1;align=center;verticalAlign=middle;resizable=0;points=[];autosize=1;strokeColor=none;fillColor=none;" parent="1" vertex="1">
          <mxGeometry x="-11604.14" y="625.5" width="30" height="30" as="geometry" />
        </mxCell>
        <mxCell id="W1IO-5uDkaTUR0JaA-n2-106" value="M" style="text;html=1;align=center;verticalAlign=middle;resizable=0;points=[];autosize=1;strokeColor=none;fillColor=none;" parent="1" vertex="1">
          <mxGeometry x="-12700" y="140" width="30" height="30" as="geometry" />
        </mxCell>
        <mxCell id="W1IO-5uDkaTUR0JaA-n2-107" value="M" style="text;html=1;align=center;verticalAlign=middle;resizable=0;points=[];autosize=1;strokeColor=none;fillColor=none;" parent="1" vertex="1">
          <mxGeometry x="-12390" y="65" width="30" height="30" as="geometry" />
        </mxCell>
        <mxCell id="W1IO-5uDkaTUR0JaA-n2-108" value="1" style="text;html=1;align=center;verticalAlign=middle;resizable=0;points=[];autosize=1;strokeColor=none;fillColor=none;" parent="1" vertex="1">
          <mxGeometry x="-11634.14" y="58" width="30" height="30" as="geometry" />
        </mxCell>
        <mxCell id="W1IO-5uDkaTUR0JaA-n2-109" value="1" style="text;html=1;align=center;verticalAlign=middle;resizable=0;points=[];autosize=1;strokeColor=none;fillColor=none;" parent="1" vertex="1">
          <mxGeometry x="-11544.14" y="88" width="30" height="30" as="geometry" />
        </mxCell>
        <mxCell id="W1IO-5uDkaTUR0JaA-n2-110" value="1" style="text;html=1;align=center;verticalAlign=middle;resizable=0;points=[];autosize=1;strokeColor=none;fillColor=none;" parent="1" vertex="1">
          <mxGeometry x="-11589.14" y="90" width="30" height="30" as="geometry" />
        </mxCell>
        <mxCell id="W1IO-5uDkaTUR0JaA-n2-111" value="M" style="text;html=1;align=center;verticalAlign=middle;resizable=0;points=[];autosize=1;strokeColor=none;fillColor=none;" parent="1" vertex="1">
          <mxGeometry x="-11574.14" y="625.5" width="30" height="30" as="geometry" />
        </mxCell>
        <mxCell id="W1IO-5uDkaTUR0JaA-n2-112" value="M" style="text;html=1;align=center;verticalAlign=middle;resizable=0;points=[];autosize=1;strokeColor=none;fillColor=none;" parent="1" vertex="1">
          <mxGeometry x="-11534.14" y="625.5" width="30" height="30" as="geometry" />
        </mxCell>
        <mxCell id="W1IO-5uDkaTUR0JaA-n2-113" value="M" style="text;html=1;align=center;verticalAlign=middle;resizable=0;points=[];autosize=1;strokeColor=none;fillColor=none;" parent="1" vertex="1">
          <mxGeometry x="-11064.14" y="275.5" width="30" height="30" as="geometry" />
        </mxCell>
        <mxCell id="W1IO-5uDkaTUR0JaA-n2-114" value="1" style="text;html=1;align=center;verticalAlign=middle;resizable=0;points=[];autosize=1;strokeColor=none;fillColor=none;" parent="1" vertex="1">
          <mxGeometry x="-11094.14" y="275.5" width="30" height="30" as="geometry" />
        </mxCell>
        <mxCell id="W1IO-5uDkaTUR0JaA-n2-117" value="" style="shape=link;html=1;rounded=0;exitX=0.5;exitY=1;exitDx=0;exitDy=0;" parent="1" source="W1IO-5uDkaTUR0JaA-n2-79" edge="1">
          <mxGeometry relative="1" as="geometry">
            <mxPoint x="-12585" y="340" as="sourcePoint" />
            <mxPoint x="-12570" y="479" as="targetPoint" />
          </mxGeometry>
        </mxCell>
        <mxCell id="W1IO-5uDkaTUR0JaA-n2-118" value="N" style="resizable=0;html=1;whiteSpace=wrap;align=right;verticalAlign=bottom;" parent="W1IO-5uDkaTUR0JaA-n2-117" connectable="0" vertex="1">
          <mxGeometry x="1" relative="1" as="geometry">
            <mxPoint x="-5" y="1" as="offset" />
          </mxGeometry>
        </mxCell>
        <mxCell id="W1IO-5uDkaTUR0JaA-n2-119" value="1" style="text;html=1;align=center;verticalAlign=middle;resizable=0;points=[];autosize=1;strokeColor=none;fillColor=none;" parent="1" vertex="1">
          <mxGeometry x="-13845" y="298" width="30" height="30" as="geometry" />
        </mxCell>
        <mxCell id="W1IO-5uDkaTUR0JaA-n2-120" value="" style="shape=link;html=1;rounded=0;entryX=0;entryY=0.5;entryDx=0;entryDy=0;" parent="1" target="W1IO-5uDkaTUR0JaA-n2-91" edge="1">
          <mxGeometry relative="1" as="geometry">
            <mxPoint x="-12380" y="90" as="sourcePoint" />
            <mxPoint x="-12230" y="180" as="targetPoint" />
          </mxGeometry>
        </mxCell>
        <mxCell id="W1IO-5uDkaTUR0JaA-n2-121" value="" style="shape=link;html=1;rounded=0;entryX=0;entryY=0.5;entryDx=0;entryDy=0;exitX=1;exitY=0.5;exitDx=0;exitDy=0;" parent="1" source="W1IO-5uDkaTUR0JaA-n2-37" target="W1IO-5uDkaTUR0JaA-n2-93" edge="1">
          <mxGeometry relative="1" as="geometry">
            <mxPoint x="-12690" y="98" as="sourcePoint" />
            <mxPoint x="-12190" y="421" as="targetPoint" />
            <Array as="points">
              <mxPoint x="-12370" y="140" />
              <mxPoint x="-12370" y="386" />
            </Array>
          </mxGeometry>
        </mxCell>
        <mxCell id="W1IO-5uDkaTUR0JaA-n2-122" value="N" style="resizable=0;html=1;whiteSpace=wrap;align=right;verticalAlign=bottom;" parent="W1IO-5uDkaTUR0JaA-n2-121" connectable="0" vertex="1">
          <mxGeometry x="1" relative="1" as="geometry">
            <mxPoint as="offset" />
          </mxGeometry>
        </mxCell>
        <mxCell id="W1IO-5uDkaTUR0JaA-n2-123" value="" style="shape=link;html=1;rounded=0;entryX=1;entryY=0.5;entryDx=0;entryDy=0;" parent="1" source="W1IO-5uDkaTUR0JaA-n2-39" target="W1IO-5uDkaTUR0JaA-n2-79" edge="1">
          <mxGeometry relative="1" as="geometry">
            <mxPoint x="-12460" y="110" as="sourcePoint" />
            <mxPoint x="-12390" y="160" as="targetPoint" />
            <Array as="points">
              <mxPoint x="-12440" y="340" />
            </Array>
          </mxGeometry>
        </mxCell>
        <mxCell id="W1IO-5uDkaTUR0JaA-n2-124" value="" style="shape=link;html=1;rounded=0;entryX=0.034;entryY=-0.004;entryDx=0;entryDy=0;entryPerimeter=0;" parent="1" target="W1IO-5uDkaTUR0JaA-n2-58" edge="1">
          <mxGeometry relative="1" as="geometry">
            <mxPoint x="-11729.14" y="387.5" as="sourcePoint" />
            <mxPoint x="-11569.14" y="387.5" as="targetPoint" />
            <Array as="points">
              <mxPoint x="-11604.14" y="387.5" />
              <mxPoint x="-11600" y="480" />
            </Array>
          </mxGeometry>
        </mxCell>
        <mxCell id="W1IO-5uDkaTUR0JaA-n2-125" value="" style="shape=link;html=1;rounded=0;exitX=0.5;exitY=1;exitDx=0;exitDy=0;entryX=0.5;entryY=0;entryDx=0;entryDy=0;" parent="1" target="W1IO-5uDkaTUR0JaA-n2-58" edge="1">
          <mxGeometry relative="1" as="geometry">
            <mxPoint x="-11544.14" y="398.33" as="sourcePoint" />
            <mxPoint x="-11414.14" y="577.5" as="targetPoint" />
          </mxGeometry>
        </mxCell>
        <mxCell id="W1IO-5uDkaTUR0JaA-n2-126" value="" style="shape=link;html=1;rounded=0;entryX=0.457;entryY=1;entryDx=0;entryDy=0;exitX=0.5;exitY=0;exitDx=0;exitDy=0;entryPerimeter=0;width=5.294117647058824;" parent="1" source="W1IO-5uDkaTUR0JaA-n2-13" target="W1IO-5uDkaTUR0JaA-n2-2" edge="1">
          <mxGeometry relative="1" as="geometry">
            <mxPoint x="-13860" y="490" as="sourcePoint" />
            <mxPoint x="-13700" y="490" as="targetPoint" />
            <Array as="points">
              <mxPoint x="-13982" y="390" />
            </Array>
          </mxGeometry>
        </mxCell>
        <mxCell id="W1IO-5uDkaTUR0JaA-n2-127" value="" style="endArrow=none;html=1;rounded=0;" parent="1" edge="1">
          <mxGeometry relative="1" as="geometry">
            <mxPoint x="-13900" y="520" as="sourcePoint" />
            <mxPoint x="-13960" y="560" as="targetPoint" />
            <Array as="points">
              <mxPoint x="-13910" y="560" />
            </Array>
          </mxGeometry>
        </mxCell>
        <mxCell id="W1IO-5uDkaTUR0JaA-n2-128" value="" style="endArrow=none;html=1;rounded=0;" parent="1" edge="1">
          <mxGeometry relative="1" as="geometry">
            <mxPoint x="-14100" y="550" as="sourcePoint" />
            <mxPoint x="-14040" y="570" as="targetPoint" />
            <Array as="points">
              <mxPoint x="-14090" y="590" />
            </Array>
          </mxGeometry>
        </mxCell>
        <mxCell id="W1IO-5uDkaTUR0JaA-n2-129" value="" style="endArrow=none;html=1;rounded=0;" parent="1" edge="1">
          <mxGeometry relative="1" as="geometry">
            <mxPoint x="-14020" y="560" as="sourcePoint" />
            <mxPoint x="-13970" y="560" as="targetPoint" />
            <Array as="points">
              <mxPoint x="-13990" y="590" />
            </Array>
          </mxGeometry>
        </mxCell>
        <mxCell id="W1IO-5uDkaTUR0JaA-n2-130" value="make" style="shape=rhombus;perimeter=rhombusPerimeter;whiteSpace=wrap;html=1;align=center;" parent="1" vertex="1">
          <mxGeometry x="-13740" y="82" width="120" height="60" as="geometry" />
        </mxCell>
        <mxCell id="W1IO-5uDkaTUR0JaA-n2-131" value="" style="shape=link;html=1;rounded=0;entryX=0.75;entryY=1;entryDx=0;entryDy=0;exitX=0;exitY=0;exitDx=0;exitDy=0;" parent="1" source="W1IO-5uDkaTUR0JaA-n2-130" target="W1IO-5uDkaTUR0JaA-n2-65" edge="1">
          <mxGeometry relative="1" as="geometry">
            <mxPoint x="-13520" y="-570" as="sourcePoint" />
            <mxPoint x="-13360" y="-570" as="targetPoint" />
          </mxGeometry>
        </mxCell>
        <mxCell id="W1IO-5uDkaTUR0JaA-n2-132" value="N" style="resizable=0;html=1;whiteSpace=wrap;align=right;verticalAlign=bottom;" parent="W1IO-5uDkaTUR0JaA-n2-131" connectable="0" vertex="1">
          <mxGeometry x="1" relative="1" as="geometry">
            <mxPoint y="20" as="offset" />
          </mxGeometry>
        </mxCell>
        <mxCell id="W1IO-5uDkaTUR0JaA-n2-133" value="" style="endArrow=none;html=1;rounded=0;exitX=1;exitY=1;exitDx=0;exitDy=0;entryX=-0.011;entryY=0.383;entryDx=0;entryDy=0;entryPerimeter=0;" parent="1" source="W1IO-5uDkaTUR0JaA-n2-130" target="W1IO-5uDkaTUR0JaA-n2-37" edge="1">
          <mxGeometry relative="1" as="geometry">
            <mxPoint x="-13090" y="40" as="sourcePoint" />
            <mxPoint x="-12930" y="40" as="targetPoint" />
          </mxGeometry>
        </mxCell>
        <mxCell id="W1IO-5uDkaTUR0JaA-n2-134" value="1" style="resizable=0;html=1;whiteSpace=wrap;align=right;verticalAlign=bottom;" parent="W1IO-5uDkaTUR0JaA-n2-133" connectable="0" vertex="1">
          <mxGeometry x="1" relative="1" as="geometry" />
        </mxCell>
        <mxCell id="W1IO-5uDkaTUR0JaA-n2-135" value="" style="endArrow=none;html=1;rounded=0;entryX=0.367;entryY=0.899;entryDx=0;entryDy=0;entryPerimeter=0;" parent="1" source="W1IO-5uDkaTUR0JaA-n2-78" target="W1IO-5uDkaTUR0JaA-n2-130" edge="1">
          <mxGeometry relative="1" as="geometry">
            <mxPoint x="-13920" y="220" as="sourcePoint" />
            <mxPoint x="-13760" y="220" as="targetPoint" />
          </mxGeometry>
        </mxCell>
        <mxCell id="W1IO-5uDkaTUR0JaA-n2-136" value="total time" style="ellipse;whiteSpace=wrap;html=1;align=center;dashed=1;" parent="1" vertex="1">
          <mxGeometry x="-13620" y="10" width="100" height="40" as="geometry" />
        </mxCell>
        <mxCell id="W1IO-5uDkaTUR0JaA-n2-137" value="" style="endArrow=none;html=1;rounded=0;exitX=1;exitY=0;exitDx=0;exitDy=0;entryX=0;entryY=1;entryDx=0;entryDy=0;" parent="1" source="W1IO-5uDkaTUR0JaA-n2-130" target="W1IO-5uDkaTUR0JaA-n2-136" edge="1">
          <mxGeometry relative="1" as="geometry">
            <mxPoint x="-13530" y="90" as="sourcePoint" />
            <mxPoint x="-13370" y="90" as="targetPoint" />
          </mxGeometry>
        </mxCell>
        <mxCell id="W1IO-5uDkaTUR0JaA-n2-138" value="" style="shape=link;html=1;rounded=0;entryX=0.5;entryY=1;entryDx=0;entryDy=0;exitX=0.5;exitY=0;exitDx=0;exitDy=0;" parent="1" source="W1IO-5uDkaTUR0JaA-n2-34" target="W1IO-5uDkaTUR0JaA-n2-33" edge="1">
          <mxGeometry relative="1" as="geometry">
            <mxPoint x="-12370" y="-660" as="sourcePoint" />
            <mxPoint x="-12210" y="-660" as="targetPoint" />
          </mxGeometry>
        </mxCell>
        <mxCell id="W1IO-5uDkaTUR0JaA-n2-139" value="manage" style="shape=rhombus;perimeter=rhombusPerimeter;whiteSpace=wrap;html=1;align=center;" parent="1" vertex="1">
          <mxGeometry x="-12970" y="10" width="120" height="60" as="geometry" />
        </mxCell>
        <mxCell id="W1IO-5uDkaTUR0JaA-n2-140" value="" style="shape=link;html=1;rounded=0;exitX=0.5;exitY=1;exitDx=0;exitDy=0;" parent="1" source="W1IO-5uDkaTUR0JaA-n2-139" edge="1">
          <mxGeometry relative="1" as="geometry">
            <mxPoint x="-12920" y="120" as="sourcePoint" />
            <mxPoint x="-12815.004626129827" y="118.49000000000001" as="targetPoint" />
            <Array as="points">
              <mxPoint x="-12910" y="120" />
            </Array>
          </mxGeometry>
        </mxCell>
        <mxCell id="W1IO-5uDkaTUR0JaA-n2-141" value="N" style="resizable=0;html=1;whiteSpace=wrap;align=right;verticalAlign=bottom;" parent="W1IO-5uDkaTUR0JaA-n2-140" connectable="0" vertex="1">
          <mxGeometry x="1" relative="1" as="geometry">
            <mxPoint x="-4" y="39" as="offset" />
          </mxGeometry>
        </mxCell>
        <mxCell id="W1IO-5uDkaTUR0JaA-n2-142" value="" style="endArrow=none;html=1;rounded=0;entryX=0.32;entryY=-0.033;entryDx=0;entryDy=0;exitX=1;exitY=0.5;exitDx=0;exitDy=0;entryPerimeter=0;" parent="1" source="W1IO-5uDkaTUR0JaA-n2-139" target="W1IO-5uDkaTUR0JaA-n2-37" edge="1">
          <mxGeometry relative="1" as="geometry">
            <mxPoint x="-12924.48" y="198.86000000000013" as="sourcePoint" />
            <mxPoint x="-13135" y="350" as="targetPoint" />
            <Array as="points">
              <mxPoint x="-12777" y="40" />
            </Array>
          </mxGeometry>
        </mxCell>
        <mxCell id="W1IO-5uDkaTUR0JaA-n2-143" value="1" style="resizable=0;html=1;whiteSpace=wrap;align=right;verticalAlign=bottom;" parent="W1IO-5uDkaTUR0JaA-n2-142" connectable="0" vertex="1">
          <mxGeometry x="1" relative="1" as="geometry" />
        </mxCell>
        <mxCell id="W1IO-5uDkaTUR0JaA-n2-144" value="result" style="ellipse;whiteSpace=wrap;html=1;align=center;" parent="1" vertex="1">
          <mxGeometry x="-12820" y="320" width="100" height="40" as="geometry" />
        </mxCell>
        <mxCell id="W1IO-5uDkaTUR0JaA-n2-145" value="" style="endArrow=none;html=1;rounded=0;exitX=1;exitY=0.5;exitDx=0;exitDy=0;entryX=0;entryY=0.5;entryDx=0;entryDy=0;" parent="1" source="W1IO-5uDkaTUR0JaA-n2-144" target="W1IO-5uDkaTUR0JaA-n2-79" edge="1">
          <mxGeometry relative="1" as="geometry">
            <mxPoint x="-12855" y="310" as="sourcePoint" />
            <mxPoint x="-12695" y="310" as="targetPoint" />
          </mxGeometry>
        </mxCell>
        <mxCell id="W1IO-5uDkaTUR0JaA-n2-146" value="correct answer" style="ellipse;whiteSpace=wrap;html=1;align=center;" parent="1" vertex="1">
          <mxGeometry x="-14250" y="760" width="120" height="50" as="geometry" />
        </mxCell>
        <mxCell id="W1IO-5uDkaTUR0JaA-n2-147" value="" style="endArrow=none;html=1;rounded=0;entryX=0.25;entryY=1;entryDx=0;entryDy=0;exitX=0.587;exitY=0.025;exitDx=0;exitDy=0;exitPerimeter=0;" parent="1" source="W1IO-5uDkaTUR0JaA-n2-146" target="W1IO-5uDkaTUR0JaA-n2-15" edge="1">
          <mxGeometry relative="1" as="geometry">
            <mxPoint x="-14360" y="770" as="sourcePoint" />
            <mxPoint x="-14200" y="770" as="targetPoint" />
          </mxGeometry>
        </mxCell>
        <mxCell id="W1IO-5uDkaTUR0JaA-n2-148" value="Mark" style="ellipse;whiteSpace=wrap;html=1;align=center;" parent="1" vertex="1">
          <mxGeometry x="-14280" y="-71" width="100" height="40" as="geometry" />
        </mxCell>
        <mxCell id="W1IO-5uDkaTUR0JaA-n2-149" value="" style="endArrow=none;html=1;rounded=0;exitX=1;exitY=0.5;exitDx=0;exitDy=0;entryX=0;entryY=0.5;entryDx=0;entryDy=0;" parent="1" source="W1IO-5uDkaTUR0JaA-n2-148" target="W1IO-5uDkaTUR0JaA-n2-72" edge="1">
          <mxGeometry relative="1" as="geometry">
            <mxPoint x="-14150" y="-51.66999999999996" as="sourcePoint" />
            <mxPoint x="-14060" y="-52" as="targetPoint" />
          </mxGeometry>
        </mxCell>
        <mxCell id="W1IO-5uDkaTUR0JaA-n2-158" value="has" style="rhombus;whiteSpace=wrap;html=1;" parent="1" vertex="1">
          <mxGeometry x="-12840" y="880" width="80" height="80" as="geometry" />
        </mxCell>
        <mxCell id="W1IO-5uDkaTUR0JaA-n2-159" value="allowence options" style="ellipse;whiteSpace=wrap;html=1;" parent="1" vertex="1">
          <mxGeometry x="-13880" y="-957.5" width="120" height="80" as="geometry" />
        </mxCell>
        <mxCell id="W1IO-5uDkaTUR0JaA-n2-160" value="N" style="text;html=1;align=center;verticalAlign=middle;resizable=0;points=[];autosize=1;strokeColor=none;fillColor=none;" parent="1" vertex="1">
          <mxGeometry x="-14050" y="-832" width="30" height="30" as="geometry" />
        </mxCell>
        <mxCell id="JDGKS7KoKH47WsCADouD-1" value="" style="endArrow=none;html=1;rounded=0;" edge="1" parent="1">
          <mxGeometry relative="1" as="geometry">
            <mxPoint x="-12550" y="-30" as="sourcePoint" />
            <mxPoint x="-12490" y="-70" as="targetPoint" />
            <Array as="points">
              <mxPoint x="-12490" y="-30" />
            </Array>
          </mxGeometry>
        </mxCell>
        <mxCell id="JDGKS7KoKH47WsCADouD-2" value="" style="endArrow=none;html=1;rounded=0;" edge="1" parent="1">
          <mxGeometry relative="1" as="geometry">
            <mxPoint x="-12690" y="-30" as="sourcePoint" />
            <mxPoint x="-12620" y="-10" as="targetPoint" />
            <Array as="points">
              <mxPoint x="-12670" y="10" />
            </Array>
          </mxGeometry>
        </mxCell>
        <mxCell id="HS2rHytuca5w30D8WgX--1" value="" style="endArrow=none;html=1;rounded=0;entryX=0.75;entryY=1;entryDx=0;entryDy=0;exitX=1;exitY=0.5;exitDx=0;exitDy=0;" edge="1" parent="1" source="W1IO-5uDkaTUR0JaA-n2-158" target="W1IO-5uDkaTUR0JaA-n2-5">
          <mxGeometry relative="1" as="geometry">
            <mxPoint x="-12620" y="920" as="sourcePoint" />
            <mxPoint x="-12410" y="860" as="targetPoint" />
            <Array as="points">
              <mxPoint x="-12520" y="920" />
            </Array>
          </mxGeometry>
        </mxCell>
        <mxCell id="HS2rHytuca5w30D8WgX--2" value="1" style="resizable=0;html=1;whiteSpace=wrap;align=right;verticalAlign=bottom;" connectable="0" vertex="1" parent="HS2rHytuca5w30D8WgX--1">
          <mxGeometry x="1" relative="1" as="geometry" />
        </mxCell>
        <mxCell id="HS2rHytuca5w30D8WgX--5" value="" style="endArrow=none;html=1;rounded=0;exitX=0;exitY=0.5;exitDx=0;exitDy=0;entryX=0;entryY=0.5;entryDx=0;entryDy=0;" edge="1" parent="1" source="W1IO-5uDkaTUR0JaA-n2-158" target="W1IO-5uDkaTUR0JaA-n2-65">
          <mxGeometry relative="1" as="geometry">
            <mxPoint x="-12620" y="1069.5" as="sourcePoint" />
            <mxPoint x="-14100" y="-859.5" as="targetPoint" />
            <Array as="points">
              <mxPoint x="-13280" y="920" />
              <mxPoint x="-13740" y="920" />
              <mxPoint x="-14220" y="920" />
              <mxPoint x="-14650" y="920" />
              <mxPoint x="-14860" y="920" />
              <mxPoint x="-14860" y="610" />
              <mxPoint x="-14860" y="110" />
              <mxPoint x="-14860" y="-859.5" />
            </Array>
          </mxGeometry>
        </mxCell>
        <mxCell id="HS2rHytuca5w30D8WgX--6" value="N" style="resizable=0;html=1;whiteSpace=wrap;align=right;verticalAlign=bottom;" connectable="0" vertex="1" parent="HS2rHytuca5w30D8WgX--5">
          <mxGeometry x="1" relative="1" as="geometry" />
        </mxCell>
        <mxCell id="Wgy-7xFfbgxawYrBSOvR-3" value="" style="endArrow=none;html=1;rounded=0;" edge="1" parent="1">
          <mxGeometry relative="1" as="geometry">
            <mxPoint x="-13920" y="-90" as="sourcePoint" />
            <mxPoint x="-13910" y="-90" as="targetPoint" />
            <Array as="points">
              <mxPoint x="-14060" y="-90" />
              <mxPoint x="-14060" />
              <mxPoint x="-13910" />
            </Array>
          </mxGeometry>
        </mxCell>
        <mxCell id="Wgy-7xFfbgxawYrBSOvR-4" value="solve" style="shape=rhombus;perimeter=rhombusPerimeter;whiteSpace=wrap;html=1;align=center;" vertex="1" parent="1">
          <mxGeometry x="-13440" y="-350" width="120" height="60" as="geometry" />
        </mxCell>
        <mxCell id="Wgy-7xFfbgxawYrBSOvR-6" value="" style="endArrow=none;html=1;rounded=0;entryX=0.137;entryY=-0.052;entryDx=0;entryDy=0;entryPerimeter=0;exitX=1;exitY=1;exitDx=0;exitDy=0;" edge="1" parent="1" source="Wgy-7xFfbgxawYrBSOvR-4" target="W1IO-5uDkaTUR0JaA-n2-37">
          <mxGeometry relative="1" as="geometry">
            <mxPoint x="-13310" y="-400" as="sourcePoint" />
            <mxPoint x="-12800" y="100" as="targetPoint" />
            <Array as="points">
              <mxPoint x="-12910" y="-130" />
            </Array>
          </mxGeometry>
        </mxCell>
        <mxCell id="Wgy-7xFfbgxawYrBSOvR-7" value="N" style="resizable=0;html=1;whiteSpace=wrap;align=right;verticalAlign=bottom;" connectable="0" vertex="1" parent="Wgy-7xFfbgxawYrBSOvR-6">
          <mxGeometry x="1" relative="1" as="geometry" />
        </mxCell>
        <mxCell id="Wgy-7xFfbgxawYrBSOvR-8" value="" style="shape=link;html=1;rounded=0;exitX=0.155;exitY=0.686;exitDx=0;exitDy=0;exitPerimeter=0;" edge="1" parent="1" source="Wgy-7xFfbgxawYrBSOvR-4">
          <mxGeometry relative="1" as="geometry">
            <mxPoint x="-13640" y="-190" as="sourcePoint" />
            <mxPoint x="-13910" y="-70" as="targetPoint" />
          </mxGeometry>
        </mxCell>
        <mxCell id="Wgy-7xFfbgxawYrBSOvR-9" value="N" style="resizable=0;html=1;whiteSpace=wrap;align=right;verticalAlign=bottom;" connectable="0" vertex="1" parent="Wgy-7xFfbgxawYrBSOvR-8">
          <mxGeometry x="1" relative="1" as="geometry" />
        </mxCell>
        <mxCell id="Wgy-7xFfbgxawYrBSOvR-10" value="answer" style="ellipse;whiteSpace=wrap;html=1;align=center;" vertex="1" parent="1">
          <mxGeometry x="-13540" y="-400" width="100" height="40" as="geometry" />
        </mxCell>
        <mxCell id="Wgy-7xFfbgxawYrBSOvR-11" value="" style="endArrow=none;html=1;rounded=0;exitX=0.5;exitY=1;exitDx=0;exitDy=0;entryX=0.107;entryY=0.376;entryDx=0;entryDy=0;entryPerimeter=0;" edge="1" parent="1" source="Wgy-7xFfbgxawYrBSOvR-10" target="Wgy-7xFfbgxawYrBSOvR-4">
          <mxGeometry relative="1" as="geometry">
            <mxPoint x="-13380" y="-300" as="sourcePoint" />
            <mxPoint x="-13220" y="-300" as="targetPoint" />
          </mxGeometry>
        </mxCell>
        <mxCell id="Wgy-7xFfbgxawYrBSOvR-12" value="iscorrect" style="ellipse;whiteSpace=wrap;html=1;align=center;" vertex="1" parent="1">
          <mxGeometry x="-13430" y="-410" width="100" height="40" as="geometry" />
        </mxCell>
        <mxCell id="Wgy-7xFfbgxawYrBSOvR-13" value="" style="endArrow=none;html=1;rounded=0;exitX=0.5;exitY=1;exitDx=0;exitDy=0;entryX=0.333;entryY=0.186;entryDx=0;entryDy=0;entryPerimeter=0;" edge="1" parent="1" source="Wgy-7xFfbgxawYrBSOvR-12" target="Wgy-7xFfbgxawYrBSOvR-4">
          <mxGeometry relative="1" as="geometry">
            <mxPoint x="-13420" y="-280" as="sourcePoint" />
            <mxPoint x="-13260" y="-280" as="targetPoint" />
          </mxGeometry>
        </mxCell>
        <mxCell id="QkCuaon6wQlsAE2OYq-5-1" value="address" style="ellipse;whiteSpace=wrap;html=1;align=center;" vertex="1" parent="1">
          <mxGeometry x="-11570" y="760" width="110" height="50" as="geometry" />
        </mxCell>
        <mxCell id="QkCuaon6wQlsAE2OYq-5-2" value="" style="endArrow=none;html=1;rounded=0;exitX=0.75;exitY=1;exitDx=0;exitDy=0;" edge="1" parent="1" source="W1IO-5uDkaTUR0JaA-n2-58" target="QkCuaon6wQlsAE2OYq-5-1">
          <mxGeometry relative="1" as="geometry">
            <mxPoint x="-11480" y="920" as="sourcePoint" />
            <mxPoint x="-11320" y="920" as="targetPoint" />
          </mxGeometry>
        </mxCell>
        <mxCell id="QoOyefjBMlUHWMbrnaWU-1" value="" style="endArrow=none;html=1;rounded=0;exitX=1;exitY=1;exitDx=0;exitDy=0;entryX=0.164;entryY=0.043;entryDx=0;entryDy=0;entryPerimeter=0;" edge="1" parent="1" source="W1IO-5uDkaTUR0JaA-n2-43" target="W1IO-5uDkaTUR0JaA-n2-33">
          <mxGeometry relative="1" as="geometry">
            <mxPoint x="-12820" y="-250" as="sourcePoint" />
            <mxPoint x="-12660" y="-250" as="targetPoint" />
          </mxGeometry>
        </mxCell>
        <mxCell id="QoOyefjBMlUHWMbrnaWU-2" value="" style="edgeStyle=orthogonalEdgeStyle;rounded=0;orthogonalLoop=1;jettySize=auto;html=1;endArrow=none;startFill=0;" edge="1" parent="1" target="W1IO-5uDkaTUR0JaA-n2-47">
          <mxGeometry relative="1" as="geometry">
            <Array as="points">
              <mxPoint x="-12540" y="-526" />
            </Array>
            <mxPoint x="-12550" y="-526" as="sourcePoint" />
            <mxPoint x="-12540" y="-440" as="targetPoint" />
          </mxGeometry>
        </mxCell>
        <mxCell id="W1IO-5uDkaTUR0JaA-n2-47" value="password" style="ellipse;whiteSpace=wrap;html=1;" parent="1" vertex="1">
          <mxGeometry x="-12595" y="-560" width="95" height="40" as="geometry" />
        </mxCell>
        <mxCell id="QoOyefjBMlUHWMbrnaWU-3" value="gender" style="ellipse;whiteSpace=wrap;html=1;align=center;" vertex="1" parent="1">
          <mxGeometry x="-12405" y="-490" width="110" height="50" as="geometry" />
        </mxCell>
        <mxCell id="QoOyefjBMlUHWMbrnaWU-4" value="" style="endArrow=none;html=1;rounded=0;exitX=1;exitY=0.5;exitDx=0;exitDy=0;entryX=0;entryY=1;entryDx=0;entryDy=0;" edge="1" parent="1" source="W1IO-5uDkaTUR0JaA-n2-33" target="QoOyefjBMlUHWMbrnaWU-3">
          <mxGeometry relative="1" as="geometry">
            <mxPoint x="-12310" y="-340" as="sourcePoint" />
            <mxPoint x="-12150" y="-340" as="targetPoint" />
          </mxGeometry>
        </mxCell>
        <mxCell id="QoOyefjBMlUHWMbrnaWU-5" value="title" style="ellipse;whiteSpace=wrap;html=1;align=center;" vertex="1" parent="1">
          <mxGeometry x="-12795" y="-5" width="100" height="40" as="geometry" />
        </mxCell>
        <mxCell id="QoOyefjBMlUHWMbrnaWU-6" value="" style="endArrow=none;html=1;rounded=0;exitX=0.5;exitY=1;exitDx=0;exitDy=0;entryX=0.5;entryY=0;entryDx=0;entryDy=0;" edge="1" parent="1" source="QoOyefjBMlUHWMbrnaWU-5" target="W1IO-5uDkaTUR0JaA-n2-37">
          <mxGeometry relative="1" as="geometry">
            <mxPoint x="-12640" y="100" as="sourcePoint" />
            <mxPoint x="-12480" y="100" as="targetPoint" />
          </mxGeometry>
        </mxCell>
        <mxCell id="mqVrArRdJT5RsunFIPcS-1" value="" style="endArrow=none;html=1;rounded=0;exitX=1;exitY=0.25;exitDx=0;exitDy=0;entryX=0;entryY=1;entryDx=0;entryDy=0;" edge="1" parent="1" source="W1IO-5uDkaTUR0JaA-n2-65" target="W1IO-5uDkaTUR0JaA-n2-159">
          <mxGeometry relative="1" as="geometry">
            <mxPoint x="-13880" y="-770" as="sourcePoint" />
            <mxPoint x="-13720" y="-770" as="targetPoint" />
          </mxGeometry>
        </mxCell>
        <mxCell id="mqVrArRdJT5RsunFIPcS-2" value="start_time" style="ellipse;whiteSpace=wrap;html=1;align=center;" vertex="1" parent="1">
          <mxGeometry x="-14270" y="-940" width="120" height="60" as="geometry" />
        </mxCell>
        <mxCell id="mqVrArRdJT5RsunFIPcS-3" value="" style="endArrow=none;html=1;rounded=0;exitX=0.964;exitY=0.757;exitDx=0;exitDy=0;exitPerimeter=0;entryX=0;entryY=0.25;entryDx=0;entryDy=0;" edge="1" parent="1" source="mqVrArRdJT5RsunFIPcS-2" target="W1IO-5uDkaTUR0JaA-n2-65">
          <mxGeometry relative="1" as="geometry">
            <mxPoint x="-14400" y="-670" as="sourcePoint" />
            <mxPoint x="-14240" y="-670" as="targetPoint" />
          </mxGeometry>
        </mxCell>
        <mxCell id="mqVrArRdJT5RsunFIPcS-4" value="end_time" style="ellipse;whiteSpace=wrap;html=1;align=center;" vertex="1" parent="1">
          <mxGeometry x="-14260" y="-854" width="120" height="52" as="geometry" />
        </mxCell>
        <mxCell id="mqVrArRdJT5RsunFIPcS-5" value="" style="endArrow=none;html=1;rounded=0;exitX=1;exitY=0.5;exitDx=0;exitDy=0;entryX=0;entryY=0.75;entryDx=0;entryDy=0;" edge="1" parent="1" source="mqVrArRdJT5RsunFIPcS-4" target="W1IO-5uDkaTUR0JaA-n2-65">
          <mxGeometry relative="1" as="geometry">
            <mxPoint x="-14180" y="-720" as="sourcePoint" />
            <mxPoint x="-14020" y="-720" as="targetPoint" />
          </mxGeometry>
        </mxCell>
        <mxCell id="mqVrArRdJT5RsunFIPcS-6" value="max_degree" style="ellipse;whiteSpace=wrap;html=1;align=center;" vertex="1" parent="1">
          <mxGeometry x="-14210" y="-800" width="130" height="60" as="geometry" />
        </mxCell>
        <mxCell id="mqVrArRdJT5RsunFIPcS-7" value="" style="endArrow=none;html=1;rounded=0;exitX=0.758;exitY=0.067;exitDx=0;exitDy=0;exitPerimeter=0;entryX=0;entryY=1;entryDx=0;entryDy=0;" edge="1" parent="1" source="mqVrArRdJT5RsunFIPcS-6" target="W1IO-5uDkaTUR0JaA-n2-65">
          <mxGeometry relative="1" as="geometry">
            <mxPoint x="-14260" y="-650" as="sourcePoint" />
            <mxPoint x="-14100" y="-650" as="targetPoint" />
          </mxGeometry>
        </mxCell>
        <mxCell id="mqVrArRdJT5RsunFIPcS-8" value="text" style="ellipse;whiteSpace=wrap;html=1;align=center;" vertex="1" parent="1">
          <mxGeometry x="-14240" y="198.5" width="110" height="49" as="geometry" />
        </mxCell>
        <mxCell id="mqVrArRdJT5RsunFIPcS-9" value="" style="endArrow=none;html=1;rounded=0;exitX=1;exitY=1;exitDx=0;exitDy=0;entryX=0;entryY=0.5;entryDx=0;entryDy=0;" edge="1" parent="1" source="mqVrArRdJT5RsunFIPcS-8" target="W1IO-5uDkaTUR0JaA-n2-2">
          <mxGeometry relative="1" as="geometry">
            <mxPoint x="-14240" y="410" as="sourcePoint" />
            <mxPoint x="-14080" y="410" as="targetPoint" />
          </mxGeometry>
        </mxCell>
        <mxCell id="mqVrArRdJT5RsunFIPcS-10" value="id" style="ellipse;whiteSpace=wrap;html=1;align=center;" vertex="1" parent="1">
          <mxGeometry x="-14105" y="171" width="100" height="40" as="geometry" />
        </mxCell>
        <mxCell id="mqVrArRdJT5RsunFIPcS-11" value="" style="endArrow=none;html=1;rounded=0;exitX=0.5;exitY=1;exitDx=0;exitDy=0;entryX=0.25;entryY=0;entryDx=0;entryDy=0;" edge="1" parent="1" source="mqVrArRdJT5RsunFIPcS-10" target="W1IO-5uDkaTUR0JaA-n2-2">
          <mxGeometry relative="1" as="geometry">
            <mxPoint x="-14190" y="400" as="sourcePoint" />
            <mxPoint x="-14030" y="400" as="targetPoint" />
          </mxGeometry>
        </mxCell>
        <mxCell id="mqVrArRdJT5RsunFIPcS-12" value="Exam_status" style="ellipse;whiteSpace=wrap;html=1;align=center;" vertex="1" parent="1">
          <mxGeometry x="-13340" y="-750" width="100" height="40" as="geometry" />
        </mxCell>
        <mxCell id="mqVrArRdJT5RsunFIPcS-14" value="total_marks" style="ellipse;whiteSpace=wrap;html=1;align=center;" vertex="1" parent="1">
          <mxGeometry x="-13250" y="-790" width="100" height="40" as="geometry" />
        </mxCell>
        <mxCell id="mqVrArRdJT5RsunFIPcS-15" value="obtained_marks" style="ellipse;whiteSpace=wrap;html=1;align=center;" vertex="1" parent="1">
          <mxGeometry x="-13130" y="-780" width="100" height="40" as="geometry" />
        </mxCell>
        <mxCell id="mqVrArRdJT5RsunFIPcS-16" value="result_status" style="ellipse;whiteSpace=wrap;html=1;align=center;" vertex="1" parent="1">
          <mxGeometry x="-13090" y="-730" width="100" height="40" as="geometry" />
        </mxCell>
        <mxCell id="mqVrArRdJT5RsunFIPcS-17" value="" style="endArrow=none;html=1;rounded=0;exitX=1;exitY=1;exitDx=0;exitDy=0;entryX=0.125;entryY=0.371;entryDx=0;entryDy=0;entryPerimeter=0;" edge="1" parent="1" source="mqVrArRdJT5RsunFIPcS-12" target="W1IO-5uDkaTUR0JaA-n2-103">
          <mxGeometry relative="1" as="geometry">
            <mxPoint x="-13240" y="-610" as="sourcePoint" />
            <mxPoint x="-13080" y="-610" as="targetPoint" />
          </mxGeometry>
        </mxCell>
        <mxCell id="mqVrArRdJT5RsunFIPcS-18" value="" style="endArrow=none;html=1;rounded=0;exitX=0.5;exitY=1;exitDx=0;exitDy=0;entryX=0.339;entryY=0.121;entryDx=0;entryDy=0;entryPerimeter=0;" edge="1" parent="1" source="mqVrArRdJT5RsunFIPcS-14" target="W1IO-5uDkaTUR0JaA-n2-103">
          <mxGeometry relative="1" as="geometry">
            <mxPoint x="-13290" y="-550" as="sourcePoint" />
            <mxPoint x="-13130" y="-550" as="targetPoint" />
          </mxGeometry>
        </mxCell>
        <mxCell id="mqVrArRdJT5RsunFIPcS-19" value="" style="endArrow=none;html=1;rounded=0;exitX=0.643;exitY=0.157;exitDx=0;exitDy=0;entryX=0;entryY=1;entryDx=0;entryDy=0;exitPerimeter=0;" edge="1" parent="1" source="W1IO-5uDkaTUR0JaA-n2-103" target="mqVrArRdJT5RsunFIPcS-15">
          <mxGeometry relative="1" as="geometry">
            <mxPoint x="-13200" y="-600" as="sourcePoint" />
            <mxPoint x="-13040" y="-600" as="targetPoint" />
          </mxGeometry>
        </mxCell>
        <mxCell id="mqVrArRdJT5RsunFIPcS-20" value="" style="endArrow=none;html=1;rounded=0;exitX=0.893;exitY=0.407;exitDx=0;exitDy=0;exitPerimeter=0;entryX=0;entryY=1;entryDx=0;entryDy=0;" edge="1" parent="1" source="W1IO-5uDkaTUR0JaA-n2-103" target="mqVrArRdJT5RsunFIPcS-16">
          <mxGeometry relative="1" as="geometry">
            <mxPoint x="-13120" y="-570" as="sourcePoint" />
            <mxPoint x="-12960" y="-570" as="targetPoint" />
          </mxGeometry>
        </mxCell>
      </root>
    </mxGraphModel>
  </diagram>
  <diagram name="Page-2" id="FK0L7iq3rBgtcb5cC1pm">
    <mxGraphModel dx="4674" dy="2324" grid="1" gridSize="10" guides="1" tooltips="1" connect="1" arrows="1" fold="1" page="1" pageScale="1" pageWidth="1100" pageHeight="850" math="0" shadow="0">
      <root>
        <mxCell id="0" />
        <mxCell id="1" parent="0" />
        <mxCell id="lPMgVroHek3oW04ZQoGf-1" value="choice" style="shape=table;startSize=30;container=1;collapsible=1;childLayout=tableLayout;fixedRows=1;rowLines=0;fontStyle=1;align=center;resizeLast=1;html=1;" parent="1" vertex="1">
          <mxGeometry x="-680" y="95" width="180" height="120" as="geometry" />
        </mxCell>
        <mxCell id="lPMgVroHek3oW04ZQoGf-17" value="" style="shape=tableRow;horizontal=0;startSize=0;swimlaneHead=0;swimlaneBody=0;fillColor=none;collapsible=0;dropTarget=0;points=[[0,0.5],[1,0.5]];portConstraint=eastwest;top=0;left=0;right=0;bottom=1;" parent="lPMgVroHek3oW04ZQoGf-1" vertex="1">
          <mxGeometry y="30" width="180" height="30" as="geometry" />
        </mxCell>
        <mxCell id="lPMgVroHek3oW04ZQoGf-18" value="PK" style="shape=partialRectangle;connectable=0;fillColor=none;top=0;left=0;bottom=0;right=0;fontStyle=1;overflow=hidden;whiteSpace=wrap;html=1;" parent="lPMgVroHek3oW04ZQoGf-17" vertex="1">
          <mxGeometry width="30" height="30" as="geometry">
            <mxRectangle width="30" height="30" as="alternateBounds" />
          </mxGeometry>
        </mxCell>
        <mxCell id="lPMgVroHek3oW04ZQoGf-19" value="Ch_id" style="shape=partialRectangle;connectable=0;fillColor=none;top=0;left=0;bottom=0;right=0;align=left;spacingLeft=6;fontStyle=5;overflow=hidden;whiteSpace=wrap;html=1;" parent="lPMgVroHek3oW04ZQoGf-17" vertex="1">
          <mxGeometry x="30" width="150" height="30" as="geometry">
            <mxRectangle width="150" height="30" as="alternateBounds" />
          </mxGeometry>
        </mxCell>
        <mxCell id="lPMgVroHek3oW04ZQoGf-2" value="" style="shape=tableRow;horizontal=0;startSize=0;swimlaneHead=0;swimlaneBody=0;fillColor=none;collapsible=0;dropTarget=0;points=[[0,0.5],[1,0.5]];portConstraint=eastwest;top=0;left=0;right=0;bottom=1;" parent="lPMgVroHek3oW04ZQoGf-1" vertex="1">
          <mxGeometry y="60" width="180" height="30" as="geometry" />
        </mxCell>
        <mxCell id="lPMgVroHek3oW04ZQoGf-3" value="Fk" style="shape=partialRectangle;connectable=0;fillColor=none;top=0;left=0;bottom=0;right=0;fontStyle=1;overflow=hidden;whiteSpace=wrap;html=1;" parent="lPMgVroHek3oW04ZQoGf-2" vertex="1">
          <mxGeometry width="30" height="30" as="geometry">
            <mxRectangle width="30" height="30" as="alternateBounds" />
          </mxGeometry>
        </mxCell>
        <mxCell id="lPMgVroHek3oW04ZQoGf-4" value="Q_Id" style="shape=partialRectangle;connectable=0;fillColor=none;top=0;left=0;bottom=0;right=0;align=left;spacingLeft=6;fontStyle=5;overflow=hidden;whiteSpace=wrap;html=1;" parent="lPMgVroHek3oW04ZQoGf-2" vertex="1">
          <mxGeometry x="30" width="150" height="30" as="geometry">
            <mxRectangle width="150" height="30" as="alternateBounds" />
          </mxGeometry>
        </mxCell>
        <mxCell id="lPMgVroHek3oW04ZQoGf-20" value="" style="shape=tableRow;horizontal=0;startSize=0;swimlaneHead=0;swimlaneBody=0;fillColor=none;collapsible=0;dropTarget=0;points=[[0,0.5],[1,0.5]];portConstraint=eastwest;top=0;left=0;right=0;bottom=0;" parent="lPMgVroHek3oW04ZQoGf-1" vertex="1">
          <mxGeometry y="90" width="180" height="30" as="geometry" />
        </mxCell>
        <mxCell id="lPMgVroHek3oW04ZQoGf-21" value="" style="shape=partialRectangle;connectable=0;fillColor=none;top=0;left=0;bottom=0;right=0;editable=1;overflow=hidden;whiteSpace=wrap;html=1;" parent="lPMgVroHek3oW04ZQoGf-20" vertex="1">
          <mxGeometry width="30" height="30" as="geometry">
            <mxRectangle width="30" height="30" as="alternateBounds" />
          </mxGeometry>
        </mxCell>
        <mxCell id="lPMgVroHek3oW04ZQoGf-22" value="choice" style="shape=partialRectangle;connectable=0;fillColor=none;top=0;left=0;bottom=0;right=0;align=left;spacingLeft=6;overflow=hidden;whiteSpace=wrap;html=1;" parent="lPMgVroHek3oW04ZQoGf-20" vertex="1">
          <mxGeometry x="30" width="150" height="30" as="geometry">
            <mxRectangle width="150" height="30" as="alternateBounds" />
          </mxGeometry>
        </mxCell>
        <mxCell id="lPMgVroHek3oW04ZQoGf-36" value="Intake" style="shape=table;startSize=30;container=1;collapsible=1;childLayout=tableLayout;fixedRows=1;rowLines=0;fontStyle=1;align=center;resizeLast=1;html=1;" parent="1" vertex="1">
          <mxGeometry x="250" y="28" width="180" height="90" as="geometry" />
        </mxCell>
        <mxCell id="lPMgVroHek3oW04ZQoGf-37" value="" style="shape=tableRow;horizontal=0;startSize=0;swimlaneHead=0;swimlaneBody=0;fillColor=none;collapsible=0;dropTarget=0;points=[[0,0.5],[1,0.5]];portConstraint=eastwest;top=0;left=0;right=0;bottom=1;" parent="lPMgVroHek3oW04ZQoGf-36" vertex="1">
          <mxGeometry y="30" width="180" height="30" as="geometry" />
        </mxCell>
        <mxCell id="lPMgVroHek3oW04ZQoGf-38" value="PK" style="shape=partialRectangle;connectable=0;fillColor=none;top=0;left=0;bottom=0;right=0;fontStyle=1;overflow=hidden;whiteSpace=wrap;html=1;" parent="lPMgVroHek3oW04ZQoGf-37" vertex="1">
          <mxGeometry width="30" height="30" as="geometry">
            <mxRectangle width="30" height="30" as="alternateBounds" />
          </mxGeometry>
        </mxCell>
        <mxCell id="lPMgVroHek3oW04ZQoGf-39" value="In_Id" style="shape=partialRectangle;connectable=0;fillColor=none;top=0;left=0;bottom=0;right=0;align=left;spacingLeft=6;fontStyle=5;overflow=hidden;whiteSpace=wrap;html=1;" parent="lPMgVroHek3oW04ZQoGf-37" vertex="1">
          <mxGeometry x="30" width="150" height="30" as="geometry">
            <mxRectangle width="150" height="30" as="alternateBounds" />
          </mxGeometry>
        </mxCell>
        <mxCell id="lPMgVroHek3oW04ZQoGf-40" value="" style="shape=tableRow;horizontal=0;startSize=0;swimlaneHead=0;swimlaneBody=0;fillColor=none;collapsible=0;dropTarget=0;points=[[0,0.5],[1,0.5]];portConstraint=eastwest;top=0;left=0;right=0;bottom=0;" parent="lPMgVroHek3oW04ZQoGf-36" vertex="1">
          <mxGeometry y="60" width="180" height="30" as="geometry" />
        </mxCell>
        <mxCell id="lPMgVroHek3oW04ZQoGf-41" value="" style="shape=partialRectangle;connectable=0;fillColor=none;top=0;left=0;bottom=0;right=0;editable=1;overflow=hidden;whiteSpace=wrap;html=1;" parent="lPMgVroHek3oW04ZQoGf-40" vertex="1">
          <mxGeometry width="30" height="30" as="geometry">
            <mxRectangle width="30" height="30" as="alternateBounds" />
          </mxGeometry>
        </mxCell>
        <mxCell id="lPMgVroHek3oW04ZQoGf-42" value="name" style="shape=partialRectangle;connectable=0;fillColor=none;top=0;left=0;bottom=0;right=0;align=left;spacingLeft=6;overflow=hidden;whiteSpace=wrap;html=1;" parent="lPMgVroHek3oW04ZQoGf-40" vertex="1">
          <mxGeometry x="30" width="150" height="30" as="geometry">
            <mxRectangle width="150" height="30" as="alternateBounds" />
          </mxGeometry>
        </mxCell>
        <mxCell id="lPMgVroHek3oW04ZQoGf-75" value="track" style="shape=table;startSize=30;container=1;collapsible=1;childLayout=tableLayout;fixedRows=1;rowLines=0;fontStyle=1;align=center;resizeLast=1;html=1;" parent="1" vertex="1">
          <mxGeometry x="760" y="480" width="180" height="90" as="geometry" />
        </mxCell>
        <mxCell id="lPMgVroHek3oW04ZQoGf-76" value="" style="shape=tableRow;horizontal=0;startSize=0;swimlaneHead=0;swimlaneBody=0;fillColor=none;collapsible=0;dropTarget=0;points=[[0,0.5],[1,0.5]];portConstraint=eastwest;top=0;left=0;right=0;bottom=1;" parent="lPMgVroHek3oW04ZQoGf-75" vertex="1">
          <mxGeometry y="30" width="180" height="30" as="geometry" />
        </mxCell>
        <mxCell id="lPMgVroHek3oW04ZQoGf-77" value="PK" style="shape=partialRectangle;connectable=0;fillColor=none;top=0;left=0;bottom=0;right=0;fontStyle=1;overflow=hidden;whiteSpace=wrap;html=1;" parent="lPMgVroHek3oW04ZQoGf-76" vertex="1">
          <mxGeometry width="30" height="30" as="geometry">
            <mxRectangle width="30" height="30" as="alternateBounds" />
          </mxGeometry>
        </mxCell>
        <mxCell id="lPMgVroHek3oW04ZQoGf-78" value="T_Id" style="shape=partialRectangle;connectable=0;fillColor=none;top=0;left=0;bottom=0;right=0;align=left;spacingLeft=6;fontStyle=5;overflow=hidden;whiteSpace=wrap;html=1;" parent="lPMgVroHek3oW04ZQoGf-76" vertex="1">
          <mxGeometry x="30" width="150" height="30" as="geometry">
            <mxRectangle width="150" height="30" as="alternateBounds" />
          </mxGeometry>
        </mxCell>
        <mxCell id="lPMgVroHek3oW04ZQoGf-79" value="" style="shape=tableRow;horizontal=0;startSize=0;swimlaneHead=0;swimlaneBody=0;fillColor=none;collapsible=0;dropTarget=0;points=[[0,0.5],[1,0.5]];portConstraint=eastwest;top=0;left=0;right=0;bottom=0;" parent="lPMgVroHek3oW04ZQoGf-75" vertex="1">
          <mxGeometry y="60" width="180" height="30" as="geometry" />
        </mxCell>
        <mxCell id="lPMgVroHek3oW04ZQoGf-80" value="" style="shape=partialRectangle;connectable=0;fillColor=none;top=0;left=0;bottom=0;right=0;editable=1;overflow=hidden;whiteSpace=wrap;html=1;" parent="lPMgVroHek3oW04ZQoGf-79" vertex="1">
          <mxGeometry width="30" height="30" as="geometry">
            <mxRectangle width="30" height="30" as="alternateBounds" />
          </mxGeometry>
        </mxCell>
        <mxCell id="lPMgVroHek3oW04ZQoGf-81" value="name" style="shape=partialRectangle;connectable=0;fillColor=none;top=0;left=0;bottom=0;right=0;align=left;spacingLeft=6;overflow=hidden;whiteSpace=wrap;html=1;" parent="lPMgVroHek3oW04ZQoGf-79" vertex="1">
          <mxGeometry x="30" width="150" height="30" as="geometry">
            <mxRectangle width="150" height="30" as="alternateBounds" />
          </mxGeometry>
        </mxCell>
        <mxCell id="lPMgVroHek3oW04ZQoGf-88" value="branch" style="shape=table;startSize=30;container=1;collapsible=1;childLayout=tableLayout;fixedRows=1;rowLines=0;fontStyle=1;align=center;resizeLast=1;html=1;" parent="1" vertex="1">
          <mxGeometry x="550" y="-2" width="180" height="150" as="geometry" />
        </mxCell>
        <mxCell id="lPMgVroHek3oW04ZQoGf-89" value="" style="shape=tableRow;horizontal=0;startSize=0;swimlaneHead=0;swimlaneBody=0;fillColor=none;collapsible=0;dropTarget=0;points=[[0,0.5],[1,0.5]];portConstraint=eastwest;top=0;left=0;right=0;bottom=1;" parent="lPMgVroHek3oW04ZQoGf-88" vertex="1">
          <mxGeometry y="30" width="180" height="30" as="geometry" />
        </mxCell>
        <mxCell id="lPMgVroHek3oW04ZQoGf-90" value="PK" style="shape=partialRectangle;connectable=0;fillColor=none;top=0;left=0;bottom=0;right=0;fontStyle=1;overflow=hidden;whiteSpace=wrap;html=1;" parent="lPMgVroHek3oW04ZQoGf-89" vertex="1">
          <mxGeometry width="30" height="30" as="geometry">
            <mxRectangle width="30" height="30" as="alternateBounds" />
          </mxGeometry>
        </mxCell>
        <mxCell id="lPMgVroHek3oW04ZQoGf-91" value="B_Id" style="shape=partialRectangle;connectable=0;fillColor=none;top=0;left=0;bottom=0;right=0;align=left;spacingLeft=6;fontStyle=5;overflow=hidden;whiteSpace=wrap;html=1;" parent="lPMgVroHek3oW04ZQoGf-89" vertex="1">
          <mxGeometry x="30" width="150" height="30" as="geometry">
            <mxRectangle width="150" height="30" as="alternateBounds" />
          </mxGeometry>
        </mxCell>
        <mxCell id="lPMgVroHek3oW04ZQoGf-101" value="" style="shape=tableRow;horizontal=0;startSize=0;swimlaneHead=0;swimlaneBody=0;fillColor=none;collapsible=0;dropTarget=0;points=[[0,0.5],[1,0.5]];portConstraint=eastwest;top=0;left=0;right=0;bottom=1;" parent="lPMgVroHek3oW04ZQoGf-88" vertex="1">
          <mxGeometry y="60" width="180" height="30" as="geometry" />
        </mxCell>
        <mxCell id="lPMgVroHek3oW04ZQoGf-102" value="FK" style="shape=partialRectangle;connectable=0;fillColor=none;top=0;left=0;bottom=0;right=0;fontStyle=1;overflow=hidden;whiteSpace=wrap;html=1;" parent="lPMgVroHek3oW04ZQoGf-101" vertex="1">
          <mxGeometry width="30" height="30" as="geometry">
            <mxRectangle width="30" height="30" as="alternateBounds" />
          </mxGeometry>
        </mxCell>
        <mxCell id="lPMgVroHek3oW04ZQoGf-103" value="In_Id" style="shape=partialRectangle;connectable=0;fillColor=none;top=0;left=0;bottom=0;right=0;align=left;spacingLeft=6;fontStyle=5;overflow=hidden;whiteSpace=wrap;html=1;" parent="lPMgVroHek3oW04ZQoGf-101" vertex="1">
          <mxGeometry x="30" width="150" height="30" as="geometry">
            <mxRectangle width="150" height="30" as="alternateBounds" />
          </mxGeometry>
        </mxCell>
        <mxCell id="lPMgVroHek3oW04ZQoGf-92" value="" style="shape=tableRow;horizontal=0;startSize=0;swimlaneHead=0;swimlaneBody=0;fillColor=none;collapsible=0;dropTarget=0;points=[[0,0.5],[1,0.5]];portConstraint=eastwest;top=0;left=0;right=0;bottom=0;" parent="lPMgVroHek3oW04ZQoGf-88" vertex="1">
          <mxGeometry y="90" width="180" height="30" as="geometry" />
        </mxCell>
        <mxCell id="lPMgVroHek3oW04ZQoGf-93" value="" style="shape=partialRectangle;connectable=0;fillColor=none;top=0;left=0;bottom=0;right=0;editable=1;overflow=hidden;whiteSpace=wrap;html=1;" parent="lPMgVroHek3oW04ZQoGf-92" vertex="1">
          <mxGeometry width="30" height="30" as="geometry">
            <mxRectangle width="30" height="30" as="alternateBounds" />
          </mxGeometry>
        </mxCell>
        <mxCell id="lPMgVroHek3oW04ZQoGf-94" value="name" style="shape=partialRectangle;connectable=0;fillColor=none;top=0;left=0;bottom=0;right=0;align=left;spacingLeft=6;overflow=hidden;whiteSpace=wrap;html=1;" parent="lPMgVroHek3oW04ZQoGf-92" vertex="1">
          <mxGeometry x="30" width="150" height="30" as="geometry">
            <mxRectangle width="150" height="30" as="alternateBounds" />
          </mxGeometry>
        </mxCell>
        <mxCell id="lPMgVroHek3oW04ZQoGf-95" value="" style="shape=tableRow;horizontal=0;startSize=0;swimlaneHead=0;swimlaneBody=0;fillColor=none;collapsible=0;dropTarget=0;points=[[0,0.5],[1,0.5]];portConstraint=eastwest;top=0;left=0;right=0;bottom=0;" parent="lPMgVroHek3oW04ZQoGf-88" vertex="1">
          <mxGeometry y="120" width="180" height="30" as="geometry" />
        </mxCell>
        <mxCell id="lPMgVroHek3oW04ZQoGf-96" value="" style="shape=partialRectangle;connectable=0;fillColor=none;top=0;left=0;bottom=0;right=0;editable=1;overflow=hidden;whiteSpace=wrap;html=1;" parent="lPMgVroHek3oW04ZQoGf-95" vertex="1">
          <mxGeometry width="30" height="30" as="geometry">
            <mxRectangle width="30" height="30" as="alternateBounds" />
          </mxGeometry>
        </mxCell>
        <mxCell id="lPMgVroHek3oW04ZQoGf-97" value="address" style="shape=partialRectangle;connectable=0;fillColor=none;top=0;left=0;bottom=0;right=0;align=left;spacingLeft=6;overflow=hidden;whiteSpace=wrap;html=1;" parent="lPMgVroHek3oW04ZQoGf-95" vertex="1">
          <mxGeometry x="30" width="150" height="30" as="geometry">
            <mxRectangle width="150" height="30" as="alternateBounds" />
          </mxGeometry>
        </mxCell>
        <mxCell id="lPMgVroHek3oW04ZQoGf-104" value="Course" style="shape=table;startSize=30;container=1;collapsible=1;childLayout=tableLayout;fixedRows=1;rowLines=0;fontStyle=1;align=center;resizeLast=1;html=1;" parent="1" vertex="1">
          <mxGeometry x="-1340" y="-230" width="180" height="180" as="geometry" />
        </mxCell>
        <mxCell id="lPMgVroHek3oW04ZQoGf-105" value="" style="shape=tableRow;horizontal=0;startSize=0;swimlaneHead=0;swimlaneBody=0;fillColor=none;collapsible=0;dropTarget=0;points=[[0,0.5],[1,0.5]];portConstraint=eastwest;top=0;left=0;right=0;bottom=1;" parent="lPMgVroHek3oW04ZQoGf-104" vertex="1">
          <mxGeometry y="30" width="180" height="30" as="geometry" />
        </mxCell>
        <mxCell id="lPMgVroHek3oW04ZQoGf-106" value="PK" style="shape=partialRectangle;connectable=0;fillColor=none;top=0;left=0;bottom=0;right=0;fontStyle=1;overflow=hidden;whiteSpace=wrap;html=1;" parent="lPMgVroHek3oW04ZQoGf-105" vertex="1">
          <mxGeometry width="30" height="30" as="geometry">
            <mxRectangle width="30" height="30" as="alternateBounds" />
          </mxGeometry>
        </mxCell>
        <mxCell id="lPMgVroHek3oW04ZQoGf-107" value="C_id" style="shape=partialRectangle;connectable=0;fillColor=none;top=0;left=0;bottom=0;right=0;align=left;spacingLeft=6;fontStyle=5;overflow=hidden;whiteSpace=wrap;html=1;" parent="lPMgVroHek3oW04ZQoGf-105" vertex="1">
          <mxGeometry x="30" width="150" height="30" as="geometry">
            <mxRectangle width="150" height="30" as="alternateBounds" />
          </mxGeometry>
        </mxCell>
        <mxCell id="lPMgVroHek3oW04ZQoGf-108" value="" style="shape=tableRow;horizontal=0;startSize=0;swimlaneHead=0;swimlaneBody=0;fillColor=none;collapsible=0;dropTarget=0;points=[[0,0.5],[1,0.5]];portConstraint=eastwest;top=0;left=0;right=0;bottom=0;" parent="lPMgVroHek3oW04ZQoGf-104" vertex="1">
          <mxGeometry y="60" width="180" height="30" as="geometry" />
        </mxCell>
        <mxCell id="lPMgVroHek3oW04ZQoGf-109" value="" style="shape=partialRectangle;connectable=0;fillColor=none;top=0;left=0;bottom=0;right=0;editable=1;overflow=hidden;whiteSpace=wrap;html=1;" parent="lPMgVroHek3oW04ZQoGf-108" vertex="1">
          <mxGeometry width="30" height="30" as="geometry">
            <mxRectangle width="30" height="30" as="alternateBounds" />
          </mxGeometry>
        </mxCell>
        <mxCell id="lPMgVroHek3oW04ZQoGf-110" value="name" style="shape=partialRectangle;connectable=0;fillColor=none;top=0;left=0;bottom=0;right=0;align=left;spacingLeft=6;overflow=hidden;whiteSpace=wrap;html=1;" parent="lPMgVroHek3oW04ZQoGf-108" vertex="1">
          <mxGeometry x="30" width="150" height="30" as="geometry">
            <mxRectangle width="150" height="30" as="alternateBounds" />
          </mxGeometry>
        </mxCell>
        <mxCell id="lPMgVroHek3oW04ZQoGf-111" value="" style="shape=tableRow;horizontal=0;startSize=0;swimlaneHead=0;swimlaneBody=0;fillColor=none;collapsible=0;dropTarget=0;points=[[0,0.5],[1,0.5]];portConstraint=eastwest;top=0;left=0;right=0;bottom=0;" parent="lPMgVroHek3oW04ZQoGf-104" vertex="1">
          <mxGeometry y="90" width="180" height="30" as="geometry" />
        </mxCell>
        <mxCell id="lPMgVroHek3oW04ZQoGf-112" value="" style="shape=partialRectangle;connectable=0;fillColor=none;top=0;left=0;bottom=0;right=0;editable=1;overflow=hidden;whiteSpace=wrap;html=1;" parent="lPMgVroHek3oW04ZQoGf-111" vertex="1">
          <mxGeometry width="30" height="30" as="geometry">
            <mxRectangle width="30" height="30" as="alternateBounds" />
          </mxGeometry>
        </mxCell>
        <mxCell id="lPMgVroHek3oW04ZQoGf-113" value="description" style="shape=partialRectangle;connectable=0;fillColor=none;top=0;left=0;bottom=0;right=0;align=left;spacingLeft=6;overflow=hidden;whiteSpace=wrap;html=1;" parent="lPMgVroHek3oW04ZQoGf-111" vertex="1">
          <mxGeometry x="30" width="150" height="30" as="geometry">
            <mxRectangle width="150" height="30" as="alternateBounds" />
          </mxGeometry>
        </mxCell>
        <mxCell id="lPMgVroHek3oW04ZQoGf-114" value="" style="shape=tableRow;horizontal=0;startSize=0;swimlaneHead=0;swimlaneBody=0;fillColor=none;collapsible=0;dropTarget=0;points=[[0,0.5],[1,0.5]];portConstraint=eastwest;top=0;left=0;right=0;bottom=0;" parent="lPMgVroHek3oW04ZQoGf-104" vertex="1">
          <mxGeometry y="120" width="180" height="30" as="geometry" />
        </mxCell>
        <mxCell id="lPMgVroHek3oW04ZQoGf-115" value="" style="shape=partialRectangle;connectable=0;fillColor=none;top=0;left=0;bottom=0;right=0;editable=1;overflow=hidden;whiteSpace=wrap;html=1;" parent="lPMgVroHek3oW04ZQoGf-114" vertex="1">
          <mxGeometry width="30" height="30" as="geometry">
            <mxRectangle width="30" height="30" as="alternateBounds" />
          </mxGeometry>
        </mxCell>
        <mxCell id="lPMgVroHek3oW04ZQoGf-116" value="min_degree" style="shape=partialRectangle;connectable=0;fillColor=none;top=0;left=0;bottom=0;right=0;align=left;spacingLeft=6;overflow=hidden;whiteSpace=wrap;html=1;" parent="lPMgVroHek3oW04ZQoGf-114" vertex="1">
          <mxGeometry x="30" width="150" height="30" as="geometry">
            <mxRectangle width="150" height="30" as="alternateBounds" />
          </mxGeometry>
        </mxCell>
        <mxCell id="GZYqPCf5WJhw_bRFd9uP-1" value="" style="shape=tableRow;horizontal=0;startSize=0;swimlaneHead=0;swimlaneBody=0;fillColor=none;collapsible=0;dropTarget=0;points=[[0,0.5],[1,0.5]];portConstraint=eastwest;top=0;left=0;right=0;bottom=0;" parent="lPMgVroHek3oW04ZQoGf-104" vertex="1">
          <mxGeometry y="150" width="180" height="30" as="geometry" />
        </mxCell>
        <mxCell id="GZYqPCf5WJhw_bRFd9uP-2" value="" style="shape=partialRectangle;connectable=0;fillColor=none;top=0;left=0;bottom=0;right=0;editable=1;overflow=hidden;whiteSpace=wrap;html=1;" parent="GZYqPCf5WJhw_bRFd9uP-1" vertex="1">
          <mxGeometry width="30" height="30" as="geometry">
            <mxRectangle width="30" height="30" as="alternateBounds" />
          </mxGeometry>
        </mxCell>
        <mxCell id="GZYqPCf5WJhw_bRFd9uP-3" value="max_degree" style="shape=partialRectangle;connectable=0;fillColor=none;top=0;left=0;bottom=0;right=0;align=left;spacingLeft=6;overflow=hidden;whiteSpace=wrap;html=1;" parent="GZYqPCf5WJhw_bRFd9uP-1" vertex="1">
          <mxGeometry x="30" width="150" height="30" as="geometry">
            <mxRectangle width="150" height="30" as="alternateBounds" />
          </mxGeometry>
        </mxCell>
        <mxCell id="G-610gsYNSWdPGVO7RR0-4" value="&lt;span style=&quot;text-wrap: nowrap;&quot;&gt;Instructor_Exam&lt;/span&gt;" style="shape=table;startSize=30;container=1;collapsible=1;childLayout=tableLayout;fixedRows=1;rowLines=0;fontStyle=1;align=center;resizeLast=1;html=1;whiteSpace=wrap;" parent="1" vertex="1">
          <mxGeometry x="250" y="240" width="180" height="150" as="geometry" />
        </mxCell>
        <mxCell id="G-610gsYNSWdPGVO7RR0-5" value="" style="shape=tableRow;horizontal=0;startSize=0;swimlaneHead=0;swimlaneBody=0;fillColor=none;collapsible=0;dropTarget=0;points=[[0,0.5],[1,0.5]];portConstraint=eastwest;top=0;left=0;right=0;bottom=0;html=1;" parent="G-610gsYNSWdPGVO7RR0-4" vertex="1">
          <mxGeometry y="30" width="180" height="30" as="geometry" />
        </mxCell>
        <mxCell id="G-610gsYNSWdPGVO7RR0-6" value="PK,FK1" style="shape=partialRectangle;connectable=0;fillColor=none;top=0;left=0;bottom=0;right=0;fontStyle=1;overflow=hidden;html=1;whiteSpace=wrap;" parent="G-610gsYNSWdPGVO7RR0-5" vertex="1">
          <mxGeometry width="60" height="30" as="geometry">
            <mxRectangle width="60" height="30" as="alternateBounds" />
          </mxGeometry>
        </mxCell>
        <mxCell id="G-610gsYNSWdPGVO7RR0-7" value="E_id" style="shape=partialRectangle;connectable=0;fillColor=none;top=0;left=0;bottom=0;right=0;align=left;spacingLeft=6;fontStyle=5;overflow=hidden;html=1;whiteSpace=wrap;" parent="G-610gsYNSWdPGVO7RR0-5" vertex="1">
          <mxGeometry x="60" width="120" height="30" as="geometry">
            <mxRectangle width="120" height="30" as="alternateBounds" />
          </mxGeometry>
        </mxCell>
        <mxCell id="G-610gsYNSWdPGVO7RR0-8" value="" style="shape=tableRow;horizontal=0;startSize=0;swimlaneHead=0;swimlaneBody=0;fillColor=none;collapsible=0;dropTarget=0;points=[[0,0.5],[1,0.5]];portConstraint=eastwest;top=0;left=0;right=0;bottom=1;html=1;" parent="G-610gsYNSWdPGVO7RR0-4" vertex="1">
          <mxGeometry y="60" width="180" height="30" as="geometry" />
        </mxCell>
        <mxCell id="G-610gsYNSWdPGVO7RR0-9" value="PK,FK2" style="shape=partialRectangle;connectable=0;fillColor=none;top=0;left=0;bottom=0;right=0;fontStyle=1;overflow=hidden;html=1;whiteSpace=wrap;" parent="G-610gsYNSWdPGVO7RR0-8" vertex="1">
          <mxGeometry width="60" height="30" as="geometry">
            <mxRectangle width="60" height="30" as="alternateBounds" />
          </mxGeometry>
        </mxCell>
        <mxCell id="G-610gsYNSWdPGVO7RR0-10" value="Ins_id" style="shape=partialRectangle;connectable=0;fillColor=none;top=0;left=0;bottom=0;right=0;align=left;spacingLeft=6;fontStyle=5;overflow=hidden;html=1;whiteSpace=wrap;" parent="G-610gsYNSWdPGVO7RR0-8" vertex="1">
          <mxGeometry x="60" width="120" height="30" as="geometry">
            <mxRectangle width="120" height="30" as="alternateBounds" />
          </mxGeometry>
        </mxCell>
        <mxCell id="G-610gsYNSWdPGVO7RR0-11" value="" style="shape=tableRow;horizontal=0;startSize=0;swimlaneHead=0;swimlaneBody=0;fillColor=none;collapsible=0;dropTarget=0;points=[[0,0.5],[1,0.5]];portConstraint=eastwest;top=0;left=0;right=0;bottom=0;html=1;" parent="G-610gsYNSWdPGVO7RR0-4" vertex="1">
          <mxGeometry y="90" width="180" height="30" as="geometry" />
        </mxCell>
        <mxCell id="G-610gsYNSWdPGVO7RR0-12" value="" style="shape=partialRectangle;connectable=0;fillColor=none;top=0;left=0;bottom=0;right=0;editable=1;overflow=hidden;html=1;whiteSpace=wrap;" parent="G-610gsYNSWdPGVO7RR0-11" vertex="1">
          <mxGeometry width="60" height="30" as="geometry">
            <mxRectangle width="60" height="30" as="alternateBounds" />
          </mxGeometry>
        </mxCell>
        <mxCell id="G-610gsYNSWdPGVO7RR0-13" value="S_time" style="shape=partialRectangle;connectable=0;fillColor=none;top=0;left=0;bottom=0;right=0;align=left;spacingLeft=6;overflow=hidden;html=1;whiteSpace=wrap;" parent="G-610gsYNSWdPGVO7RR0-11" vertex="1">
          <mxGeometry x="60" width="120" height="30" as="geometry">
            <mxRectangle width="120" height="30" as="alternateBounds" />
          </mxGeometry>
        </mxCell>
        <mxCell id="G-610gsYNSWdPGVO7RR0-14" value="" style="shape=tableRow;horizontal=0;startSize=0;swimlaneHead=0;swimlaneBody=0;fillColor=none;collapsible=0;dropTarget=0;points=[[0,0.5],[1,0.5]];portConstraint=eastwest;top=0;left=0;right=0;bottom=0;html=1;" parent="G-610gsYNSWdPGVO7RR0-4" vertex="1">
          <mxGeometry y="120" width="180" height="30" as="geometry" />
        </mxCell>
        <mxCell id="G-610gsYNSWdPGVO7RR0-15" value="" style="shape=partialRectangle;connectable=0;fillColor=none;top=0;left=0;bottom=0;right=0;editable=1;overflow=hidden;html=1;whiteSpace=wrap;" parent="G-610gsYNSWdPGVO7RR0-14" vertex="1">
          <mxGeometry width="60" height="30" as="geometry">
            <mxRectangle width="60" height="30" as="alternateBounds" />
          </mxGeometry>
        </mxCell>
        <mxCell id="G-610gsYNSWdPGVO7RR0-16" value="E_time" style="shape=partialRectangle;connectable=0;fillColor=none;top=0;left=0;bottom=0;right=0;align=left;spacingLeft=6;overflow=hidden;html=1;whiteSpace=wrap;" parent="G-610gsYNSWdPGVO7RR0-14" vertex="1">
          <mxGeometry x="60" width="120" height="30" as="geometry">
            <mxRectangle width="120" height="30" as="alternateBounds" />
          </mxGeometry>
        </mxCell>
        <mxCell id="G-610gsYNSWdPGVO7RR0-17" value="Instructor_branch" style="shape=table;startSize=30;container=1;collapsible=1;childLayout=tableLayout;fixedRows=1;rowLines=0;fontStyle=1;align=center;resizeLast=1;html=1;whiteSpace=wrap;" parent="1" vertex="1">
          <mxGeometry x="500" y="650" width="180" height="90" as="geometry" />
        </mxCell>
        <mxCell id="G-610gsYNSWdPGVO7RR0-18" value="" style="shape=tableRow;horizontal=0;startSize=0;swimlaneHead=0;swimlaneBody=0;fillColor=none;collapsible=0;dropTarget=0;points=[[0,0.5],[1,0.5]];portConstraint=eastwest;top=0;left=0;right=0;bottom=0;html=1;" parent="G-610gsYNSWdPGVO7RR0-17" vertex="1">
          <mxGeometry y="30" width="180" height="30" as="geometry" />
        </mxCell>
        <mxCell id="G-610gsYNSWdPGVO7RR0-19" value="PK,FK1" style="shape=partialRectangle;connectable=0;fillColor=none;top=0;left=0;bottom=0;right=0;fontStyle=1;overflow=hidden;html=1;whiteSpace=wrap;" parent="G-610gsYNSWdPGVO7RR0-18" vertex="1">
          <mxGeometry width="60" height="30" as="geometry">
            <mxRectangle width="60" height="30" as="alternateBounds" />
          </mxGeometry>
        </mxCell>
        <mxCell id="G-610gsYNSWdPGVO7RR0-20" value="b_id" style="shape=partialRectangle;connectable=0;fillColor=none;top=0;left=0;bottom=0;right=0;align=left;spacingLeft=6;fontStyle=5;overflow=hidden;html=1;whiteSpace=wrap;" parent="G-610gsYNSWdPGVO7RR0-18" vertex="1">
          <mxGeometry x="60" width="120" height="30" as="geometry">
            <mxRectangle width="120" height="30" as="alternateBounds" />
          </mxGeometry>
        </mxCell>
        <mxCell id="G-610gsYNSWdPGVO7RR0-21" value="" style="shape=tableRow;horizontal=0;startSize=0;swimlaneHead=0;swimlaneBody=0;fillColor=none;collapsible=0;dropTarget=0;points=[[0,0.5],[1,0.5]];portConstraint=eastwest;top=0;left=0;right=0;bottom=1;html=1;" parent="G-610gsYNSWdPGVO7RR0-17" vertex="1">
          <mxGeometry y="60" width="180" height="30" as="geometry" />
        </mxCell>
        <mxCell id="G-610gsYNSWdPGVO7RR0-22" value="PK,FK2" style="shape=partialRectangle;connectable=0;fillColor=none;top=0;left=0;bottom=0;right=0;fontStyle=1;overflow=hidden;html=1;whiteSpace=wrap;" parent="G-610gsYNSWdPGVO7RR0-21" vertex="1">
          <mxGeometry width="60" height="30" as="geometry">
            <mxRectangle width="60" height="30" as="alternateBounds" />
          </mxGeometry>
        </mxCell>
        <mxCell id="G-610gsYNSWdPGVO7RR0-23" value="U_id" style="shape=partialRectangle;connectable=0;fillColor=none;top=0;left=0;bottom=0;right=0;align=left;spacingLeft=6;fontStyle=5;overflow=hidden;html=1;whiteSpace=wrap;" parent="G-610gsYNSWdPGVO7RR0-21" vertex="1">
          <mxGeometry x="60" width="120" height="30" as="geometry">
            <mxRectangle width="120" height="30" as="alternateBounds" />
          </mxGeometry>
        </mxCell>
        <mxCell id="K4fKmmMY9q8T4BV-W0GV-1" value="Instructor" style="shape=table;startSize=30;container=1;collapsible=1;childLayout=tableLayout;fixedRows=1;rowLines=0;fontStyle=1;align=center;resizeLast=1;html=1;" parent="1" vertex="1">
          <mxGeometry x="-100" y="440" width="180" height="270" as="geometry" />
        </mxCell>
        <mxCell id="K4fKmmMY9q8T4BV-W0GV-2" value="" style="shape=tableRow;horizontal=0;startSize=0;swimlaneHead=0;swimlaneBody=0;fillColor=none;collapsible=0;dropTarget=0;points=[[0,0.5],[1,0.5]];portConstraint=eastwest;top=0;left=0;right=0;bottom=1;" parent="K4fKmmMY9q8T4BV-W0GV-1" vertex="1">
          <mxGeometry y="30" width="180" height="30" as="geometry" />
        </mxCell>
        <mxCell id="K4fKmmMY9q8T4BV-W0GV-3" value="PK" style="shape=partialRectangle;connectable=0;fillColor=none;top=0;left=0;bottom=0;right=0;fontStyle=1;overflow=hidden;whiteSpace=wrap;html=1;" parent="K4fKmmMY9q8T4BV-W0GV-2" vertex="1">
          <mxGeometry width="30" height="30" as="geometry">
            <mxRectangle width="30" height="30" as="alternateBounds" />
          </mxGeometry>
        </mxCell>
        <mxCell id="K4fKmmMY9q8T4BV-W0GV-4" value="Ins_ID" style="shape=partialRectangle;connectable=0;fillColor=none;top=0;left=0;bottom=0;right=0;align=left;spacingLeft=6;fontStyle=5;overflow=hidden;whiteSpace=wrap;html=1;" parent="K4fKmmMY9q8T4BV-W0GV-2" vertex="1">
          <mxGeometry x="30" width="150" height="30" as="geometry">
            <mxRectangle width="150" height="30" as="alternateBounds" />
          </mxGeometry>
        </mxCell>
        <mxCell id="yMbdt1dhZqDN_mu69WBK-7" value="" style="shape=tableRow;horizontal=0;startSize=0;swimlaneHead=0;swimlaneBody=0;fillColor=none;collapsible=0;dropTarget=0;points=[[0,0.5],[1,0.5]];portConstraint=eastwest;top=0;left=0;right=0;bottom=1;" parent="K4fKmmMY9q8T4BV-W0GV-1" vertex="1">
          <mxGeometry y="60" width="180" height="30" as="geometry" />
        </mxCell>
        <mxCell id="yMbdt1dhZqDN_mu69WBK-8" value="FK" style="shape=partialRectangle;connectable=0;fillColor=none;top=0;left=0;bottom=0;right=0;fontStyle=1;overflow=hidden;whiteSpace=wrap;html=1;" parent="yMbdt1dhZqDN_mu69WBK-7" vertex="1">
          <mxGeometry width="30" height="30" as="geometry">
            <mxRectangle width="30" height="30" as="alternateBounds" />
          </mxGeometry>
        </mxCell>
        <mxCell id="yMbdt1dhZqDN_mu69WBK-9" value="UA_ID" style="shape=partialRectangle;connectable=0;fillColor=none;top=0;left=0;bottom=0;right=0;align=left;spacingLeft=6;fontStyle=5;overflow=hidden;whiteSpace=wrap;html=1;" parent="yMbdt1dhZqDN_mu69WBK-7" vertex="1">
          <mxGeometry x="30" width="150" height="30" as="geometry">
            <mxRectangle width="150" height="30" as="alternateBounds" />
          </mxGeometry>
        </mxCell>
        <mxCell id="5jTrSMMZhgUHgdLPFIc2-10" value="" style="shape=tableRow;horizontal=0;startSize=0;swimlaneHead=0;swimlaneBody=0;fillColor=none;collapsible=0;dropTarget=0;points=[[0,0.5],[1,0.5]];portConstraint=eastwest;top=0;left=0;right=0;bottom=1;" parent="K4fKmmMY9q8T4BV-W0GV-1" vertex="1">
          <mxGeometry y="90" width="180" height="30" as="geometry" />
        </mxCell>
        <mxCell id="5jTrSMMZhgUHgdLPFIc2-11" value="FK" style="shape=partialRectangle;connectable=0;fillColor=none;top=0;left=0;bottom=0;right=0;fontStyle=1;overflow=hidden;whiteSpace=wrap;html=1;" parent="5jTrSMMZhgUHgdLPFIc2-10" vertex="1">
          <mxGeometry width="30" height="30" as="geometry">
            <mxRectangle width="30" height="30" as="alternateBounds" />
          </mxGeometry>
        </mxCell>
        <mxCell id="5jTrSMMZhgUHgdLPFIc2-12" value="T_ID" style="shape=partialRectangle;connectable=0;fillColor=none;top=0;left=0;bottom=0;right=0;align=left;spacingLeft=6;fontStyle=5;overflow=hidden;whiteSpace=wrap;html=1;" parent="5jTrSMMZhgUHgdLPFIc2-10" vertex="1">
          <mxGeometry x="30" width="150" height="30" as="geometry">
            <mxRectangle width="150" height="30" as="alternateBounds" />
          </mxGeometry>
        </mxCell>
        <mxCell id="Tp9vlDAihFM69ri6z9Ld-20" value="" style="shape=tableRow;horizontal=0;startSize=0;swimlaneHead=0;swimlaneBody=0;fillColor=none;collapsible=0;dropTarget=0;points=[[0,0.5],[1,0.5]];portConstraint=eastwest;top=0;left=0;right=0;bottom=1;" parent="K4fKmmMY9q8T4BV-W0GV-1" vertex="1">
          <mxGeometry y="120" width="180" height="30" as="geometry" />
        </mxCell>
        <mxCell id="Tp9vlDAihFM69ri6z9Ld-21" value="FK" style="shape=partialRectangle;connectable=0;fillColor=none;top=0;left=0;bottom=0;right=0;fontStyle=1;overflow=hidden;whiteSpace=wrap;html=1;" parent="Tp9vlDAihFM69ri6z9Ld-20" vertex="1">
          <mxGeometry width="30" height="30" as="geometry">
            <mxRectangle width="30" height="30" as="alternateBounds" />
          </mxGeometry>
        </mxCell>
        <mxCell id="Tp9vlDAihFM69ri6z9Ld-22" value="In_ID" style="shape=partialRectangle;connectable=0;fillColor=none;top=0;left=0;bottom=0;right=0;align=left;spacingLeft=6;fontStyle=5;overflow=hidden;whiteSpace=wrap;html=1;" parent="Tp9vlDAihFM69ri6z9Ld-20" vertex="1">
          <mxGeometry x="30" width="150" height="30" as="geometry">
            <mxRectangle width="150" height="30" as="alternateBounds" />
          </mxGeometry>
        </mxCell>
        <mxCell id="w_jT_pPwIlXG8MAN7bib-2" value="" style="shape=tableRow;horizontal=0;startSize=0;swimlaneHead=0;swimlaneBody=0;fillColor=none;collapsible=0;dropTarget=0;points=[[0,0.5],[1,0.5]];portConstraint=eastwest;top=0;left=0;right=0;bottom=1;" parent="K4fKmmMY9q8T4BV-W0GV-1" vertex="1">
          <mxGeometry y="150" width="180" height="30" as="geometry" />
        </mxCell>
        <mxCell id="w_jT_pPwIlXG8MAN7bib-3" value="FK" style="shape=partialRectangle;connectable=0;fillColor=none;top=0;left=0;bottom=0;right=0;fontStyle=1;overflow=hidden;whiteSpace=wrap;html=1;" parent="w_jT_pPwIlXG8MAN7bib-2" vertex="1">
          <mxGeometry width="30" height="30" as="geometry">
            <mxRectangle width="30" height="30" as="alternateBounds" />
          </mxGeometry>
        </mxCell>
        <mxCell id="w_jT_pPwIlXG8MAN7bib-4" value="B_ID" style="shape=partialRectangle;connectable=0;fillColor=none;top=0;left=0;bottom=0;right=0;align=left;spacingLeft=6;fontStyle=5;overflow=hidden;whiteSpace=wrap;html=1;" parent="w_jT_pPwIlXG8MAN7bib-2" vertex="1">
          <mxGeometry x="30" width="150" height="30" as="geometry">
            <mxRectangle width="150" height="30" as="alternateBounds" />
          </mxGeometry>
        </mxCell>
        <mxCell id="K4fKmmMY9q8T4BV-W0GV-5" value="" style="shape=tableRow;horizontal=0;startSize=0;swimlaneHead=0;swimlaneBody=0;fillColor=none;collapsible=0;dropTarget=0;points=[[0,0.5],[1,0.5]];portConstraint=eastwest;top=0;left=0;right=0;bottom=0;" parent="K4fKmmMY9q8T4BV-W0GV-1" vertex="1">
          <mxGeometry y="180" width="180" height="30" as="geometry" />
        </mxCell>
        <mxCell id="K4fKmmMY9q8T4BV-W0GV-6" value="" style="shape=partialRectangle;connectable=0;fillColor=none;top=0;left=0;bottom=0;right=0;editable=1;overflow=hidden;whiteSpace=wrap;html=1;" parent="K4fKmmMY9q8T4BV-W0GV-5" vertex="1">
          <mxGeometry width="30" height="30" as="geometry">
            <mxRectangle width="30" height="30" as="alternateBounds" />
          </mxGeometry>
        </mxCell>
        <mxCell id="K4fKmmMY9q8T4BV-W0GV-7" value="name" style="shape=partialRectangle;connectable=0;fillColor=none;top=0;left=0;bottom=0;right=0;align=left;spacingLeft=6;overflow=hidden;whiteSpace=wrap;html=1;" parent="K4fKmmMY9q8T4BV-W0GV-5" vertex="1">
          <mxGeometry x="30" width="150" height="30" as="geometry">
            <mxRectangle width="150" height="30" as="alternateBounds" />
          </mxGeometry>
        </mxCell>
        <mxCell id="e_tAOcpKbbN_s6QhWADa-20" value="" style="shape=tableRow;horizontal=0;startSize=0;swimlaneHead=0;swimlaneBody=0;fillColor=none;collapsible=0;dropTarget=0;points=[[0,0.5],[1,0.5]];portConstraint=eastwest;top=0;left=0;right=0;bottom=0;" parent="K4fKmmMY9q8T4BV-W0GV-1" vertex="1">
          <mxGeometry y="210" width="180" height="30" as="geometry" />
        </mxCell>
        <mxCell id="e_tAOcpKbbN_s6QhWADa-21" value="" style="shape=partialRectangle;connectable=0;fillColor=none;top=0;left=0;bottom=0;right=0;editable=1;overflow=hidden;whiteSpace=wrap;html=1;" parent="e_tAOcpKbbN_s6QhWADa-20" vertex="1">
          <mxGeometry width="30" height="30" as="geometry">
            <mxRectangle width="30" height="30" as="alternateBounds" />
          </mxGeometry>
        </mxCell>
        <mxCell id="e_tAOcpKbbN_s6QhWADa-22" value="gender" style="shape=partialRectangle;connectable=0;fillColor=none;top=0;left=0;bottom=0;right=0;align=left;spacingLeft=6;overflow=hidden;whiteSpace=wrap;html=1;" parent="e_tAOcpKbbN_s6QhWADa-20" vertex="1">
          <mxGeometry x="30" width="150" height="30" as="geometry">
            <mxRectangle width="150" height="30" as="alternateBounds" />
          </mxGeometry>
        </mxCell>
        <mxCell id="e_tAOcpKbbN_s6QhWADa-23" value="" style="shape=tableRow;horizontal=0;startSize=0;swimlaneHead=0;swimlaneBody=0;fillColor=none;collapsible=0;dropTarget=0;points=[[0,0.5],[1,0.5]];portConstraint=eastwest;top=0;left=0;right=0;bottom=0;" parent="K4fKmmMY9q8T4BV-W0GV-1" vertex="1">
          <mxGeometry y="240" width="180" height="30" as="geometry" />
        </mxCell>
        <mxCell id="e_tAOcpKbbN_s6QhWADa-24" value="" style="shape=partialRectangle;connectable=0;fillColor=none;top=0;left=0;bottom=0;right=0;editable=1;overflow=hidden;whiteSpace=wrap;html=1;" parent="e_tAOcpKbbN_s6QhWADa-23" vertex="1">
          <mxGeometry width="30" height="30" as="geometry">
            <mxRectangle width="30" height="30" as="alternateBounds" />
          </mxGeometry>
        </mxCell>
        <mxCell id="e_tAOcpKbbN_s6QhWADa-25" value="title" style="shape=partialRectangle;connectable=0;fillColor=none;top=0;left=0;bottom=0;right=0;align=left;spacingLeft=6;overflow=hidden;whiteSpace=wrap;html=1;" parent="e_tAOcpKbbN_s6QhWADa-23" vertex="1">
          <mxGeometry x="30" width="150" height="30" as="geometry">
            <mxRectangle width="150" height="30" as="alternateBounds" />
          </mxGeometry>
        </mxCell>
        <mxCell id="1q94uHZ-QxWiK4zQhJO--1" value="User_Account" style="shape=table;startSize=30;container=1;collapsible=1;childLayout=tableLayout;fixedRows=1;rowLines=0;fontStyle=1;align=center;resizeLast=1;html=1;" parent="1" vertex="1">
          <mxGeometry x="501" y="480" width="180" height="150" as="geometry" />
        </mxCell>
        <mxCell id="1q94uHZ-QxWiK4zQhJO--2" value="" style="shape=tableRow;horizontal=0;startSize=0;swimlaneHead=0;swimlaneBody=0;fillColor=none;collapsible=0;dropTarget=0;points=[[0,0.5],[1,0.5]];portConstraint=eastwest;top=0;left=0;right=0;bottom=1;" parent="1q94uHZ-QxWiK4zQhJO--1" vertex="1">
          <mxGeometry y="30" width="180" height="30" as="geometry" />
        </mxCell>
        <mxCell id="1q94uHZ-QxWiK4zQhJO--3" value="PK" style="shape=partialRectangle;connectable=0;fillColor=none;top=0;left=0;bottom=0;right=0;fontStyle=1;overflow=hidden;whiteSpace=wrap;html=1;" parent="1q94uHZ-QxWiK4zQhJO--2" vertex="1">
          <mxGeometry width="30" height="30" as="geometry">
            <mxRectangle width="30" height="30" as="alternateBounds" />
          </mxGeometry>
        </mxCell>
        <mxCell id="1q94uHZ-QxWiK4zQhJO--4" value="UA_ID" style="shape=partialRectangle;connectable=0;fillColor=none;top=0;left=0;bottom=0;right=0;align=left;spacingLeft=6;fontStyle=5;overflow=hidden;whiteSpace=wrap;html=1;" parent="1q94uHZ-QxWiK4zQhJO--2" vertex="1">
          <mxGeometry x="30" width="150" height="30" as="geometry">
            <mxRectangle width="150" height="30" as="alternateBounds" />
          </mxGeometry>
        </mxCell>
        <mxCell id="1q94uHZ-QxWiK4zQhJO--5" value="" style="shape=tableRow;horizontal=0;startSize=0;swimlaneHead=0;swimlaneBody=0;fillColor=none;collapsible=0;dropTarget=0;points=[[0,0.5],[1,0.5]];portConstraint=eastwest;top=0;left=0;right=0;bottom=0;" parent="1q94uHZ-QxWiK4zQhJO--1" vertex="1">
          <mxGeometry y="60" width="180" height="30" as="geometry" />
        </mxCell>
        <mxCell id="1q94uHZ-QxWiK4zQhJO--6" value="" style="shape=partialRectangle;connectable=0;fillColor=none;top=0;left=0;bottom=0;right=0;editable=1;overflow=hidden;whiteSpace=wrap;html=1;" parent="1q94uHZ-QxWiK4zQhJO--5" vertex="1">
          <mxGeometry width="30" height="30" as="geometry">
            <mxRectangle width="30" height="30" as="alternateBounds" />
          </mxGeometry>
        </mxCell>
        <mxCell id="1q94uHZ-QxWiK4zQhJO--7" value="email" style="shape=partialRectangle;connectable=0;fillColor=none;top=0;left=0;bottom=0;right=0;align=left;spacingLeft=6;overflow=hidden;whiteSpace=wrap;html=1;" parent="1q94uHZ-QxWiK4zQhJO--5" vertex="1">
          <mxGeometry x="30" width="150" height="30" as="geometry">
            <mxRectangle width="150" height="30" as="alternateBounds" />
          </mxGeometry>
        </mxCell>
        <mxCell id="1q94uHZ-QxWiK4zQhJO--8" value="" style="shape=tableRow;horizontal=0;startSize=0;swimlaneHead=0;swimlaneBody=0;fillColor=none;collapsible=0;dropTarget=0;points=[[0,0.5],[1,0.5]];portConstraint=eastwest;top=0;left=0;right=0;bottom=0;" parent="1q94uHZ-QxWiK4zQhJO--1" vertex="1">
          <mxGeometry y="90" width="180" height="30" as="geometry" />
        </mxCell>
        <mxCell id="1q94uHZ-QxWiK4zQhJO--9" value="" style="shape=partialRectangle;connectable=0;fillColor=none;top=0;left=0;bottom=0;right=0;editable=1;overflow=hidden;whiteSpace=wrap;html=1;" parent="1q94uHZ-QxWiK4zQhJO--8" vertex="1">
          <mxGeometry width="30" height="30" as="geometry">
            <mxRectangle width="30" height="30" as="alternateBounds" />
          </mxGeometry>
        </mxCell>
        <mxCell id="1q94uHZ-QxWiK4zQhJO--10" value="password" style="shape=partialRectangle;connectable=0;fillColor=none;top=0;left=0;bottom=0;right=0;align=left;spacingLeft=6;overflow=hidden;whiteSpace=wrap;html=1;" parent="1q94uHZ-QxWiK4zQhJO--8" vertex="1">
          <mxGeometry x="30" width="150" height="30" as="geometry">
            <mxRectangle width="150" height="30" as="alternateBounds" />
          </mxGeometry>
        </mxCell>
        <mxCell id="gQd8Q8dO-jjzDuAnqNSl-13" value="" style="shape=tableRow;horizontal=0;startSize=0;swimlaneHead=0;swimlaneBody=0;fillColor=none;collapsible=0;dropTarget=0;points=[[0,0.5],[1,0.5]];portConstraint=eastwest;top=0;left=0;right=0;bottom=0;" parent="1q94uHZ-QxWiK4zQhJO--1" vertex="1">
          <mxGeometry y="120" width="180" height="30" as="geometry" />
        </mxCell>
        <mxCell id="gQd8Q8dO-jjzDuAnqNSl-14" value="" style="shape=partialRectangle;connectable=0;fillColor=none;top=0;left=0;bottom=0;right=0;editable=1;overflow=hidden;whiteSpace=wrap;html=1;" parent="gQd8Q8dO-jjzDuAnqNSl-13" vertex="1">
          <mxGeometry width="30" height="30" as="geometry">
            <mxRectangle width="30" height="30" as="alternateBounds" />
          </mxGeometry>
        </mxCell>
        <mxCell id="gQd8Q8dO-jjzDuAnqNSl-15" value="userType" style="shape=partialRectangle;connectable=0;fillColor=none;top=0;left=0;bottom=0;right=0;align=left;spacingLeft=6;overflow=hidden;whiteSpace=wrap;html=1;" parent="gQd8Q8dO-jjzDuAnqNSl-13" vertex="1">
          <mxGeometry x="30" width="150" height="30" as="geometry">
            <mxRectangle width="150" height="30" as="alternateBounds" />
          </mxGeometry>
        </mxCell>
        <mxCell id="e_tAOcpKbbN_s6QhWADa-1" value="Student" style="shape=table;startSize=30;container=1;collapsible=1;childLayout=tableLayout;fixedRows=1;rowLines=0;fontStyle=1;align=center;resizeLast=1;html=1;" parent="1" vertex="1">
          <mxGeometry x="-210" y="-410" width="180" height="270" as="geometry" />
        </mxCell>
        <mxCell id="e_tAOcpKbbN_s6QhWADa-2" value="" style="shape=tableRow;horizontal=0;startSize=0;swimlaneHead=0;swimlaneBody=0;fillColor=none;collapsible=0;dropTarget=0;points=[[0,0.5],[1,0.5]];portConstraint=eastwest;top=0;left=0;right=0;bottom=1;" parent="e_tAOcpKbbN_s6QhWADa-1" vertex="1">
          <mxGeometry y="30" width="180" height="30" as="geometry" />
        </mxCell>
        <mxCell id="e_tAOcpKbbN_s6QhWADa-3" value="PK" style="shape=partialRectangle;connectable=0;fillColor=none;top=0;left=0;bottom=0;right=0;fontStyle=1;overflow=hidden;whiteSpace=wrap;html=1;" parent="e_tAOcpKbbN_s6QhWADa-2" vertex="1">
          <mxGeometry width="30" height="30" as="geometry">
            <mxRectangle width="30" height="30" as="alternateBounds" />
          </mxGeometry>
        </mxCell>
        <mxCell id="e_tAOcpKbbN_s6QhWADa-4" value="St_Id" style="shape=partialRectangle;connectable=0;fillColor=none;top=0;left=0;bottom=0;right=0;align=left;spacingLeft=6;fontStyle=5;overflow=hidden;whiteSpace=wrap;html=1;" parent="e_tAOcpKbbN_s6QhWADa-2" vertex="1">
          <mxGeometry x="30" width="150" height="30" as="geometry">
            <mxRectangle width="150" height="30" as="alternateBounds" />
          </mxGeometry>
        </mxCell>
        <mxCell id="yMbdt1dhZqDN_mu69WBK-4" value="" style="shape=tableRow;horizontal=0;startSize=0;swimlaneHead=0;swimlaneBody=0;fillColor=none;collapsible=0;dropTarget=0;points=[[0,0.5],[1,0.5]];portConstraint=eastwest;top=0;left=0;right=0;bottom=1;" parent="e_tAOcpKbbN_s6QhWADa-1" vertex="1">
          <mxGeometry y="60" width="180" height="30" as="geometry" />
        </mxCell>
        <mxCell id="yMbdt1dhZqDN_mu69WBK-5" value="FK" style="shape=partialRectangle;connectable=0;fillColor=none;top=0;left=0;bottom=0;right=0;fontStyle=1;overflow=hidden;whiteSpace=wrap;html=1;" parent="yMbdt1dhZqDN_mu69WBK-4" vertex="1">
          <mxGeometry width="30" height="30" as="geometry">
            <mxRectangle width="30" height="30" as="alternateBounds" />
          </mxGeometry>
        </mxCell>
        <mxCell id="yMbdt1dhZqDN_mu69WBK-6" value="UA_Id" style="shape=partialRectangle;connectable=0;fillColor=none;top=0;left=0;bottom=0;right=0;align=left;spacingLeft=6;fontStyle=5;overflow=hidden;whiteSpace=wrap;html=1;" parent="yMbdt1dhZqDN_mu69WBK-4" vertex="1">
          <mxGeometry x="30" width="150" height="30" as="geometry">
            <mxRectangle width="150" height="30" as="alternateBounds" />
          </mxGeometry>
        </mxCell>
        <mxCell id="5jTrSMMZhgUHgdLPFIc2-4" value="" style="shape=tableRow;horizontal=0;startSize=0;swimlaneHead=0;swimlaneBody=0;fillColor=none;collapsible=0;dropTarget=0;points=[[0,0.5],[1,0.5]];portConstraint=eastwest;top=0;left=0;right=0;bottom=1;" parent="e_tAOcpKbbN_s6QhWADa-1" vertex="1">
          <mxGeometry y="90" width="180" height="30" as="geometry" />
        </mxCell>
        <mxCell id="5jTrSMMZhgUHgdLPFIc2-5" value="FK" style="shape=partialRectangle;connectable=0;fillColor=none;top=0;left=0;bottom=0;right=0;fontStyle=1;overflow=hidden;whiteSpace=wrap;html=1;" parent="5jTrSMMZhgUHgdLPFIc2-4" vertex="1">
          <mxGeometry width="30" height="30" as="geometry">
            <mxRectangle width="30" height="30" as="alternateBounds" />
          </mxGeometry>
        </mxCell>
        <mxCell id="5jTrSMMZhgUHgdLPFIc2-6" value="T_Id" style="shape=partialRectangle;connectable=0;fillColor=none;top=0;left=0;bottom=0;right=0;align=left;spacingLeft=6;fontStyle=5;overflow=hidden;whiteSpace=wrap;html=1;" parent="5jTrSMMZhgUHgdLPFIc2-4" vertex="1">
          <mxGeometry x="30" width="150" height="30" as="geometry">
            <mxRectangle width="150" height="30" as="alternateBounds" />
          </mxGeometry>
        </mxCell>
        <mxCell id="5jTrSMMZhgUHgdLPFIc2-1" value="" style="shape=tableRow;horizontal=0;startSize=0;swimlaneHead=0;swimlaneBody=0;fillColor=none;collapsible=0;dropTarget=0;points=[[0,0.5],[1,0.5]];portConstraint=eastwest;top=0;left=0;right=0;bottom=1;" parent="e_tAOcpKbbN_s6QhWADa-1" vertex="1">
          <mxGeometry y="120" width="180" height="30" as="geometry" />
        </mxCell>
        <mxCell id="5jTrSMMZhgUHgdLPFIc2-2" value="FK" style="shape=partialRectangle;connectable=0;fillColor=none;top=0;left=0;bottom=0;right=0;fontStyle=1;overflow=hidden;whiteSpace=wrap;html=1;" parent="5jTrSMMZhgUHgdLPFIc2-1" vertex="1">
          <mxGeometry width="30" height="30" as="geometry">
            <mxRectangle width="30" height="30" as="alternateBounds" />
          </mxGeometry>
        </mxCell>
        <mxCell id="5jTrSMMZhgUHgdLPFIc2-3" value="B_Id" style="shape=partialRectangle;connectable=0;fillColor=none;top=0;left=0;bottom=0;right=0;align=left;spacingLeft=6;fontStyle=5;overflow=hidden;whiteSpace=wrap;html=1;" parent="5jTrSMMZhgUHgdLPFIc2-1" vertex="1">
          <mxGeometry x="30" width="150" height="30" as="geometry">
            <mxRectangle width="150" height="30" as="alternateBounds" />
          </mxGeometry>
        </mxCell>
        <mxCell id="5jTrSMMZhgUHgdLPFIc2-7" value="" style="shape=tableRow;horizontal=0;startSize=0;swimlaneHead=0;swimlaneBody=0;fillColor=none;collapsible=0;dropTarget=0;points=[[0,0.5],[1,0.5]];portConstraint=eastwest;top=0;left=0;right=0;bottom=1;" parent="e_tAOcpKbbN_s6QhWADa-1" vertex="1">
          <mxGeometry y="150" width="180" height="30" as="geometry" />
        </mxCell>
        <mxCell id="5jTrSMMZhgUHgdLPFIc2-8" value="FK" style="shape=partialRectangle;connectable=0;fillColor=none;top=0;left=0;bottom=0;right=0;fontStyle=1;overflow=hidden;whiteSpace=wrap;html=1;" parent="5jTrSMMZhgUHgdLPFIc2-7" vertex="1">
          <mxGeometry width="30" height="30" as="geometry">
            <mxRectangle width="30" height="30" as="alternateBounds" />
          </mxGeometry>
        </mxCell>
        <mxCell id="5jTrSMMZhgUHgdLPFIc2-9" value="In_Id" style="shape=partialRectangle;connectable=0;fillColor=none;top=0;left=0;bottom=0;right=0;align=left;spacingLeft=6;fontStyle=5;overflow=hidden;whiteSpace=wrap;html=1;" parent="5jTrSMMZhgUHgdLPFIc2-7" vertex="1">
          <mxGeometry x="30" width="150" height="30" as="geometry">
            <mxRectangle width="150" height="30" as="alternateBounds" />
          </mxGeometry>
        </mxCell>
        <mxCell id="e_tAOcpKbbN_s6QhWADa-5" value="" style="shape=tableRow;horizontal=0;startSize=0;swimlaneHead=0;swimlaneBody=0;fillColor=none;collapsible=0;dropTarget=0;points=[[0,0.5],[1,0.5]];portConstraint=eastwest;top=0;left=0;right=0;bottom=0;" parent="e_tAOcpKbbN_s6QhWADa-1" vertex="1">
          <mxGeometry y="180" width="180" height="30" as="geometry" />
        </mxCell>
        <mxCell id="e_tAOcpKbbN_s6QhWADa-6" value="" style="shape=partialRectangle;connectable=0;fillColor=none;top=0;left=0;bottom=0;right=0;editable=1;overflow=hidden;whiteSpace=wrap;html=1;" parent="e_tAOcpKbbN_s6QhWADa-5" vertex="1">
          <mxGeometry width="30" height="30" as="geometry">
            <mxRectangle width="30" height="30" as="alternateBounds" />
          </mxGeometry>
        </mxCell>
        <mxCell id="e_tAOcpKbbN_s6QhWADa-7" value="name" style="shape=partialRectangle;connectable=0;fillColor=none;top=0;left=0;bottom=0;right=0;align=left;spacingLeft=6;overflow=hidden;whiteSpace=wrap;html=1;" parent="e_tAOcpKbbN_s6QhWADa-5" vertex="1">
          <mxGeometry x="30" width="150" height="30" as="geometry">
            <mxRectangle width="150" height="30" as="alternateBounds" />
          </mxGeometry>
        </mxCell>
        <mxCell id="e_tAOcpKbbN_s6QhWADa-26" value="" style="shape=tableRow;horizontal=0;startSize=0;swimlaneHead=0;swimlaneBody=0;fillColor=none;collapsible=0;dropTarget=0;points=[[0,0.5],[1,0.5]];portConstraint=eastwest;top=0;left=0;right=0;bottom=0;" parent="e_tAOcpKbbN_s6QhWADa-1" vertex="1">
          <mxGeometry y="210" width="180" height="30" as="geometry" />
        </mxCell>
        <mxCell id="e_tAOcpKbbN_s6QhWADa-27" value="" style="shape=partialRectangle;connectable=0;fillColor=none;top=0;left=0;bottom=0;right=0;editable=1;overflow=hidden;whiteSpace=wrap;html=1;" parent="e_tAOcpKbbN_s6QhWADa-26" vertex="1">
          <mxGeometry width="30" height="30" as="geometry">
            <mxRectangle width="30" height="30" as="alternateBounds" />
          </mxGeometry>
        </mxCell>
        <mxCell id="e_tAOcpKbbN_s6QhWADa-28" value="gender" style="shape=partialRectangle;connectable=0;fillColor=none;top=0;left=0;bottom=0;right=0;align=left;spacingLeft=6;overflow=hidden;whiteSpace=wrap;html=1;" parent="e_tAOcpKbbN_s6QhWADa-26" vertex="1">
          <mxGeometry x="30" width="150" height="30" as="geometry">
            <mxRectangle width="150" height="30" as="alternateBounds" />
          </mxGeometry>
        </mxCell>
        <mxCell id="e_tAOcpKbbN_s6QhWADa-29" value="" style="shape=tableRow;horizontal=0;startSize=0;swimlaneHead=0;swimlaneBody=0;fillColor=none;collapsible=0;dropTarget=0;points=[[0,0.5],[1,0.5]];portConstraint=eastwest;top=0;left=0;right=0;bottom=0;" parent="e_tAOcpKbbN_s6QhWADa-1" vertex="1">
          <mxGeometry y="240" width="180" height="30" as="geometry" />
        </mxCell>
        <mxCell id="e_tAOcpKbbN_s6QhWADa-30" value="" style="shape=partialRectangle;connectable=0;fillColor=none;top=0;left=0;bottom=0;right=0;editable=1;overflow=hidden;whiteSpace=wrap;html=1;" parent="e_tAOcpKbbN_s6QhWADa-29" vertex="1">
          <mxGeometry width="30" height="30" as="geometry">
            <mxRectangle width="30" height="30" as="alternateBounds" />
          </mxGeometry>
        </mxCell>
        <mxCell id="e_tAOcpKbbN_s6QhWADa-31" value="grade" style="shape=partialRectangle;connectable=0;fillColor=none;top=0;left=0;bottom=0;right=0;align=left;spacingLeft=6;overflow=hidden;whiteSpace=wrap;html=1;" parent="e_tAOcpKbbN_s6QhWADa-29" vertex="1">
          <mxGeometry x="30" width="150" height="30" as="geometry">
            <mxRectangle width="150" height="30" as="alternateBounds" />
          </mxGeometry>
        </mxCell>
        <mxCell id="d-m1fvnhjQEwDDF-BbDo-1" value="MCQ" style="shape=table;startSize=30;container=1;collapsible=1;childLayout=tableLayout;fixedRows=1;rowLines=0;fontStyle=1;align=center;resizeLast=1;html=1;" parent="1" vertex="1">
          <mxGeometry x="-920" y="100" width="180" height="90" as="geometry" />
        </mxCell>
        <mxCell id="d-m1fvnhjQEwDDF-BbDo-2" value="" style="shape=tableRow;horizontal=0;startSize=0;swimlaneHead=0;swimlaneBody=0;fillColor=none;collapsible=0;dropTarget=0;points=[[0,0.5],[1,0.5]];portConstraint=eastwest;top=0;left=0;right=0;bottom=1;" parent="d-m1fvnhjQEwDDF-BbDo-1" vertex="1">
          <mxGeometry y="30" width="180" height="30" as="geometry" />
        </mxCell>
        <mxCell id="d-m1fvnhjQEwDDF-BbDo-3" value="PK,FK" style="shape=partialRectangle;connectable=0;fillColor=none;top=0;left=0;bottom=0;right=0;fontStyle=1;overflow=hidden;whiteSpace=wrap;html=1;" parent="d-m1fvnhjQEwDDF-BbDo-2" vertex="1">
          <mxGeometry width="60" height="30" as="geometry">
            <mxRectangle width="60" height="30" as="alternateBounds" />
          </mxGeometry>
        </mxCell>
        <mxCell id="d-m1fvnhjQEwDDF-BbDo-4" value="Q_Id" style="shape=partialRectangle;connectable=0;fillColor=none;top=0;left=0;bottom=0;right=0;align=left;spacingLeft=6;fontStyle=5;overflow=hidden;whiteSpace=wrap;html=1;" parent="d-m1fvnhjQEwDDF-BbDo-2" vertex="1">
          <mxGeometry x="60" width="120" height="30" as="geometry">
            <mxRectangle width="120" height="30" as="alternateBounds" />
          </mxGeometry>
        </mxCell>
        <mxCell id="d-m1fvnhjQEwDDF-BbDo-5" value="" style="shape=tableRow;horizontal=0;startSize=0;swimlaneHead=0;swimlaneBody=0;fillColor=none;collapsible=0;dropTarget=0;points=[[0,0.5],[1,0.5]];portConstraint=eastwest;top=0;left=0;right=0;bottom=0;" parent="d-m1fvnhjQEwDDF-BbDo-1" vertex="1">
          <mxGeometry y="60" width="180" height="30" as="geometry" />
        </mxCell>
        <mxCell id="d-m1fvnhjQEwDDF-BbDo-6" value="" style="shape=partialRectangle;connectable=0;fillColor=none;top=0;left=0;bottom=0;right=0;editable=1;overflow=hidden;whiteSpace=wrap;html=1;" parent="d-m1fvnhjQEwDDF-BbDo-5" vertex="1">
          <mxGeometry width="60" height="30" as="geometry">
            <mxRectangle width="60" height="30" as="alternateBounds" />
          </mxGeometry>
        </mxCell>
        <mxCell id="d-m1fvnhjQEwDDF-BbDo-7" value="correct answer" style="shape=partialRectangle;connectable=0;fillColor=none;top=0;left=0;bottom=0;right=0;align=left;spacingLeft=6;overflow=hidden;whiteSpace=wrap;html=1;" parent="d-m1fvnhjQEwDDF-BbDo-5" vertex="1">
          <mxGeometry x="60" width="120" height="30" as="geometry">
            <mxRectangle width="120" height="30" as="alternateBounds" />
          </mxGeometry>
        </mxCell>
        <mxCell id="d-m1fvnhjQEwDDF-BbDo-14" value="T/F" style="shape=table;startSize=30;container=1;collapsible=1;childLayout=tableLayout;fixedRows=1;rowLines=0;fontStyle=1;align=center;resizeLast=1;html=1;" parent="1" vertex="1">
          <mxGeometry x="-920" y="300" width="180" height="90" as="geometry" />
        </mxCell>
        <mxCell id="d-m1fvnhjQEwDDF-BbDo-15" value="" style="shape=tableRow;horizontal=0;startSize=0;swimlaneHead=0;swimlaneBody=0;fillColor=none;collapsible=0;dropTarget=0;points=[[0,0.5],[1,0.5]];portConstraint=eastwest;top=0;left=0;right=0;bottom=1;" parent="d-m1fvnhjQEwDDF-BbDo-14" vertex="1">
          <mxGeometry y="30" width="180" height="30" as="geometry" />
        </mxCell>
        <mxCell id="d-m1fvnhjQEwDDF-BbDo-16" value="PK,FK" style="shape=partialRectangle;connectable=0;fillColor=none;top=0;left=0;bottom=0;right=0;fontStyle=1;overflow=hidden;whiteSpace=wrap;html=1;" parent="d-m1fvnhjQEwDDF-BbDo-15" vertex="1">
          <mxGeometry width="50" height="30" as="geometry">
            <mxRectangle width="50" height="30" as="alternateBounds" />
          </mxGeometry>
        </mxCell>
        <mxCell id="d-m1fvnhjQEwDDF-BbDo-17" value="Q_id" style="shape=partialRectangle;connectable=0;fillColor=none;top=0;left=0;bottom=0;right=0;align=left;spacingLeft=6;fontStyle=5;overflow=hidden;whiteSpace=wrap;html=1;" parent="d-m1fvnhjQEwDDF-BbDo-15" vertex="1">
          <mxGeometry x="50" width="130" height="30" as="geometry">
            <mxRectangle width="130" height="30" as="alternateBounds" />
          </mxGeometry>
        </mxCell>
        <mxCell id="d-m1fvnhjQEwDDF-BbDo-21" value="" style="shape=tableRow;horizontal=0;startSize=0;swimlaneHead=0;swimlaneBody=0;fillColor=none;collapsible=0;dropTarget=0;points=[[0,0.5],[1,0.5]];portConstraint=eastwest;top=0;left=0;right=0;bottom=0;" parent="d-m1fvnhjQEwDDF-BbDo-14" vertex="1">
          <mxGeometry y="60" width="180" height="30" as="geometry" />
        </mxCell>
        <mxCell id="d-m1fvnhjQEwDDF-BbDo-22" value="" style="shape=partialRectangle;connectable=0;fillColor=none;top=0;left=0;bottom=0;right=0;editable=1;overflow=hidden;whiteSpace=wrap;html=1;" parent="d-m1fvnhjQEwDDF-BbDo-21" vertex="1">
          <mxGeometry width="50" height="30" as="geometry">
            <mxRectangle width="50" height="30" as="alternateBounds" />
          </mxGeometry>
        </mxCell>
        <mxCell id="d-m1fvnhjQEwDDF-BbDo-23" value="correct answer" style="shape=partialRectangle;connectable=0;fillColor=none;top=0;left=0;bottom=0;right=0;align=left;spacingLeft=6;overflow=hidden;whiteSpace=wrap;html=1;" parent="d-m1fvnhjQEwDDF-BbDo-21" vertex="1">
          <mxGeometry x="50" width="130" height="30" as="geometry">
            <mxRectangle width="130" height="30" as="alternateBounds" />
          </mxGeometry>
        </mxCell>
        <mxCell id="d-m1fvnhjQEwDDF-BbDo-27" value="Text" style="shape=table;startSize=30;container=1;collapsible=1;childLayout=tableLayout;fixedRows=1;rowLines=0;fontStyle=1;align=center;resizeLast=1;html=1;" parent="1" vertex="1">
          <mxGeometry x="-680" y="298" width="180" height="85" as="geometry" />
        </mxCell>
        <mxCell id="d-m1fvnhjQEwDDF-BbDo-28" value="" style="shape=tableRow;horizontal=0;startSize=0;swimlaneHead=0;swimlaneBody=0;fillColor=none;collapsible=0;dropTarget=0;points=[[0,0.5],[1,0.5]];portConstraint=eastwest;top=0;left=0;right=0;bottom=1;" parent="d-m1fvnhjQEwDDF-BbDo-27" vertex="1">
          <mxGeometry y="30" width="180" height="30" as="geometry" />
        </mxCell>
        <mxCell id="d-m1fvnhjQEwDDF-BbDo-29" value="PK,FK" style="shape=partialRectangle;connectable=0;fillColor=none;top=0;left=0;bottom=0;right=0;fontStyle=1;overflow=hidden;whiteSpace=wrap;html=1;" parent="d-m1fvnhjQEwDDF-BbDo-28" vertex="1">
          <mxGeometry width="50" height="30" as="geometry">
            <mxRectangle width="50" height="30" as="alternateBounds" />
          </mxGeometry>
        </mxCell>
        <mxCell id="d-m1fvnhjQEwDDF-BbDo-30" value="Q_id" style="shape=partialRectangle;connectable=0;fillColor=none;top=0;left=0;bottom=0;right=0;align=left;spacingLeft=6;fontStyle=5;overflow=hidden;whiteSpace=wrap;html=1;" parent="d-m1fvnhjQEwDDF-BbDo-28" vertex="1">
          <mxGeometry x="50" width="130" height="30" as="geometry">
            <mxRectangle width="130" height="30" as="alternateBounds" />
          </mxGeometry>
        </mxCell>
        <mxCell id="d-m1fvnhjQEwDDF-BbDo-34" value="" style="shape=tableRow;horizontal=0;startSize=0;swimlaneHead=0;swimlaneBody=0;fillColor=none;collapsible=0;dropTarget=0;points=[[0,0.5],[1,0.5]];portConstraint=eastwest;top=0;left=0;right=0;bottom=0;" parent="d-m1fvnhjQEwDDF-BbDo-27" vertex="1">
          <mxGeometry y="60" width="180" height="25" as="geometry" />
        </mxCell>
        <mxCell id="d-m1fvnhjQEwDDF-BbDo-35" value="" style="shape=partialRectangle;connectable=0;fillColor=none;top=0;left=0;bottom=0;right=0;editable=1;overflow=hidden;whiteSpace=wrap;html=1;" parent="d-m1fvnhjQEwDDF-BbDo-34" vertex="1">
          <mxGeometry width="50" height="25" as="geometry">
            <mxRectangle width="50" height="25" as="alternateBounds" />
          </mxGeometry>
        </mxCell>
        <mxCell id="d-m1fvnhjQEwDDF-BbDo-36" value="best accepted answer" style="shape=partialRectangle;connectable=0;fillColor=none;top=0;left=0;bottom=0;right=0;align=left;spacingLeft=6;overflow=hidden;whiteSpace=wrap;html=1;" parent="d-m1fvnhjQEwDDF-BbDo-34" vertex="1">
          <mxGeometry x="50" width="130" height="25" as="geometry">
            <mxRectangle width="130" height="25" as="alternateBounds" />
          </mxGeometry>
        </mxCell>
        <mxCell id="e_DKOMnkQOCxm3o4vwxv-1" value="Intake_branch_track" style="shape=table;startSize=30;container=1;collapsible=1;childLayout=tableLayout;fixedRows=1;rowLines=0;fontStyle=1;align=center;resizeLast=1;html=1;whiteSpace=wrap;" parent="1" vertex="1">
          <mxGeometry x="560" y="260" width="180" height="120" as="geometry" />
        </mxCell>
        <mxCell id="e_DKOMnkQOCxm3o4vwxv-2" value="" style="shape=tableRow;horizontal=0;startSize=0;swimlaneHead=0;swimlaneBody=0;fillColor=none;collapsible=0;dropTarget=0;points=[[0,0.5],[1,0.5]];portConstraint=eastwest;top=0;left=0;right=0;bottom=0;html=1;" parent="e_DKOMnkQOCxm3o4vwxv-1" vertex="1">
          <mxGeometry y="30" width="180" height="30" as="geometry" />
        </mxCell>
        <mxCell id="e_DKOMnkQOCxm3o4vwxv-3" value="PK,FK1" style="shape=partialRectangle;connectable=0;fillColor=none;top=0;left=0;bottom=0;right=0;fontStyle=1;overflow=hidden;html=1;whiteSpace=wrap;" parent="e_DKOMnkQOCxm3o4vwxv-2" vertex="1">
          <mxGeometry width="60" height="30" as="geometry">
            <mxRectangle width="60" height="30" as="alternateBounds" />
          </mxGeometry>
        </mxCell>
        <mxCell id="e_DKOMnkQOCxm3o4vwxv-4" value="In_id" style="shape=partialRectangle;connectable=0;fillColor=none;top=0;left=0;bottom=0;right=0;align=left;spacingLeft=6;fontStyle=5;overflow=hidden;html=1;whiteSpace=wrap;" parent="e_DKOMnkQOCxm3o4vwxv-2" vertex="1">
          <mxGeometry x="60" width="120" height="30" as="geometry">
            <mxRectangle width="120" height="30" as="alternateBounds" />
          </mxGeometry>
        </mxCell>
        <mxCell id="e_DKOMnkQOCxm3o4vwxv-14" value="" style="shape=tableRow;horizontal=0;startSize=0;swimlaneHead=0;swimlaneBody=0;fillColor=none;collapsible=0;dropTarget=0;points=[[0,0.5],[1,0.5]];portConstraint=eastwest;top=0;left=0;right=0;bottom=1;html=1;" parent="e_DKOMnkQOCxm3o4vwxv-1" vertex="1">
          <mxGeometry y="60" width="180" height="30" as="geometry" />
        </mxCell>
        <mxCell id="e_DKOMnkQOCxm3o4vwxv-15" value="PK,FK2" style="shape=partialRectangle;connectable=0;fillColor=none;top=0;left=0;bottom=0;right=0;fontStyle=1;overflow=hidden;html=1;whiteSpace=wrap;" parent="e_DKOMnkQOCxm3o4vwxv-14" vertex="1">
          <mxGeometry width="60" height="30" as="geometry">
            <mxRectangle width="60" height="30" as="alternateBounds" />
          </mxGeometry>
        </mxCell>
        <mxCell id="e_DKOMnkQOCxm3o4vwxv-16" value="T_id" style="shape=partialRectangle;connectable=0;fillColor=none;top=0;left=0;bottom=0;right=0;align=left;spacingLeft=6;fontStyle=5;overflow=hidden;html=1;whiteSpace=wrap;" parent="e_DKOMnkQOCxm3o4vwxv-14" vertex="1">
          <mxGeometry x="60" width="120" height="30" as="geometry">
            <mxRectangle width="120" height="30" as="alternateBounds" />
          </mxGeometry>
        </mxCell>
        <mxCell id="e_DKOMnkQOCxm3o4vwxv-5" value="" style="shape=tableRow;horizontal=0;startSize=0;swimlaneHead=0;swimlaneBody=0;fillColor=none;collapsible=0;dropTarget=0;points=[[0,0.5],[1,0.5]];portConstraint=eastwest;top=0;left=0;right=0;bottom=1;html=1;" parent="e_DKOMnkQOCxm3o4vwxv-1" vertex="1">
          <mxGeometry y="90" width="180" height="30" as="geometry" />
        </mxCell>
        <mxCell id="e_DKOMnkQOCxm3o4vwxv-6" value="PK,FK3" style="shape=partialRectangle;connectable=0;fillColor=none;top=0;left=0;bottom=0;right=0;fontStyle=1;overflow=hidden;html=1;whiteSpace=wrap;" parent="e_DKOMnkQOCxm3o4vwxv-5" vertex="1">
          <mxGeometry width="60" height="30" as="geometry">
            <mxRectangle width="60" height="30" as="alternateBounds" />
          </mxGeometry>
        </mxCell>
        <mxCell id="e_DKOMnkQOCxm3o4vwxv-7" value="B_id" style="shape=partialRectangle;connectable=0;fillColor=none;top=0;left=0;bottom=0;right=0;align=left;spacingLeft=6;fontStyle=5;overflow=hidden;html=1;whiteSpace=wrap;" parent="e_DKOMnkQOCxm3o4vwxv-5" vertex="1">
          <mxGeometry x="60" width="120" height="30" as="geometry">
            <mxRectangle width="120" height="30" as="alternateBounds" />
          </mxGeometry>
        </mxCell>
        <mxCell id="e580YkdCdi4srv1nF5Vh-14" value="Exam_Question" style="shape=table;startSize=30;container=1;collapsible=1;childLayout=tableLayout;fixedRows=1;rowLines=0;fontStyle=1;align=center;resizeLast=1;html=1;whiteSpace=wrap;" parent="1" vertex="1">
          <mxGeometry x="-400" y="-110" width="180" height="120" as="geometry" />
        </mxCell>
        <mxCell id="e580YkdCdi4srv1nF5Vh-15" value="" style="shape=tableRow;horizontal=0;startSize=0;swimlaneHead=0;swimlaneBody=0;fillColor=none;collapsible=0;dropTarget=0;points=[[0,0.5],[1,0.5]];portConstraint=eastwest;top=0;left=0;right=0;bottom=0;html=1;" parent="e580YkdCdi4srv1nF5Vh-14" vertex="1">
          <mxGeometry y="30" width="180" height="30" as="geometry" />
        </mxCell>
        <mxCell id="e580YkdCdi4srv1nF5Vh-16" value="PK,FK1" style="shape=partialRectangle;connectable=0;fillColor=none;top=0;left=0;bottom=0;right=0;fontStyle=1;overflow=hidden;html=1;whiteSpace=wrap;" parent="e580YkdCdi4srv1nF5Vh-15" vertex="1">
          <mxGeometry width="60" height="30" as="geometry">
            <mxRectangle width="60" height="30" as="alternateBounds" />
          </mxGeometry>
        </mxCell>
        <mxCell id="e580YkdCdi4srv1nF5Vh-17" value="E_Id" style="shape=partialRectangle;connectable=0;fillColor=none;top=0;left=0;bottom=0;right=0;align=left;spacingLeft=6;fontStyle=5;overflow=hidden;html=1;whiteSpace=wrap;" parent="e580YkdCdi4srv1nF5Vh-15" vertex="1">
          <mxGeometry x="60" width="120" height="30" as="geometry">
            <mxRectangle width="120" height="30" as="alternateBounds" />
          </mxGeometry>
        </mxCell>
        <mxCell id="e580YkdCdi4srv1nF5Vh-18" value="" style="shape=tableRow;horizontal=0;startSize=0;swimlaneHead=0;swimlaneBody=0;fillColor=none;collapsible=0;dropTarget=0;points=[[0,0.5],[1,0.5]];portConstraint=eastwest;top=0;left=0;right=0;bottom=1;html=1;" parent="e580YkdCdi4srv1nF5Vh-14" vertex="1">
          <mxGeometry y="60" width="180" height="30" as="geometry" />
        </mxCell>
        <mxCell id="e580YkdCdi4srv1nF5Vh-19" value="PK,FK2" style="shape=partialRectangle;connectable=0;fillColor=none;top=0;left=0;bottom=0;right=0;fontStyle=1;overflow=hidden;html=1;whiteSpace=wrap;" parent="e580YkdCdi4srv1nF5Vh-18" vertex="1">
          <mxGeometry width="60" height="30" as="geometry">
            <mxRectangle width="60" height="30" as="alternateBounds" />
          </mxGeometry>
        </mxCell>
        <mxCell id="e580YkdCdi4srv1nF5Vh-20" value="Q_Id" style="shape=partialRectangle;connectable=0;fillColor=none;top=0;left=0;bottom=0;right=0;align=left;spacingLeft=6;fontStyle=5;overflow=hidden;html=1;whiteSpace=wrap;" parent="e580YkdCdi4srv1nF5Vh-18" vertex="1">
          <mxGeometry x="60" width="120" height="30" as="geometry">
            <mxRectangle width="120" height="30" as="alternateBounds" />
          </mxGeometry>
        </mxCell>
        <mxCell id="e580YkdCdi4srv1nF5Vh-21" value="" style="shape=tableRow;horizontal=0;startSize=0;swimlaneHead=0;swimlaneBody=0;fillColor=none;collapsible=0;dropTarget=0;points=[[0,0.5],[1,0.5]];portConstraint=eastwest;top=0;left=0;right=0;bottom=0;html=1;" parent="e580YkdCdi4srv1nF5Vh-14" vertex="1">
          <mxGeometry y="90" width="180" height="30" as="geometry" />
        </mxCell>
        <mxCell id="e580YkdCdi4srv1nF5Vh-22" value="" style="shape=partialRectangle;connectable=0;fillColor=none;top=0;left=0;bottom=0;right=0;editable=1;overflow=hidden;html=1;whiteSpace=wrap;" parent="e580YkdCdi4srv1nF5Vh-21" vertex="1">
          <mxGeometry width="60" height="30" as="geometry">
            <mxRectangle width="60" height="30" as="alternateBounds" />
          </mxGeometry>
        </mxCell>
        <mxCell id="e580YkdCdi4srv1nF5Vh-23" value="Mark" style="shape=partialRectangle;connectable=0;fillColor=none;top=0;left=0;bottom=0;right=0;align=left;spacingLeft=6;overflow=hidden;html=1;whiteSpace=wrap;" parent="e580YkdCdi4srv1nF5Vh-21" vertex="1">
          <mxGeometry x="60" width="120" height="30" as="geometry">
            <mxRectangle width="120" height="30" as="alternateBounds" />
          </mxGeometry>
        </mxCell>
        <mxCell id="LR9I6PwsWSezDnVNn0yo-21" style="edgeStyle=orthogonalEdgeStyle;rounded=0;orthogonalLoop=1;jettySize=auto;html=1;exitX=1;exitY=0.5;exitDx=0;exitDy=0;" edge="1" parent="1" source="hgtXjXqpbkDtfC8RqkRI-1">
          <mxGeometry relative="1" as="geometry">
            <mxPoint x="730" y="40" as="targetPoint" />
            <Array as="points">
              <mxPoint x="80" y="160" />
              <mxPoint x="800" y="160" />
              <mxPoint x="800" y="40" />
            </Array>
          </mxGeometry>
        </mxCell>
        <object label="Exam" intake_id="FK" id="hgtXjXqpbkDtfC8RqkRI-1">
          <mxCell style="shape=table;startSize=30;container=1;collapsible=1;childLayout=tableLayout;fixedRows=1;rowLines=0;fontStyle=1;align=center;resizeLast=1;html=1;" parent="1" vertex="1">
            <mxGeometry x="-100" y="-2" width="180" height="330" as="geometry">
              <mxRectangle x="30" y="40" width="70" height="30" as="alternateBounds" />
            </mxGeometry>
          </mxCell>
        </object>
        <mxCell id="nSE8sef0rnl6WeUxxISN-1" value="" style="shape=tableRow;horizontal=0;startSize=0;swimlaneHead=0;swimlaneBody=0;fillColor=none;collapsible=0;dropTarget=0;points=[[0,0.5],[1,0.5]];portConstraint=eastwest;top=0;left=0;right=0;bottom=1;" parent="hgtXjXqpbkDtfC8RqkRI-1" vertex="1">
          <mxGeometry y="30" width="180" height="30" as="geometry" />
        </mxCell>
        <mxCell id="nSE8sef0rnl6WeUxxISN-2" value="PK" style="shape=partialRectangle;connectable=0;fillColor=none;top=0;left=0;bottom=0;right=0;fontStyle=1;overflow=hidden;whiteSpace=wrap;html=1;" parent="nSE8sef0rnl6WeUxxISN-1" vertex="1">
          <mxGeometry width="30" height="30" as="geometry">
            <mxRectangle width="30" height="30" as="alternateBounds" />
          </mxGeometry>
        </mxCell>
        <mxCell id="nSE8sef0rnl6WeUxxISN-3" value="E_Id" style="shape=partialRectangle;connectable=0;fillColor=none;top=0;left=0;bottom=0;right=0;align=left;spacingLeft=6;fontStyle=5;overflow=hidden;whiteSpace=wrap;html=1;" parent="nSE8sef0rnl6WeUxxISN-1" vertex="1">
          <mxGeometry x="30" width="150" height="30" as="geometry">
            <mxRectangle width="150" height="30" as="alternateBounds" />
          </mxGeometry>
        </mxCell>
        <mxCell id="hgtXjXqpbkDtfC8RqkRI-2" value="" style="shape=tableRow;horizontal=0;startSize=0;swimlaneHead=0;swimlaneBody=0;fillColor=none;collapsible=0;dropTarget=0;points=[[0,0.5],[1,0.5]];portConstraint=eastwest;top=0;left=0;right=0;bottom=1;" parent="hgtXjXqpbkDtfC8RqkRI-1" vertex="1">
          <mxGeometry y="60" width="180" height="30" as="geometry" />
        </mxCell>
        <mxCell id="hgtXjXqpbkDtfC8RqkRI-3" value="FK" style="shape=partialRectangle;connectable=0;fillColor=none;top=0;left=0;bottom=0;right=0;fontStyle=1;overflow=hidden;whiteSpace=wrap;html=1;" parent="hgtXjXqpbkDtfC8RqkRI-2" vertex="1">
          <mxGeometry width="30" height="30" as="geometry">
            <mxRectangle width="30" height="30" as="alternateBounds" />
          </mxGeometry>
        </mxCell>
        <mxCell id="hgtXjXqpbkDtfC8RqkRI-4" value="course_Id" style="shape=partialRectangle;connectable=0;fillColor=none;top=0;left=0;bottom=0;right=0;align=left;spacingLeft=6;fontStyle=5;overflow=hidden;whiteSpace=wrap;html=1;" parent="hgtXjXqpbkDtfC8RqkRI-2" vertex="1">
          <mxGeometry x="30" width="150" height="30" as="geometry">
            <mxRectangle width="150" height="30" as="alternateBounds" />
          </mxGeometry>
        </mxCell>
        <mxCell id="hgtXjXqpbkDtfC8RqkRI-5" value="" style="shape=tableRow;horizontal=0;startSize=0;swimlaneHead=0;swimlaneBody=0;fillColor=none;collapsible=0;dropTarget=0;points=[[0,0.5],[1,0.5]];portConstraint=eastwest;top=0;left=0;right=0;bottom=0;" parent="hgtXjXqpbkDtfC8RqkRI-1" vertex="1">
          <mxGeometry y="90" width="180" height="30" as="geometry" />
        </mxCell>
        <mxCell id="hgtXjXqpbkDtfC8RqkRI-6" value="" style="shape=partialRectangle;connectable=0;fillColor=none;top=0;left=0;bottom=0;right=0;editable=1;overflow=hidden;whiteSpace=wrap;html=1;" parent="hgtXjXqpbkDtfC8RqkRI-5" vertex="1">
          <mxGeometry width="30" height="30" as="geometry">
            <mxRectangle width="30" height="30" as="alternateBounds" />
          </mxGeometry>
        </mxCell>
        <mxCell id="hgtXjXqpbkDtfC8RqkRI-7" value="exam_type" style="shape=partialRectangle;connectable=0;fillColor=none;top=0;left=0;bottom=0;right=0;align=left;spacingLeft=6;overflow=hidden;whiteSpace=wrap;html=1;" parent="hgtXjXqpbkDtfC8RqkRI-5" vertex="1">
          <mxGeometry x="30" width="150" height="30" as="geometry">
            <mxRectangle width="150" height="30" as="alternateBounds" />
          </mxGeometry>
        </mxCell>
        <mxCell id="e-sfptJcQY6X5hgWJSQ8-29" value="" style="endArrow=none;html=1;rounded=0;fontFamily=Helvetica;fontSize=12;fontColor=default;fontStyle=1;exitX=-0.001;exitY=1.01;exitDx=0;exitDy=0;exitPerimeter=0;" parent="hgtXjXqpbkDtfC8RqkRI-1" source="hgtXjXqpbkDtfC8RqkRI-5" edge="1">
          <mxGeometry width="50" height="50" relative="1" as="geometry">
            <mxPoint x="50" y="150" as="sourcePoint" />
            <mxPoint x="180" y="121" as="targetPoint" />
          </mxGeometry>
        </mxCell>
        <mxCell id="e-sfptJcQY6X5hgWJSQ8-30" value="" style="endArrow=none;html=1;rounded=0;fontFamily=Helvetica;fontSize=12;fontColor=default;fontStyle=1;" parent="1" edge="1">
          <mxGeometry width="50" height="50" relative="1" as="geometry">
            <mxPoint x="-70" y="150" as="sourcePoint" />
            <mxPoint x="-70" y="120" as="targetPoint" />
          </mxGeometry>
        </mxCell>
        <mxCell id="e-sfptJcQY6X5hgWJSQ8-31" value="&amp;nbsp;intake_id" style="text;html=1;align=center;verticalAlign=middle;resizable=0;points=[];autosize=1;strokeColor=none;fillColor=none;fontFamily=Helvetica;fontSize=12;fontColor=default;fontStyle=1;" parent="1" vertex="1">
          <mxGeometry x="-75" y="118" width="70" height="30" as="geometry" />
        </mxCell>
        <mxCell id="e-sfptJcQY6X5hgWJSQ8-32" value="FK" style="text;html=1;align=center;verticalAlign=middle;resizable=0;points=[];autosize=1;strokeColor=none;fillColor=none;fontFamily=Helvetica;fontSize=12;fontColor=default;fontStyle=1;" parent="1" vertex="1">
          <mxGeometry x="-110" y="120" width="40" height="30" as="geometry" />
        </mxCell>
        <mxCell id="e-sfptJcQY6X5hgWJSQ8-33" value="" style="endArrow=none;html=1;rounded=0;fontFamily=Helvetica;fontSize=12;fontColor=default;fontStyle=1;" parent="1" edge="1">
          <mxGeometry width="50" height="50" relative="1" as="geometry">
            <mxPoint x="-70" y="330" as="sourcePoint" />
            <mxPoint x="-70" y="150" as="targetPoint" />
          </mxGeometry>
        </mxCell>
        <mxCell id="e-sfptJcQY6X5hgWJSQ8-34" value="" style="endArrow=none;html=1;rounded=0;fontFamily=Helvetica;fontSize=12;fontColor=default;fontStyle=1;exitX=0.25;exitY=1;exitDx=0;exitDy=0;exitPerimeter=0;" parent="1" source="e-sfptJcQY6X5hgWJSQ8-32" edge="1">
          <mxGeometry width="50" height="50" relative="1" as="geometry">
            <mxPoint x="30" y="198" as="sourcePoint" />
            <mxPoint x="80" y="150" as="targetPoint" />
          </mxGeometry>
        </mxCell>
        <mxCell id="e-sfptJcQY6X5hgWJSQ8-35" value="" style="endArrow=none;html=1;rounded=0;fontFamily=Helvetica;fontSize=12;fontColor=default;fontStyle=1;" parent="1" edge="1">
          <mxGeometry width="50" height="50" relative="1" as="geometry">
            <mxPoint x="-100" y="180" as="sourcePoint" />
            <mxPoint x="80" y="180" as="targetPoint" />
          </mxGeometry>
        </mxCell>
        <mxCell id="e-sfptJcQY6X5hgWJSQ8-36" value="" style="endArrow=none;html=1;rounded=0;fontFamily=Helvetica;fontSize=12;fontColor=default;fontStyle=1;" parent="1" edge="1">
          <mxGeometry width="50" height="50" relative="1" as="geometry">
            <mxPoint x="-100" y="270" as="sourcePoint" />
            <mxPoint x="80" y="270" as="targetPoint" />
          </mxGeometry>
        </mxCell>
        <mxCell id="e-sfptJcQY6X5hgWJSQ8-37" value="" style="endArrow=none;html=1;rounded=0;fontFamily=Helvetica;fontSize=12;fontColor=default;fontStyle=1;" parent="1" edge="1">
          <mxGeometry width="50" height="50" relative="1" as="geometry">
            <mxPoint x="-100" y="240" as="sourcePoint" />
            <mxPoint x="80" y="240" as="targetPoint" />
          </mxGeometry>
        </mxCell>
        <mxCell id="e-sfptJcQY6X5hgWJSQ8-38" value="" style="endArrow=none;html=1;rounded=0;fontFamily=Helvetica;fontSize=12;fontColor=default;fontStyle=1;" parent="1" edge="1">
          <mxGeometry width="50" height="50" relative="1" as="geometry">
            <mxPoint x="-100" y="210" as="sourcePoint" />
            <mxPoint x="80" y="210" as="targetPoint" />
          </mxGeometry>
        </mxCell>
        <mxCell id="e-sfptJcQY6X5hgWJSQ8-39" value="" style="endArrow=none;html=1;rounded=0;fontFamily=Helvetica;fontSize=12;fontColor=default;fontStyle=1;" parent="1" edge="1">
          <mxGeometry width="50" height="50" relative="1" as="geometry">
            <mxPoint x="-100" y="300" as="sourcePoint" />
            <mxPoint x="80" y="300" as="targetPoint" />
          </mxGeometry>
        </mxCell>
        <mxCell id="e-sfptJcQY6X5hgWJSQ8-40" value="FK" style="text;html=1;align=center;verticalAlign=middle;resizable=0;points=[];autosize=1;strokeColor=none;fillColor=none;fontFamily=Helvetica;fontSize=12;fontColor=default;fontStyle=1;" parent="1" vertex="1">
          <mxGeometry x="-110" y="148" width="40" height="30" as="geometry" />
        </mxCell>
        <mxCell id="e-sfptJcQY6X5hgWJSQ8-41" value="FK" style="text;html=1;align=center;verticalAlign=middle;resizable=0;points=[];autosize=1;strokeColor=none;fillColor=none;fontFamily=Helvetica;fontSize=12;fontColor=default;fontStyle=1;" parent="1" vertex="1">
          <mxGeometry x="-110" y="178" width="40" height="30" as="geometry" />
        </mxCell>
        <mxCell id="e-sfptJcQY6X5hgWJSQ8-42" value="branch_id" style="text;html=1;align=center;verticalAlign=middle;resizable=0;points=[];autosize=1;strokeColor=none;fillColor=none;fontFamily=Helvetica;fontSize=12;fontColor=default;fontStyle=1;" parent="1" vertex="1">
          <mxGeometry x="-75" y="148" width="80" height="30" as="geometry" />
        </mxCell>
        <mxCell id="e-sfptJcQY6X5hgWJSQ8-43" value="track_id" style="text;html=1;align=center;verticalAlign=middle;resizable=0;points=[];autosize=1;strokeColor=none;fillColor=none;fontFamily=Helvetica;fontSize=12;fontColor=default;fontStyle=1;" parent="1" vertex="1">
          <mxGeometry x="-75" y="178" width="70" height="30" as="geometry" />
        </mxCell>
        <mxCell id="e-sfptJcQY6X5hgWJSQ8-44" value="&lt;span style=&quot;font-weight: normal;&quot;&gt;Start_time&lt;/span&gt;" style="text;html=1;align=center;verticalAlign=middle;resizable=0;points=[];autosize=1;strokeColor=none;fillColor=none;fontFamily=Helvetica;fontSize=12;fontColor=default;fontStyle=1;" parent="1" vertex="1">
          <mxGeometry x="-80" y="208" width="80" height="30" as="geometry" />
        </mxCell>
        <mxCell id="e-sfptJcQY6X5hgWJSQ8-46" value="&lt;span style=&quot;font-weight: normal;&quot;&gt;end_time&lt;/span&gt;" style="text;html=1;align=center;verticalAlign=middle;resizable=0;points=[];autosize=1;strokeColor=none;fillColor=none;fontFamily=Helvetica;fontSize=12;fontColor=default;fontStyle=1;" parent="1" vertex="1">
          <mxGeometry x="-70" y="238" width="70" height="30" as="geometry" />
        </mxCell>
        <mxCell id="e-sfptJcQY6X5hgWJSQ8-47" value="&lt;span style=&quot;font-weight: normal;&quot;&gt;exam_date&lt;/span&gt;" style="text;html=1;align=center;verticalAlign=middle;resizable=0;points=[];autosize=1;strokeColor=none;fillColor=none;fontFamily=Helvetica;fontSize=12;fontColor=default;fontStyle=1;" parent="1" vertex="1">
          <mxGeometry x="-75" y="268" width="80" height="30" as="geometry" />
        </mxCell>
        <mxCell id="e-sfptJcQY6X5hgWJSQ8-48" value="max_degree" style="text;html=1;align=center;verticalAlign=middle;resizable=0;points=[];autosize=1;strokeColor=none;fillColor=none;fontFamily=Helvetica;fontSize=12;fontColor=default;fontStyle=1;" parent="1" vertex="1">
          <mxGeometry x="-75" y="298" width="90" height="30" as="geometry" />
        </mxCell>
        <mxCell id="e-sfptJcQY6X5hgWJSQ8-50" value="Instructor_course" style="shape=table;startSize=30;container=1;collapsible=1;childLayout=tableLayout;fixedRows=1;rowLines=0;fontStyle=1;align=center;resizeLast=1;html=1;whiteSpace=wrap;" parent="1" vertex="1">
          <mxGeometry x="-330" y="510" width="180" height="110" as="geometry" />
        </mxCell>
        <mxCell id="e-sfptJcQY6X5hgWJSQ8-51" value="" style="shape=tableRow;horizontal=0;startSize=0;swimlaneHead=0;swimlaneBody=0;fillColor=none;collapsible=0;dropTarget=0;points=[[0,0.5],[1,0.5]];portConstraint=eastwest;top=0;left=0;right=0;bottom=0;html=1;" parent="e-sfptJcQY6X5hgWJSQ8-50" vertex="1">
          <mxGeometry y="30" width="180" height="30" as="geometry" />
        </mxCell>
        <mxCell id="e-sfptJcQY6X5hgWJSQ8-52" value="PK,FK1" style="shape=partialRectangle;connectable=0;fillColor=none;top=0;left=0;bottom=0;right=0;fontStyle=1;overflow=hidden;html=1;whiteSpace=wrap;" parent="e-sfptJcQY6X5hgWJSQ8-51" vertex="1">
          <mxGeometry width="60" height="30" as="geometry">
            <mxRectangle width="60" height="30" as="alternateBounds" />
          </mxGeometry>
        </mxCell>
        <mxCell id="e-sfptJcQY6X5hgWJSQ8-53" value="Ins_id" style="shape=partialRectangle;connectable=0;fillColor=none;top=0;left=0;bottom=0;right=0;align=left;spacingLeft=6;fontStyle=5;overflow=hidden;html=1;whiteSpace=wrap;" parent="e-sfptJcQY6X5hgWJSQ8-51" vertex="1">
          <mxGeometry x="60" width="120" height="30" as="geometry">
            <mxRectangle width="120" height="30" as="alternateBounds" />
          </mxGeometry>
        </mxCell>
        <mxCell id="e-sfptJcQY6X5hgWJSQ8-54" value="" style="shape=tableRow;horizontal=0;startSize=0;swimlaneHead=0;swimlaneBody=0;fillColor=none;collapsible=0;dropTarget=0;points=[[0,0.5],[1,0.5]];portConstraint=eastwest;top=0;left=0;right=0;bottom=1;html=1;" parent="e-sfptJcQY6X5hgWJSQ8-50" vertex="1">
          <mxGeometry y="60" width="180" height="20" as="geometry" />
        </mxCell>
        <mxCell id="e-sfptJcQY6X5hgWJSQ8-55" value="" style="shape=partialRectangle;connectable=0;fillColor=none;top=0;left=0;bottom=0;right=0;fontStyle=1;overflow=hidden;html=1;whiteSpace=wrap;" parent="e-sfptJcQY6X5hgWJSQ8-54" vertex="1">
          <mxGeometry width="60" height="20" as="geometry">
            <mxRectangle width="60" height="20" as="alternateBounds" />
          </mxGeometry>
        </mxCell>
        <mxCell id="e-sfptJcQY6X5hgWJSQ8-56" value="" style="shape=partialRectangle;connectable=0;fillColor=none;top=0;left=0;bottom=0;right=0;align=left;spacingLeft=6;fontStyle=5;overflow=hidden;html=1;whiteSpace=wrap;" parent="e-sfptJcQY6X5hgWJSQ8-54" vertex="1">
          <mxGeometry x="60" width="120" height="20" as="geometry">
            <mxRectangle width="120" height="20" as="alternateBounds" />
          </mxGeometry>
        </mxCell>
        <mxCell id="e-sfptJcQY6X5hgWJSQ8-57" value="" style="shape=tableRow;horizontal=0;startSize=0;swimlaneHead=0;swimlaneBody=0;fillColor=none;collapsible=0;dropTarget=0;points=[[0,0.5],[1,0.5]];portConstraint=eastwest;top=0;left=0;right=0;bottom=1;html=1;" parent="e-sfptJcQY6X5hgWJSQ8-50" vertex="1">
          <mxGeometry y="80" width="180" height="30" as="geometry" />
        </mxCell>
        <mxCell id="e-sfptJcQY6X5hgWJSQ8-58" value="PK,FK2" style="shape=partialRectangle;connectable=0;fillColor=none;top=0;left=0;bottom=0;right=0;fontStyle=1;overflow=hidden;html=1;whiteSpace=wrap;" parent="e-sfptJcQY6X5hgWJSQ8-57" vertex="1">
          <mxGeometry width="60" height="30" as="geometry">
            <mxRectangle width="60" height="30" as="alternateBounds" />
          </mxGeometry>
        </mxCell>
        <mxCell id="e-sfptJcQY6X5hgWJSQ8-59" value="C_id" style="shape=partialRectangle;connectable=0;fillColor=none;top=0;left=0;bottom=0;right=0;align=left;spacingLeft=6;fontStyle=5;overflow=hidden;html=1;whiteSpace=wrap;" parent="e-sfptJcQY6X5hgWJSQ8-57" vertex="1">
          <mxGeometry x="60" width="120" height="30" as="geometry">
            <mxRectangle width="120" height="30" as="alternateBounds" />
          </mxGeometry>
        </mxCell>
        <mxCell id="e-sfptJcQY6X5hgWJSQ8-99" style="edgeStyle=orthogonalEdgeStyle;rounded=0;orthogonalLoop=1;jettySize=auto;html=1;entryX=1;entryY=0.5;entryDx=0;entryDy=0;fontFamily=Helvetica;fontSize=12;fontColor=default;fontStyle=1;exitX=0;exitY=0.5;exitDx=0;exitDy=0;" parent="1" source="e-sfptJcQY6X5hgWJSQ8-86" target="lPMgVroHek3oW04ZQoGf-105" edge="1">
          <mxGeometry relative="1" as="geometry" />
        </mxCell>
        <mxCell id="e-sfptJcQY6X5hgWJSQ8-82" value="Questions" style="shape=table;startSize=30;container=1;collapsible=1;childLayout=tableLayout;fixedRows=1;rowLines=0;fontStyle=1;align=center;resizeLast=1;html=1;" parent="1" vertex="1">
          <mxGeometry x="-1040" y="-225" width="180" height="180" as="geometry" />
        </mxCell>
        <mxCell id="e-sfptJcQY6X5hgWJSQ8-83" value="" style="shape=tableRow;horizontal=0;startSize=0;swimlaneHead=0;swimlaneBody=0;fillColor=none;collapsible=0;dropTarget=0;points=[[0,0.5],[1,0.5]];portConstraint=eastwest;top=0;left=0;right=0;bottom=1;" parent="e-sfptJcQY6X5hgWJSQ8-82" vertex="1">
          <mxGeometry y="30" width="180" height="30" as="geometry" />
        </mxCell>
        <mxCell id="e-sfptJcQY6X5hgWJSQ8-84" value="PK" style="shape=partialRectangle;connectable=0;fillColor=none;top=0;left=0;bottom=0;right=0;fontStyle=1;overflow=hidden;whiteSpace=wrap;html=1;" parent="e-sfptJcQY6X5hgWJSQ8-83" vertex="1">
          <mxGeometry width="30" height="30" as="geometry">
            <mxRectangle width="30" height="30" as="alternateBounds" />
          </mxGeometry>
        </mxCell>
        <mxCell id="e-sfptJcQY6X5hgWJSQ8-85" value="Q_id" style="shape=partialRectangle;connectable=0;fillColor=none;top=0;left=0;bottom=0;right=0;align=left;spacingLeft=6;fontStyle=5;overflow=hidden;whiteSpace=wrap;html=1;" parent="e-sfptJcQY6X5hgWJSQ8-83" vertex="1">
          <mxGeometry x="30" width="150" height="30" as="geometry">
            <mxRectangle width="150" height="30" as="alternateBounds" />
          </mxGeometry>
        </mxCell>
        <mxCell id="e-sfptJcQY6X5hgWJSQ8-86" value="" style="shape=tableRow;horizontal=0;startSize=0;swimlaneHead=0;swimlaneBody=0;fillColor=none;collapsible=0;dropTarget=0;points=[[0,0.5],[1,0.5]];portConstraint=eastwest;top=0;left=0;right=0;bottom=0;" parent="e-sfptJcQY6X5hgWJSQ8-82" vertex="1">
          <mxGeometry y="60" width="180" height="30" as="geometry" />
        </mxCell>
        <mxCell id="e-sfptJcQY6X5hgWJSQ8-87" value="&lt;b&gt;FK&lt;/b&gt;" style="shape=partialRectangle;connectable=0;fillColor=none;top=0;left=0;bottom=0;right=0;editable=1;overflow=hidden;whiteSpace=wrap;html=1;" parent="e-sfptJcQY6X5hgWJSQ8-86" vertex="1">
          <mxGeometry width="30" height="30" as="geometry">
            <mxRectangle width="30" height="30" as="alternateBounds" />
          </mxGeometry>
        </mxCell>
        <mxCell id="e-sfptJcQY6X5hgWJSQ8-88" value="&lt;b&gt;&lt;u&gt;course_id&lt;/u&gt;&lt;/b&gt;" style="shape=partialRectangle;connectable=0;fillColor=none;top=0;left=0;bottom=0;right=0;align=left;spacingLeft=6;overflow=hidden;whiteSpace=wrap;html=1;" parent="e-sfptJcQY6X5hgWJSQ8-86" vertex="1">
          <mxGeometry x="30" width="150" height="30" as="geometry">
            <mxRectangle width="150" height="30" as="alternateBounds" />
          </mxGeometry>
        </mxCell>
        <mxCell id="e-sfptJcQY6X5hgWJSQ8-89" value="" style="shape=tableRow;horizontal=0;startSize=0;swimlaneHead=0;swimlaneBody=0;fillColor=none;collapsible=0;dropTarget=0;points=[[0,0.5],[1,0.5]];portConstraint=eastwest;top=0;left=0;right=0;bottom=0;" parent="e-sfptJcQY6X5hgWJSQ8-82" vertex="1">
          <mxGeometry y="90" width="180" height="30" as="geometry" />
        </mxCell>
        <mxCell id="e-sfptJcQY6X5hgWJSQ8-90" value="" style="shape=partialRectangle;connectable=0;fillColor=none;top=0;left=0;bottom=0;right=0;editable=1;overflow=hidden;whiteSpace=wrap;html=1;" parent="e-sfptJcQY6X5hgWJSQ8-89" vertex="1">
          <mxGeometry width="30" height="30" as="geometry">
            <mxRectangle width="30" height="30" as="alternateBounds" />
          </mxGeometry>
        </mxCell>
        <mxCell id="e-sfptJcQY6X5hgWJSQ8-91" value="question_text" style="shape=partialRectangle;connectable=0;fillColor=none;top=0;left=0;bottom=0;right=0;align=left;spacingLeft=6;overflow=hidden;whiteSpace=wrap;html=1;" parent="e-sfptJcQY6X5hgWJSQ8-89" vertex="1">
          <mxGeometry x="30" width="150" height="30" as="geometry">
            <mxRectangle width="150" height="30" as="alternateBounds" />
          </mxGeometry>
        </mxCell>
        <mxCell id="e-sfptJcQY6X5hgWJSQ8-92" value="" style="shape=tableRow;horizontal=0;startSize=0;swimlaneHead=0;swimlaneBody=0;fillColor=none;collapsible=0;dropTarget=0;points=[[0,0.5],[1,0.5]];portConstraint=eastwest;top=0;left=0;right=0;bottom=0;" parent="e-sfptJcQY6X5hgWJSQ8-82" vertex="1">
          <mxGeometry y="120" width="180" height="30" as="geometry" />
        </mxCell>
        <mxCell id="e-sfptJcQY6X5hgWJSQ8-93" value="" style="shape=partialRectangle;connectable=0;fillColor=none;top=0;left=0;bottom=0;right=0;editable=1;overflow=hidden;whiteSpace=wrap;html=1;" parent="e-sfptJcQY6X5hgWJSQ8-92" vertex="1">
          <mxGeometry width="30" height="30" as="geometry">
            <mxRectangle width="30" height="30" as="alternateBounds" />
          </mxGeometry>
        </mxCell>
        <mxCell id="e-sfptJcQY6X5hgWJSQ8-94" value="question_type" style="shape=partialRectangle;connectable=0;fillColor=none;top=0;left=0;bottom=0;right=0;align=left;spacingLeft=6;overflow=hidden;whiteSpace=wrap;html=1;" parent="e-sfptJcQY6X5hgWJSQ8-92" vertex="1">
          <mxGeometry x="30" width="150" height="30" as="geometry">
            <mxRectangle width="150" height="30" as="alternateBounds" />
          </mxGeometry>
        </mxCell>
        <mxCell id="e-sfptJcQY6X5hgWJSQ8-95" value="" style="shape=tableRow;horizontal=0;startSize=0;swimlaneHead=0;swimlaneBody=0;fillColor=none;collapsible=0;dropTarget=0;points=[[0,0.5],[1,0.5]];portConstraint=eastwest;top=0;left=0;right=0;bottom=0;" parent="e-sfptJcQY6X5hgWJSQ8-82" vertex="1">
          <mxGeometry y="150" width="180" height="30" as="geometry" />
        </mxCell>
        <mxCell id="e-sfptJcQY6X5hgWJSQ8-96" value="" style="shape=partialRectangle;connectable=0;fillColor=none;top=0;left=0;bottom=0;right=0;editable=1;overflow=hidden;whiteSpace=wrap;html=1;" parent="e-sfptJcQY6X5hgWJSQ8-95" vertex="1">
          <mxGeometry width="30" height="30" as="geometry">
            <mxRectangle width="30" height="30" as="alternateBounds" />
          </mxGeometry>
        </mxCell>
        <mxCell id="e-sfptJcQY6X5hgWJSQ8-97" value="max_degree" style="shape=partialRectangle;connectable=0;fillColor=none;top=0;left=0;bottom=0;right=0;align=left;spacingLeft=6;overflow=hidden;whiteSpace=wrap;html=1;" parent="e-sfptJcQY6X5hgWJSQ8-95" vertex="1">
          <mxGeometry x="30" width="150" height="30" as="geometry">
            <mxRectangle width="150" height="30" as="alternateBounds" />
          </mxGeometry>
        </mxCell>
        <mxCell id="LR9I6PwsWSezDnVNn0yo-19" style="edgeStyle=orthogonalEdgeStyle;rounded=0;orthogonalLoop=1;jettySize=auto;html=1;exitX=1;exitY=0.5;exitDx=0;exitDy=0;entryX=1.01;entryY=-0.095;entryDx=0;entryDy=0;entryPerimeter=0;" edge="1" parent="e-sfptJcQY6X5hgWJSQ8-82" source="e-sfptJcQY6X5hgWJSQ8-83" target="e-sfptJcQY6X5hgWJSQ8-83">
          <mxGeometry relative="1" as="geometry" />
        </mxCell>
        <mxCell id="e-sfptJcQY6X5hgWJSQ8-100" style="edgeStyle=orthogonalEdgeStyle;rounded=0;orthogonalLoop=1;jettySize=auto;html=1;entryX=1;entryY=0.5;entryDx=0;entryDy=0;fontFamily=Helvetica;fontSize=12;fontColor=default;fontStyle=1;" parent="1" source="G-610gsYNSWdPGVO7RR0-5" target="nSE8sef0rnl6WeUxxISN-1" edge="1">
          <mxGeometry relative="1" as="geometry" />
        </mxCell>
        <mxCell id="e-sfptJcQY6X5hgWJSQ8-103" style="edgeStyle=orthogonalEdgeStyle;rounded=0;orthogonalLoop=1;jettySize=auto;html=1;entryX=0;entryY=0.5;entryDx=0;entryDy=0;fontFamily=Helvetica;fontSize=12;fontColor=default;fontStyle=1;" parent="1" source="lPMgVroHek3oW04ZQoGf-37" target="lPMgVroHek3oW04ZQoGf-88" edge="1">
          <mxGeometry relative="1" as="geometry" />
        </mxCell>
        <mxCell id="e-sfptJcQY6X5hgWJSQ8-106" style="edgeStyle=orthogonalEdgeStyle;rounded=0;orthogonalLoop=1;jettySize=auto;html=1;entryX=0;entryY=0.5;entryDx=0;entryDy=0;fontFamily=Helvetica;fontSize=12;fontColor=default;fontStyle=1;" parent="1" source="e580YkdCdi4srv1nF5Vh-15" target="nSE8sef0rnl6WeUxxISN-1" edge="1">
          <mxGeometry relative="1" as="geometry" />
        </mxCell>
        <mxCell id="e-sfptJcQY6X5hgWJSQ8-108" value="Student_question_exam" style="shape=table;startSize=30;container=1;collapsible=1;childLayout=tableLayout;fixedRows=1;rowLines=0;fontStyle=1;align=center;resizeLast=1;html=1;" parent="1" vertex="1">
          <mxGeometry x="-770" y="-290" width="180" height="180" as="geometry" />
        </mxCell>
        <mxCell id="e-sfptJcQY6X5hgWJSQ8-109" value="" style="shape=tableRow;horizontal=0;startSize=0;swimlaneHead=0;swimlaneBody=0;fillColor=none;collapsible=0;dropTarget=0;points=[[0,0.5],[1,0.5]];portConstraint=eastwest;top=0;left=0;right=0;bottom=1;" parent="e-sfptJcQY6X5hgWJSQ8-108" vertex="1">
          <mxGeometry y="30" width="180" height="30" as="geometry" />
        </mxCell>
        <mxCell id="e-sfptJcQY6X5hgWJSQ8-110" value="&lt;b&gt;PK,FK1&lt;/b&gt;" style="shape=partialRectangle;connectable=0;fillColor=none;top=0;left=0;bottom=0;right=0;fontStyle=1;overflow=hidden;whiteSpace=wrap;html=1;" parent="e-sfptJcQY6X5hgWJSQ8-109" vertex="1">
          <mxGeometry width="50" height="30" as="geometry">
            <mxRectangle width="50" height="30" as="alternateBounds" />
          </mxGeometry>
        </mxCell>
        <mxCell id="e-sfptJcQY6X5hgWJSQ8-111" value="&lt;u style=&quot;font-weight: 400;&quot;&gt;&lt;b&gt;student_ID&lt;/b&gt;&lt;/u&gt;" style="shape=partialRectangle;connectable=0;fillColor=none;top=0;left=0;bottom=0;right=0;align=left;spacingLeft=6;fontStyle=5;overflow=hidden;whiteSpace=wrap;html=1;" parent="e-sfptJcQY6X5hgWJSQ8-109" vertex="1">
          <mxGeometry x="50" width="130" height="30" as="geometry">
            <mxRectangle width="130" height="30" as="alternateBounds" />
          </mxGeometry>
        </mxCell>
        <mxCell id="e-sfptJcQY6X5hgWJSQ8-112" value="" style="shape=tableRow;horizontal=0;startSize=0;swimlaneHead=0;swimlaneBody=0;fillColor=none;collapsible=0;dropTarget=0;points=[[0,0.5],[1,0.5]];portConstraint=eastwest;top=0;left=0;right=0;bottom=0;" parent="e-sfptJcQY6X5hgWJSQ8-108" vertex="1">
          <mxGeometry y="60" width="180" height="30" as="geometry" />
        </mxCell>
        <mxCell id="e-sfptJcQY6X5hgWJSQ8-113" value="&lt;b&gt;PK,FK2&lt;/b&gt;" style="shape=partialRectangle;connectable=0;fillColor=none;top=0;left=0;bottom=0;right=0;editable=1;overflow=hidden;whiteSpace=wrap;html=1;" parent="e-sfptJcQY6X5hgWJSQ8-112" vertex="1">
          <mxGeometry width="50" height="30" as="geometry">
            <mxRectangle width="50" height="30" as="alternateBounds" />
          </mxGeometry>
        </mxCell>
        <mxCell id="e-sfptJcQY6X5hgWJSQ8-114" value="&lt;b style=&quot;&quot;&gt;&lt;u&gt;question_id&lt;/u&gt;&lt;/b&gt;" style="shape=partialRectangle;connectable=0;fillColor=none;top=0;left=0;bottom=0;right=0;align=left;spacingLeft=6;overflow=hidden;whiteSpace=wrap;html=1;" parent="e-sfptJcQY6X5hgWJSQ8-112" vertex="1">
          <mxGeometry x="50" width="130" height="30" as="geometry">
            <mxRectangle width="130" height="30" as="alternateBounds" />
          </mxGeometry>
        </mxCell>
        <mxCell id="e-sfptJcQY6X5hgWJSQ8-115" value="" style="shape=tableRow;horizontal=0;startSize=0;swimlaneHead=0;swimlaneBody=0;fillColor=none;collapsible=0;dropTarget=0;points=[[0,0.5],[1,0.5]];portConstraint=eastwest;top=0;left=0;right=0;bottom=0;" parent="e-sfptJcQY6X5hgWJSQ8-108" vertex="1">
          <mxGeometry y="90" width="180" height="30" as="geometry" />
        </mxCell>
        <mxCell id="e-sfptJcQY6X5hgWJSQ8-116" value="&lt;b&gt;PK,FK3&lt;/b&gt;" style="shape=partialRectangle;connectable=0;fillColor=none;top=0;left=0;bottom=0;right=0;editable=1;overflow=hidden;whiteSpace=wrap;html=1;" parent="e-sfptJcQY6X5hgWJSQ8-115" vertex="1">
          <mxGeometry width="50" height="30" as="geometry">
            <mxRectangle width="50" height="30" as="alternateBounds" />
          </mxGeometry>
        </mxCell>
        <mxCell id="e-sfptJcQY6X5hgWJSQ8-117" value="&lt;u&gt;&lt;b&gt;E_ID&lt;/b&gt;&lt;/u&gt;" style="shape=partialRectangle;connectable=0;fillColor=none;top=0;left=0;bottom=0;right=0;align=left;spacingLeft=6;overflow=hidden;whiteSpace=wrap;html=1;" parent="e-sfptJcQY6X5hgWJSQ8-115" vertex="1">
          <mxGeometry x="50" width="130" height="30" as="geometry">
            <mxRectangle width="130" height="30" as="alternateBounds" />
          </mxGeometry>
        </mxCell>
        <mxCell id="e-sfptJcQY6X5hgWJSQ8-118" value="" style="shape=tableRow;horizontal=0;startSize=0;swimlaneHead=0;swimlaneBody=0;fillColor=none;collapsible=0;dropTarget=0;points=[[0,0.5],[1,0.5]];portConstraint=eastwest;top=0;left=0;right=0;bottom=0;" parent="e-sfptJcQY6X5hgWJSQ8-108" vertex="1">
          <mxGeometry y="120" width="180" height="30" as="geometry" />
        </mxCell>
        <mxCell id="e-sfptJcQY6X5hgWJSQ8-119" value="" style="shape=partialRectangle;connectable=0;fillColor=none;top=0;left=0;bottom=0;right=0;editable=1;overflow=hidden;whiteSpace=wrap;html=1;" parent="e-sfptJcQY6X5hgWJSQ8-118" vertex="1">
          <mxGeometry width="50" height="30" as="geometry">
            <mxRectangle width="50" height="30" as="alternateBounds" />
          </mxGeometry>
        </mxCell>
        <mxCell id="e-sfptJcQY6X5hgWJSQ8-120" value="student_ans" style="shape=partialRectangle;connectable=0;fillColor=none;top=0;left=0;bottom=0;right=0;align=left;spacingLeft=6;overflow=hidden;whiteSpace=wrap;html=1;" parent="e-sfptJcQY6X5hgWJSQ8-118" vertex="1">
          <mxGeometry x="50" width="130" height="30" as="geometry">
            <mxRectangle width="130" height="30" as="alternateBounds" />
          </mxGeometry>
        </mxCell>
        <mxCell id="e-sfptJcQY6X5hgWJSQ8-139" value="" style="shape=tableRow;horizontal=0;startSize=0;swimlaneHead=0;swimlaneBody=0;fillColor=none;collapsible=0;dropTarget=0;points=[[0,0.5],[1,0.5]];portConstraint=eastwest;top=0;left=0;right=0;bottom=0;" parent="e-sfptJcQY6X5hgWJSQ8-108" vertex="1">
          <mxGeometry y="150" width="180" height="30" as="geometry" />
        </mxCell>
        <mxCell id="e-sfptJcQY6X5hgWJSQ8-140" value="" style="shape=partialRectangle;connectable=0;fillColor=none;top=0;left=0;bottom=0;right=0;editable=1;overflow=hidden;whiteSpace=wrap;html=1;" parent="e-sfptJcQY6X5hgWJSQ8-139" vertex="1">
          <mxGeometry width="50" height="30" as="geometry">
            <mxRectangle width="50" height="30" as="alternateBounds" />
          </mxGeometry>
        </mxCell>
        <mxCell id="e-sfptJcQY6X5hgWJSQ8-141" value="iscorrect_BIT" style="shape=partialRectangle;connectable=0;fillColor=none;top=0;left=0;bottom=0;right=0;align=left;spacingLeft=6;overflow=hidden;whiteSpace=wrap;html=1;" parent="e-sfptJcQY6X5hgWJSQ8-139" vertex="1">
          <mxGeometry x="50" width="130" height="30" as="geometry">
            <mxRectangle width="130" height="30" as="alternateBounds" />
          </mxGeometry>
        </mxCell>
        <mxCell id="e-sfptJcQY6X5hgWJSQ8-142" style="edgeStyle=orthogonalEdgeStyle;rounded=0;orthogonalLoop=1;jettySize=auto;html=1;entryX=0;entryY=0.5;entryDx=0;entryDy=0;fontFamily=Helvetica;fontSize=12;fontColor=default;fontStyle=1;" parent="1" source="e-sfptJcQY6X5hgWJSQ8-109" target="e_tAOcpKbbN_s6QhWADa-2" edge="1">
          <mxGeometry relative="1" as="geometry" />
        </mxCell>
        <mxCell id="e-sfptJcQY6X5hgWJSQ8-143" style="edgeStyle=orthogonalEdgeStyle;rounded=0;orthogonalLoop=1;jettySize=auto;html=1;entryX=-0.013;entryY=0.833;entryDx=0;entryDy=0;entryPerimeter=0;fontFamily=Helvetica;fontSize=12;fontColor=default;fontStyle=1;" parent="1" source="e-sfptJcQY6X5hgWJSQ8-115" target="e580YkdCdi4srv1nF5Vh-15" edge="1">
          <mxGeometry relative="1" as="geometry" />
        </mxCell>
        <mxCell id="e-sfptJcQY6X5hgWJSQ8-144" style="edgeStyle=orthogonalEdgeStyle;rounded=0;orthogonalLoop=1;jettySize=auto;html=1;entryX=1;entryY=0.5;entryDx=0;entryDy=0;fontFamily=Helvetica;fontSize=12;fontColor=default;fontStyle=1;" parent="1" source="e-sfptJcQY6X5hgWJSQ8-112" target="e-sfptJcQY6X5hgWJSQ8-83" edge="1">
          <mxGeometry relative="1" as="geometry" />
        </mxCell>
        <mxCell id="e-sfptJcQY6X5hgWJSQ8-147" value="student_exam" style="shape=table;startSize=30;container=1;collapsible=1;childLayout=tableLayout;fixedRows=1;rowLines=0;fontStyle=1;align=center;resizeLast=1;html=1;" parent="1" vertex="1">
          <mxGeometry x="180" y="-410" width="180" height="180" as="geometry" />
        </mxCell>
        <mxCell id="e-sfptJcQY6X5hgWJSQ8-148" value="" style="shape=tableRow;horizontal=0;startSize=0;swimlaneHead=0;swimlaneBody=0;fillColor=none;collapsible=0;dropTarget=0;points=[[0,0.5],[1,0.5]];portConstraint=eastwest;top=0;left=0;right=0;bottom=1;" parent="e-sfptJcQY6X5hgWJSQ8-147" vertex="1">
          <mxGeometry y="30" width="180" height="30" as="geometry" />
        </mxCell>
        <mxCell id="e-sfptJcQY6X5hgWJSQ8-149" value="PK,FK" style="shape=partialRectangle;connectable=0;fillColor=none;top=0;left=0;bottom=0;right=0;fontStyle=1;overflow=hidden;whiteSpace=wrap;html=1;" parent="e-sfptJcQY6X5hgWJSQ8-148" vertex="1">
          <mxGeometry width="50.000000000000455" height="30" as="geometry">
            <mxRectangle width="50.000000000000455" height="30" as="alternateBounds" />
          </mxGeometry>
        </mxCell>
        <mxCell id="e-sfptJcQY6X5hgWJSQ8-150" value="student_id" style="shape=partialRectangle;connectable=0;fillColor=none;top=0;left=0;bottom=0;right=0;align=left;spacingLeft=6;fontStyle=5;overflow=hidden;whiteSpace=wrap;html=1;" parent="e-sfptJcQY6X5hgWJSQ8-148" vertex="1">
          <mxGeometry x="50.000000000000455" width="129.99999999999955" height="30" as="geometry">
            <mxRectangle width="129.99999999999955" height="30" as="alternateBounds" />
          </mxGeometry>
        </mxCell>
        <mxCell id="e-sfptJcQY6X5hgWJSQ8-151" value="" style="shape=tableRow;horizontal=0;startSize=0;swimlaneHead=0;swimlaneBody=0;fillColor=none;collapsible=0;dropTarget=0;points=[[0,0.5],[1,0.5]];portConstraint=eastwest;top=0;left=0;right=0;bottom=0;" parent="e-sfptJcQY6X5hgWJSQ8-147" vertex="1">
          <mxGeometry y="60" width="180" height="30" as="geometry" />
        </mxCell>
        <mxCell id="e-sfptJcQY6X5hgWJSQ8-152" value="&lt;b&gt;PK,FK&lt;/b&gt;" style="shape=partialRectangle;connectable=0;fillColor=none;top=0;left=0;bottom=0;right=0;editable=1;overflow=hidden;whiteSpace=wrap;html=1;" parent="e-sfptJcQY6X5hgWJSQ8-151" vertex="1">
          <mxGeometry width="50.000000000000455" height="30" as="geometry">
            <mxRectangle width="50.000000000000455" height="30" as="alternateBounds" />
          </mxGeometry>
        </mxCell>
        <mxCell id="e-sfptJcQY6X5hgWJSQ8-153" value="&lt;u&gt;&lt;b&gt;exam_id&lt;/b&gt;&lt;/u&gt;" style="shape=partialRectangle;connectable=0;fillColor=none;top=0;left=0;bottom=0;right=0;align=left;spacingLeft=6;overflow=hidden;whiteSpace=wrap;html=1;" parent="e-sfptJcQY6X5hgWJSQ8-151" vertex="1">
          <mxGeometry x="50.000000000000455" width="129.99999999999955" height="30" as="geometry">
            <mxRectangle width="129.99999999999955" height="30" as="alternateBounds" />
          </mxGeometry>
        </mxCell>
        <mxCell id="e-sfptJcQY6X5hgWJSQ8-154" value="" style="shape=tableRow;horizontal=0;startSize=0;swimlaneHead=0;swimlaneBody=0;fillColor=none;collapsible=0;dropTarget=0;points=[[0,0.5],[1,0.5]];portConstraint=eastwest;top=0;left=0;right=0;bottom=0;" parent="e-sfptJcQY6X5hgWJSQ8-147" vertex="1">
          <mxGeometry y="90" width="180" height="30" as="geometry" />
        </mxCell>
        <mxCell id="e-sfptJcQY6X5hgWJSQ8-155" value="" style="shape=partialRectangle;connectable=0;fillColor=none;top=0;left=0;bottom=0;right=0;editable=1;overflow=hidden;whiteSpace=wrap;html=1;" parent="e-sfptJcQY6X5hgWJSQ8-154" vertex="1">
          <mxGeometry width="50.000000000000455" height="30" as="geometry">
            <mxRectangle width="50.000000000000455" height="30" as="alternateBounds" />
          </mxGeometry>
        </mxCell>
        <mxCell id="e-sfptJcQY6X5hgWJSQ8-156" value="total_marks" style="shape=partialRectangle;connectable=0;fillColor=none;top=0;left=0;bottom=0;right=0;align=left;spacingLeft=6;overflow=hidden;whiteSpace=wrap;html=1;" parent="e-sfptJcQY6X5hgWJSQ8-154" vertex="1">
          <mxGeometry x="50.000000000000455" width="129.99999999999955" height="30" as="geometry">
            <mxRectangle width="129.99999999999955" height="30" as="alternateBounds" />
          </mxGeometry>
        </mxCell>
        <mxCell id="e-sfptJcQY6X5hgWJSQ8-157" value="" style="shape=tableRow;horizontal=0;startSize=0;swimlaneHead=0;swimlaneBody=0;fillColor=none;collapsible=0;dropTarget=0;points=[[0,0.5],[1,0.5]];portConstraint=eastwest;top=0;left=0;right=0;bottom=0;" parent="e-sfptJcQY6X5hgWJSQ8-147" vertex="1">
          <mxGeometry y="120" width="180" height="30" as="geometry" />
        </mxCell>
        <mxCell id="e-sfptJcQY6X5hgWJSQ8-158" value="" style="shape=partialRectangle;connectable=0;fillColor=none;top=0;left=0;bottom=0;right=0;editable=1;overflow=hidden;whiteSpace=wrap;html=1;" parent="e-sfptJcQY6X5hgWJSQ8-157" vertex="1">
          <mxGeometry width="50.000000000000455" height="30" as="geometry">
            <mxRectangle width="50.000000000000455" height="30" as="alternateBounds" />
          </mxGeometry>
        </mxCell>
        <mxCell id="e-sfptJcQY6X5hgWJSQ8-159" value="obtain_marks" style="shape=partialRectangle;connectable=0;fillColor=none;top=0;left=0;bottom=0;right=0;align=left;spacingLeft=6;overflow=hidden;whiteSpace=wrap;html=1;" parent="e-sfptJcQY6X5hgWJSQ8-157" vertex="1">
          <mxGeometry x="50.000000000000455" width="129.99999999999955" height="30" as="geometry">
            <mxRectangle width="129.99999999999955" height="30" as="alternateBounds" />
          </mxGeometry>
        </mxCell>
        <mxCell id="e-sfptJcQY6X5hgWJSQ8-191" value="" style="shape=tableRow;horizontal=0;startSize=0;swimlaneHead=0;swimlaneBody=0;fillColor=none;collapsible=0;dropTarget=0;points=[[0,0.5],[1,0.5]];portConstraint=eastwest;top=0;left=0;right=0;bottom=0;" parent="1" vertex="1">
          <mxGeometry x="-950" y="-410" width="180" height="30" as="geometry" />
        </mxCell>
        <mxCell id="e-sfptJcQY6X5hgWJSQ8-192" value="" style="shape=partialRectangle;connectable=0;fillColor=none;top=0;left=0;bottom=0;right=0;editable=1;overflow=hidden;whiteSpace=wrap;html=1;" parent="e-sfptJcQY6X5hgWJSQ8-191" vertex="1">
          <mxGeometry width="30" height="30" as="geometry">
            <mxRectangle width="30" height="30" as="alternateBounds" />
          </mxGeometry>
        </mxCell>
        <mxCell id="LR9I6PwsWSezDnVNn0yo-1" style="edgeStyle=orthogonalEdgeStyle;rounded=0;orthogonalLoop=1;jettySize=auto;html=1;exitX=0;exitY=0.5;exitDx=0;exitDy=0;entryX=0;entryY=0.5;entryDx=0;entryDy=0;" edge="1" parent="1">
          <mxGeometry relative="1" as="geometry">
            <mxPoint x="560" y="300" as="sourcePoint" />
            <mxPoint x="249.99999999999955" y="68" as="targetPoint" />
            <Array as="points">
              <mxPoint x="520" y="300" />
              <mxPoint x="520" y="185" />
              <mxPoint x="230" y="185" />
              <mxPoint x="230" y="68" />
            </Array>
          </mxGeometry>
        </mxCell>
        <mxCell id="LR9I6PwsWSezDnVNn0yo-2" style="edgeStyle=orthogonalEdgeStyle;rounded=0;orthogonalLoop=1;jettySize=auto;html=1;exitX=1;exitY=0.5;exitDx=0;exitDy=0;entryX=1;entryY=0.5;entryDx=0;entryDy=0;" edge="1" parent="1" source="e_DKOMnkQOCxm3o4vwxv-5" target="lPMgVroHek3oW04ZQoGf-89">
          <mxGeometry relative="1" as="geometry" />
        </mxCell>
        <mxCell id="LR9I6PwsWSezDnVNn0yo-3" style="edgeStyle=orthogonalEdgeStyle;rounded=0;orthogonalLoop=1;jettySize=auto;html=1;exitX=1;exitY=0.5;exitDx=0;exitDy=0;entryX=1;entryY=0.5;entryDx=0;entryDy=0;" edge="1" parent="1" source="e_DKOMnkQOCxm3o4vwxv-14" target="lPMgVroHek3oW04ZQoGf-76">
          <mxGeometry relative="1" as="geometry" />
        </mxCell>
        <mxCell id="LR9I6PwsWSezDnVNn0yo-4" style="edgeStyle=orthogonalEdgeStyle;rounded=0;orthogonalLoop=1;jettySize=auto;html=1;exitX=1;exitY=0.5;exitDx=0;exitDy=0;entryX=1.011;entryY=0.178;entryDx=0;entryDy=0;entryPerimeter=0;" edge="1" parent="1" source="G-610gsYNSWdPGVO7RR0-18" target="lPMgVroHek3oW04ZQoGf-89">
          <mxGeometry relative="1" as="geometry">
            <mxPoint x="1000" y="30" as="targetPoint" />
            <Array as="points">
              <mxPoint x="1000" y="695" />
              <mxPoint x="1000" y="33" />
            </Array>
          </mxGeometry>
        </mxCell>
        <mxCell id="LR9I6PwsWSezDnVNn0yo-5" style="edgeStyle=orthogonalEdgeStyle;rounded=0;orthogonalLoop=1;jettySize=auto;html=1;exitX=1;exitY=0.5;exitDx=0;exitDy=0;entryX=1;entryY=0.5;entryDx=0;entryDy=0;" edge="1" parent="1" source="G-610gsYNSWdPGVO7RR0-21" target="1q94uHZ-QxWiK4zQhJO--2">
          <mxGeometry relative="1" as="geometry" />
        </mxCell>
        <mxCell id="LR9I6PwsWSezDnVNn0yo-7" style="edgeStyle=orthogonalEdgeStyle;rounded=0;orthogonalLoop=1;jettySize=auto;html=1;exitX=0;exitY=0.5;exitDx=0;exitDy=0;entryX=1;entryY=0.5;entryDx=0;entryDy=0;" edge="1" parent="1" source="G-610gsYNSWdPGVO7RR0-8" target="K4fKmmMY9q8T4BV-W0GV-2">
          <mxGeometry relative="1" as="geometry" />
        </mxCell>
        <mxCell id="LR9I6PwsWSezDnVNn0yo-8" style="edgeStyle=orthogonalEdgeStyle;rounded=0;orthogonalLoop=1;jettySize=auto;html=1;exitX=1;exitY=0.5;exitDx=0;exitDy=0;entryX=0;entryY=0.5;entryDx=0;entryDy=0;" edge="1" parent="1" source="yMbdt1dhZqDN_mu69WBK-7" target="1q94uHZ-QxWiK4zQhJO--2">
          <mxGeometry relative="1" as="geometry">
            <Array as="points">
              <mxPoint x="80" y="525" />
            </Array>
          </mxGeometry>
        </mxCell>
        <mxCell id="LR9I6PwsWSezDnVNn0yo-9" style="edgeStyle=orthogonalEdgeStyle;rounded=0;orthogonalLoop=1;jettySize=auto;html=1;exitX=1;exitY=0.5;exitDx=0;exitDy=0;entryX=0;entryY=0.5;entryDx=0;entryDy=0;" edge="1" parent="1" source="yMbdt1dhZqDN_mu69WBK-7" target="lPMgVroHek3oW04ZQoGf-76">
          <mxGeometry relative="1" as="geometry">
            <mxPoint x="39.999999999999545" y="520" as="sourcePoint" />
            <mxPoint x="740" y="525" as="targetPoint" />
            <Array as="points">
              <mxPoint x="80" y="550" />
              <mxPoint x="110" y="550" />
              <mxPoint x="110" y="780" />
              <mxPoint x="730" y="780" />
              <mxPoint x="730" y="525" />
            </Array>
          </mxGeometry>
        </mxCell>
        <mxCell id="LR9I6PwsWSezDnVNn0yo-10" style="edgeStyle=orthogonalEdgeStyle;rounded=0;orthogonalLoop=1;jettySize=auto;html=1;exitX=1;exitY=0.5;exitDx=0;exitDy=0;entryX=-0.017;entryY=0.178;entryDx=0;entryDy=0;entryPerimeter=0;" edge="1" parent="1" source="Tp9vlDAihFM69ri6z9Ld-20" target="lPMgVroHek3oW04ZQoGf-37">
          <mxGeometry relative="1" as="geometry">
            <mxPoint x="120" as="targetPoint" />
            <Array as="points">
              <mxPoint x="130" y="575" />
              <mxPoint x="130" y="73" />
              <mxPoint x="247" y="73" />
            </Array>
          </mxGeometry>
        </mxCell>
        <mxCell id="LR9I6PwsWSezDnVNn0yo-11" style="edgeStyle=orthogonalEdgeStyle;rounded=0;orthogonalLoop=1;jettySize=auto;html=1;entryX=0;entryY=0.5;entryDx=0;entryDy=0;exitX=1;exitY=0.5;exitDx=0;exitDy=0;" edge="1" parent="1" source="w_jT_pPwIlXG8MAN7bib-2" target="lPMgVroHek3oW04ZQoGf-89">
          <mxGeometry relative="1" as="geometry">
            <mxPoint x="510" y="-60" as="targetPoint" />
            <mxPoint x="80" y="512" as="sourcePoint" />
            <Array as="points">
              <mxPoint x="190" y="605" />
              <mxPoint x="190" y="830" />
              <mxPoint x="1035" y="830" />
              <mxPoint x="1035" y="-50" />
              <mxPoint x="520" y="-50" />
              <mxPoint x="520" y="43" />
            </Array>
          </mxGeometry>
        </mxCell>
        <mxCell id="LR9I6PwsWSezDnVNn0yo-13" style="edgeStyle=orthogonalEdgeStyle;rounded=0;orthogonalLoop=1;jettySize=auto;html=1;exitX=1;exitY=0.5;exitDx=0;exitDy=0;entryX=0;entryY=0.5;entryDx=0;entryDy=0;" edge="1" parent="1" source="e580YkdCdi4srv1nF5Vh-18" target="e-sfptJcQY6X5hgWJSQ8-83">
          <mxGeometry relative="1" as="geometry">
            <mxPoint x="-200" y="160.00000000000023" as="targetPoint" />
            <Array as="points">
              <mxPoint x="-200" y="-35" />
              <mxPoint x="-200" y="40" />
              <mxPoint x="-1060" y="40" />
              <mxPoint x="-1060" y="-180" />
            </Array>
          </mxGeometry>
        </mxCell>
        <mxCell id="LR9I6PwsWSezDnVNn0yo-15" style="edgeStyle=orthogonalEdgeStyle;rounded=0;orthogonalLoop=1;jettySize=auto;html=1;exitX=0;exitY=0.5;exitDx=0;exitDy=0;entryX=0;entryY=0.5;entryDx=0;entryDy=0;" edge="1" parent="1" source="d-m1fvnhjQEwDDF-BbDo-15" target="e-sfptJcQY6X5hgWJSQ8-83">
          <mxGeometry relative="1" as="geometry">
            <mxPoint x="-1090" y="-170" as="targetPoint" />
            <Array as="points">
              <mxPoint x="-1080" y="345" />
              <mxPoint x="-1080" y="-180" />
            </Array>
          </mxGeometry>
        </mxCell>
        <mxCell id="LR9I6PwsWSezDnVNn0yo-16" style="edgeStyle=orthogonalEdgeStyle;rounded=0;orthogonalLoop=1;jettySize=auto;html=1;exitX=0;exitY=0.5;exitDx=0;exitDy=0;" edge="1" parent="1" source="d-m1fvnhjQEwDDF-BbDo-28" target="e-sfptJcQY6X5hgWJSQ8-83">
          <mxGeometry relative="1" as="geometry">
            <Array as="points">
              <mxPoint x="-700" y="343" />
              <mxPoint x="-700" y="420" />
              <mxPoint x="-1140" y="420" />
              <mxPoint x="-1140" y="-180" />
            </Array>
          </mxGeometry>
        </mxCell>
        <mxCell id="LR9I6PwsWSezDnVNn0yo-17" style="edgeStyle=orthogonalEdgeStyle;rounded=0;orthogonalLoop=1;jettySize=auto;html=1;exitX=0;exitY=0.5;exitDx=0;exitDy=0;entryX=1;entryY=0.5;entryDx=0;entryDy=0;" edge="1" parent="1" source="lPMgVroHek3oW04ZQoGf-2" target="d-m1fvnhjQEwDDF-BbDo-2">
          <mxGeometry relative="1" as="geometry" />
        </mxCell>
        <mxCell id="LR9I6PwsWSezDnVNn0yo-18" style="edgeStyle=orthogonalEdgeStyle;rounded=0;orthogonalLoop=1;jettySize=auto;html=1;exitX=0;exitY=0.5;exitDx=0;exitDy=0;entryX=1;entryY=0.5;entryDx=0;entryDy=0;" edge="1" parent="1" source="d-m1fvnhjQEwDDF-BbDo-2" target="e-sfptJcQY6X5hgWJSQ8-83">
          <mxGeometry relative="1" as="geometry">
            <Array as="points">
              <mxPoint x="-940" y="145" />
              <mxPoint x="-940" y="-18" />
              <mxPoint x="-840" y="-18" />
              <mxPoint x="-840" y="-230" />
              <mxPoint x="-850" y="-230" />
              <mxPoint x="-850" y="-180" />
            </Array>
          </mxGeometry>
        </mxCell>
        <mxCell id="LR9I6PwsWSezDnVNn0yo-20" style="edgeStyle=orthogonalEdgeStyle;rounded=0;orthogonalLoop=1;jettySize=auto;html=1;exitX=0;exitY=0.5;exitDx=0;exitDy=0;entryX=0;entryY=0.5;entryDx=0;entryDy=0;" edge="1" parent="1" source="hgtXjXqpbkDtfC8RqkRI-2" target="lPMgVroHek3oW04ZQoGf-105">
          <mxGeometry relative="1" as="geometry">
            <mxPoint x="-1350" y="-197.69230769230768" as="targetPoint" />
            <Array as="points">
              <mxPoint x="-100" y="75" />
              <mxPoint x="-390" y="75" />
              <mxPoint x="-390" y="640" />
              <mxPoint x="-1410" y="640" />
              <mxPoint x="-1410" y="-185" />
            </Array>
          </mxGeometry>
        </mxCell>
        <mxCell id="LR9I6PwsWSezDnVNn0yo-22" style="edgeStyle=orthogonalEdgeStyle;rounded=0;orthogonalLoop=1;jettySize=auto;html=1;entryX=0.997;entryY=0.138;entryDx=0;entryDy=0;entryPerimeter=0;" edge="1" parent="1" target="lPMgVroHek3oW04ZQoGf-37">
          <mxGeometry relative="1" as="geometry">
            <mxPoint x="180" y="-70" as="targetPoint" />
            <mxPoint x="80" y="130" as="sourcePoint" />
            <Array as="points">
              <mxPoint x="100" y="130" />
              <mxPoint x="100" y="-50" />
              <mxPoint x="450" y="-50" />
              <mxPoint x="450" y="62" />
            </Array>
          </mxGeometry>
        </mxCell>
        <mxCell id="LR9I6PwsWSezDnVNn0yo-23" style="edgeStyle=orthogonalEdgeStyle;rounded=0;orthogonalLoop=1;jettySize=auto;html=1;entryX=1;entryY=0.5;entryDx=0;entryDy=0;" edge="1" parent="1" target="lPMgVroHek3oW04ZQoGf-76">
          <mxGeometry relative="1" as="geometry">
            <mxPoint x="330" y="425" as="targetPoint" />
            <mxPoint x="80" y="200" as="sourcePoint" />
            <Array as="points">
              <mxPoint x="100" y="200" />
              <mxPoint x="100" y="410" />
              <mxPoint x="980" y="410" />
              <mxPoint x="980" y="530" />
              <mxPoint x="940" y="530" />
            </Array>
          </mxGeometry>
        </mxCell>
        <mxCell id="LR9I6PwsWSezDnVNn0yo-24" style="edgeStyle=orthogonalEdgeStyle;rounded=0;orthogonalLoop=1;jettySize=auto;html=1;exitX=0;exitY=0.5;exitDx=0;exitDy=0;entryX=1;entryY=0.5;entryDx=0;entryDy=0;" edge="1" parent="1" source="e-sfptJcQY6X5hgWJSQ8-148" target="e_tAOcpKbbN_s6QhWADa-2">
          <mxGeometry relative="1" as="geometry" />
        </mxCell>
        <mxCell id="LR9I6PwsWSezDnVNn0yo-25" style="edgeStyle=orthogonalEdgeStyle;rounded=0;orthogonalLoop=1;jettySize=auto;html=1;exitX=0;exitY=0.5;exitDx=0;exitDy=0;entryX=1.025;entryY=0.167;entryDx=0;entryDy=0;entryPerimeter=0;" edge="1" parent="1" source="e-sfptJcQY6X5hgWJSQ8-151" target="nSE8sef0rnl6WeUxxISN-1">
          <mxGeometry relative="1" as="geometry" />
        </mxCell>
        <mxCell id="LR9I6PwsWSezDnVNn0yo-26" style="edgeStyle=orthogonalEdgeStyle;rounded=0;orthogonalLoop=1;jettySize=auto;html=1;exitX=1;exitY=0.5;exitDx=0;exitDy=0;" edge="1" parent="1" source="yMbdt1dhZqDN_mu69WBK-4" target="1q94uHZ-QxWiK4zQhJO--2">
          <mxGeometry relative="1" as="geometry">
            <Array as="points">
              <mxPoint x="-10" y="-335" />
              <mxPoint x="-10" y="-450" />
              <mxPoint x="1070" y="-450" />
              <mxPoint x="1070" y="450" />
              <mxPoint x="591" y="450" />
            </Array>
          </mxGeometry>
        </mxCell>
        <mxCell id="LR9I6PwsWSezDnVNn0yo-27" style="edgeStyle=orthogonalEdgeStyle;rounded=0;orthogonalLoop=1;jettySize=auto;html=1;exitX=1;exitY=0.5;exitDx=0;exitDy=0;entryX=0.675;entryY=-0.043;entryDx=0;entryDy=0;entryPerimeter=0;" edge="1" parent="1">
          <mxGeometry relative="1" as="geometry">
            <mxPoint x="1305.75" y="-26.289999999999964" as="targetPoint" />
            <mxPoint x="394.24999999999955" y="-840" as="sourcePoint" />
          </mxGeometry>
        </mxCell>
        <mxCell id="LR9I6PwsWSezDnVNn0yo-28" style="edgeStyle=orthogonalEdgeStyle;rounded=0;orthogonalLoop=1;jettySize=auto;html=1;exitX=1;exitY=0.5;exitDx=0;exitDy=0;" edge="1" parent="1" source="5jTrSMMZhgUHgdLPFIc2-4" target="lPMgVroHek3oW04ZQoGf-76">
          <mxGeometry relative="1" as="geometry">
            <Array as="points">
              <mxPoint x="-10" y="-305" />
              <mxPoint x="-10" y="-200" />
              <mxPoint x="900" y="-200" />
            </Array>
          </mxGeometry>
        </mxCell>
        <mxCell id="LR9I6PwsWSezDnVNn0yo-29" style="edgeStyle=orthogonalEdgeStyle;rounded=0;orthogonalLoop=1;jettySize=auto;html=1;exitX=1;exitY=0.5;exitDx=0;exitDy=0;" edge="1" parent="1" source="5jTrSMMZhgUHgdLPFIc2-1" target="lPMgVroHek3oW04ZQoGf-89">
          <mxGeometry relative="1" as="geometry">
            <Array as="points">
              <mxPoint x="-20" y="-275" />
              <mxPoint x="-20" y="-170" />
              <mxPoint x="490" y="-170" />
              <mxPoint x="490" y="43" />
            </Array>
          </mxGeometry>
        </mxCell>
        <mxCell id="LR9I6PwsWSezDnVNn0yo-30" style="edgeStyle=orthogonalEdgeStyle;rounded=0;orthogonalLoop=1;jettySize=auto;html=1;exitX=1;exitY=0.5;exitDx=0;exitDy=0;" edge="1" parent="1" source="5jTrSMMZhgUHgdLPFIc2-7" target="lPMgVroHek3oW04ZQoGf-37">
          <mxGeometry relative="1" as="geometry">
            <Array as="points">
              <mxPoint x="170" y="-245" />
              <mxPoint x="170" y="60" />
            </Array>
          </mxGeometry>
        </mxCell>
        <mxCell id="LR9I6PwsWSezDnVNn0yo-31" style="edgeStyle=orthogonalEdgeStyle;rounded=0;orthogonalLoop=1;jettySize=auto;html=1;exitX=1;exitY=0.5;exitDx=0;exitDy=0;entryX=0;entryY=0.5;entryDx=0;entryDy=0;" edge="1" parent="1" source="e-sfptJcQY6X5hgWJSQ8-51" target="K4fKmmMY9q8T4BV-W0GV-2">
          <mxGeometry relative="1" as="geometry" />
        </mxCell>
        <mxCell id="LR9I6PwsWSezDnVNn0yo-32" style="edgeStyle=orthogonalEdgeStyle;rounded=0;orthogonalLoop=1;jettySize=auto;html=1;exitX=0;exitY=0.5;exitDx=0;exitDy=0;entryX=0;entryY=0.5;entryDx=0;entryDy=0;" edge="1" parent="1" source="e-sfptJcQY6X5hgWJSQ8-57" target="lPMgVroHek3oW04ZQoGf-105">
          <mxGeometry relative="1" as="geometry" />
        </mxCell>
      </root>
    </mxGraphModel>
  </diagram>
</mxfile>
